<svg xmlns="http://www.w3.org/2000/svg" xmlns:xlink="http://www.w3.org/1999/xlink" width="1612" height="1133" viewBox="0 0 1612 1133">
  <defs>
    <style>
      .cls-1 {
        fill: url(#linear-gradient);
      }

      .cls-2 {
        fill: #fff;
      }

      .cls-3 {
        fill: #493838;
      }

      .cls-4 {
        fill: #778beb;
      }

      .cls-5 {
        fill: #915b4a;
      }

      .cls-6 {
        fill: #5c4d4d;
      }
    </style>
    <linearGradient id="linear-gradient" x1="36.66" y1="563.16" x2="1589.23" y2="563.16" gradientUnits="userSpaceOnUse">
      <stop offset="0" stop-color="#c0a650"/>
      <stop offset="0.05" stop-color="#d2be57"/>
      <stop offset="0.11" stop-color="#e4d45e"/>
      <stop offset="0.16" stop-color="#eee262"/>
      <stop offset="0.21" stop-color="#f2e763"/>
      <stop offset="0.27" stop-color="#e6d65d"/>
      <stop offset="0.64" stop-color="#a47a3b"/>
      <stop offset="0.8" stop-color="#8a552e"/>
      <stop offset="1" stop-color="#a38b46"/>
    </linearGradient>
  </defs>
  <title>illuer</title>
  <g id="Layer_3" data-name="Layer 3">
    <path class="cls-1" d="M592,72C533.76,53.32,478.86,43.68,417.75,46.2s-124.7,29.89-154.63,83.23C234.16,181,241.61,245,225.59,301.9,206.92,368.23,158,420.83,116.19,475.62,76.33,527.9,40.87,587.38,37,653,32.93,722.33,65.14,789.54,109,843.42s99,97.15,150.59,143.61c26.33,23.7,52.51,48.78,84.92,63.07,43.38,19.14,92.77,16.83,140.12,14.51,107-5.26,215.87-8.62,319.63,18.05,43.47,11.17,86.74,27.67,131.58,25.68s86.73-22.37,130.19-34c68.38-18.28,141.46-14.91,208.88-36.46,54.79-17.51,103.27-50.72,147.35-87.66C1508.52,877.9,1584.84,780.5,1589,668c3.91-104.48-54.32-200-110.46-288.16l-102-160.26c-25.47-40-51.5-80.69-87.64-111.41s-84.62-50.56-131.17-41.41c-63.81,12.55-113.49,76-178.44,72.75-45.48-2.27-81.63-36.76-117.41-64.93C812.59,35.74,748.42,4.81,688.47,23.34,649.26,35.46,617.87,67.2,577.9,76.49"/>
    <path class="cls-2" d="M658,607c5-30,35-43,59-51,49-16,101-15,151,1,34,12,54,48,48,84-2,13-20,24-16,29,18,22.29,50.71,25.47,81.1,22.77-3.76-16.9-15.54-30.86-15.94-34-5.55-44.49-26.86-212.43-34.66-233.22-9-24-26-81-31-84-2.71-1.63-20-17-25-18-3.35-.67-10.29-4.48-14.51-6.93a9.5,9.5,0,0,1-4.28-5.39A21.65,21.65,0,0,0,839.39,296a9.62,9.62,0,0,1-5-2.9c-13.77-15.18-25.84-18.72-29-19.42a7.89,7.89,0,0,0-1.45-.19l-88.21-4.62a9.34,9.34,0,0,0-4.65,1c-5.14,2.58-17.48,9.56-22.08,19.37a9.58,9.58,0,0,1-6.26,5.33c-15.17,3.85-21.27,12.31-23.31,16.1a9.56,9.56,0,0,1-2.8,3.23c-7.17,5.15-32.38,25-42.35,55.37a9.23,9.23,0,0,1-2.56,3.91c-23,20.81-25,43.35-25.15,48.36a9,9,0,0,0,.12,1.8l38.59,230.58c.74,4.43-4.64,26.49-3.22,73.1,12.73-17.44,29.14-31.53,36-53C665,651,654,630,658,607Z"/>
    <path d="M900,670c-4-5,14-16,16-29,6-36-14-72-48-84-50-16-102-17-151-1-24,8-54,21-59,51-4,23,7,44,0,67-6.86,21.43-23.27,35.52-36,53v0s277.2,61.19,344,7c16.08-13,18-28,15.1-41.23C950.71,695.47,918,692.29,900,670Z"/>
    <path class="cls-3" d="M863,460l-.5,1c.64,2.89-18.64,9.45-15-1.48l14-5Z"/>
    <path class="cls-2" d="M350.82,853.21c-15.33-6.48-40.43-10.71-68.82-10.71-26.95,0-50.93,3.81-66.4,9.74C252.74,884.05,314.8,889.64,350.82,853.21Z"/>
    <path d="M350.82,853.21c-36,36.43-98.08,30.84-135.22-1-11.32,4.34-18.1,9.81-18.1,15.76,0,14.08,37.83,25.5,84.5,25.5s84.5-11.42,84.5-25.5C366.5,862.48,360.68,857.38,350.82,853.21Z"/>
    <g>
      <path d="M332.61,805.28l-8.18-32.8a6.11,6.11,0,0,0-6.62-4.59l-17.72,2a6.1,6.1,0,0,0-5,8.19C314.61,776.17,324.67,790.12,332.61,805.28Z"/>
      <path d="M332.61,805.28c-7.94-15.16-18-29.11-37.54-27.17l.06.18,12.24,30a6.1,6.1,0,0,1-.86,6.08l-21.05,26.8a6.1,6.1,0,0,1-9,.61l-15.07-14.6c-4.5-2.38-7.69-5.78-10.88-9.76-9.74-11.9,7.57-24.89,1.08-35.71-3-5.32-9.29-9.56-16.11-11.24a4.74,4.74,0,0,0-.34.72l-16.71,44.45a6.11,6.11,0,0,0,1.2,6.26l37.85,41.58a6.14,6.14,0,0,0,4.66,2l39.6-.94a6.09,6.09,0,0,0,5-2.81L334,818.91a6.15,6.15,0,0,0,.78-4.77Z"/>
      <path d="M251.54,781.66c6.49,10.82-10.82,23.81-1.08,35.71,3.19,4,6.38,7.38,10.88,9.76l-10.3-10a6.09,6.09,0,0,1-1.64-6l9.65-35.38a6.1,6.1,0,0,0-5.45-7.7l-12.36-.88a6.1,6.1,0,0,0-5.81,3.22C242.25,772.1,248.5,776.34,251.54,781.66Z"/>
    </g>
    <path class="cls-3" d="M996.5,788.5l-44,9.93a54.4,54.4,0,0,1-14,35.59c28.28-5.54,58.43-12.44,64-17.52C1013.5,806.5,996.5,788.5,996.5,788.5Z"/>
    <path d="M980,798c-.24.48-.48,1-.75,1.58A29.55,29.55,0,0,1,982,804a29.55,29.55,0,0,0-2.75-4.42,13.17,13.17,0,0,1-1.27,2.15c26,22.11,64.87,19.15,98,14.27a12.59,12.59,0,0,0,8.79-20l-111.42-3.53c2,2.44,4.08,4.68,5.88,7.12C979.52,799,979.76,798.48,980,798Z"/>
    <path class="cls-2" d="M1085,796h-.17a12.59,12.59,0,0,1-8.79,20c-33.15,4.88-72,7.84-98-14.27a6,6,0,0,1-3,2.27,6,6,0,0,0,3-2.27c-.67-.56-1.33-1.13-2-1.73.65.6,1.31,1.17,2,1.73a13.17,13.17,0,0,0,1.27-2.15c-1.8-2.44-3.86-4.68-5.88-7.12l-2-.06S953,795,958,801s16.23,15,36.23,19,94,6,100-5S1085,796,1085,796Z"/>
    <path class="cls-2" d="M1274,357.7s42.5-20.2,56.5-13.2,55,24,87,153c26,105,24.93,206.75,23.61,240.92a18.4,18.4,0,0,1-11.68,16.42l-69.56,27.25a30.37,30.37,0,0,1-30.08-4.59l-203.29-163,11-122V482.43a27.89,27.89,0,0,0-6.79-18.39c-7.53-8.58-17-25-4.21-44.54-6-51-21.21-64.31,11.4-68.66S1274,357.7,1274,357.7Z"/>
    <g>
      <path class="cls-3" d="M1120,565c-1.67-5.86.84-13.11-1.22-20-17.87-10.56-58.18-30.4-73-4.8-19.28,33.31-13.28,53.31-12.28,118.31.55,36,2.33,73.74,3.81,100.33.23,4.19.46,8.1.67,11.68.87,14.8,1.52,24,1.52,24l40,6s24.07-87.45,28.37-120.78h0l.65-7.75c0-.52,0-1,0-1.47-1-21,4-57,5-58l-5,59.47c0,1.3-.11,2.82-.28,4.55-.1,1-.22,2.07-.37,3.2-.63,9.22,60.63,32.78,60.63,32.78l-5-133.51C1145.9,582.6,1125.6,583.39,1120,565Z"/>
      <path class="cls-3" d="M1039,779c-5.5,5.2-78.61,9.5-72,18,6.5,11.14,83.43,28.44,112.45,13.94a10.1,10.1,0,0,0,5.47-10c-.35-3.89-1-8.45-1.86-13.52C1068,784.42,1054,778.91,1039,779Z"/>
    </g>
    <path d="M899.29,805c-7.1-2.37-13.62-6.76-17.72-13-3.48-5.24-5.15-11.7-6-18a61.63,61.63,0,0,1,.06-17.21,30.09,30.09,0,0,1,6.55-14.62c-1,3.85-.33,7.89.91,11.73s3.3,7.25,5.15,10.68c.15-6.68,3.33-12.78,6.72-18.68s7.19-11.59,9-18.09,1.09-14.17-3.6-19c9.33,3.36,18.28,8.35,24.82,16s9.87,18.13,7.93,27.86a19.32,19.32,0,0,0,4.74-14.21,46.81,46.81,0,0,1,9.48,20,37.66,37.66,0,0,1-2,21.67c-2.78,6.3-7.18,11.6-11.59,16.7C924.19,805.16,911.86,807.09,899.29,805Z"/>
    <path d="M1282.63,812c-8.68-5.12-24.19-8.53-41.88-8.53-13.34,0-25.43,1.94-34.3,5.09C1224.7,828.2,1261.1,828.52,1282.63,812Z"/>
    <path class="cls-2" d="M1282.63,812c-21.53,16.49-57.93,16.17-76.18-3.44-9.21,3.27-15,7.84-15,12.91,0,9.94,22,18,49.25,18s49.25-8.06,49.25-18C1290,818,1287.3,814.78,1282.63,812Z"/>
    <path d="M1289.94,758.83l-7.56-30.32a5.65,5.65,0,0,0-6.12-4.24l-16.38,1.87a5.64,5.64,0,0,0-4.64,7.57C1273.3,731.92,1282.61,744.81,1289.94,758.83Z"/>
    <path class="cls-2" d="M1289.94,758.83c-7.33-14-16.64-26.91-34.7-25.12a1.15,1.15,0,0,0,.06.17l11.31,27.69a5.67,5.67,0,0,1-.79,5.62L1246.35,792a5.64,5.64,0,0,1-8.36.56L1224.06,779c-4.16-2.2-7.11-5.34-10.06-9-9-11,7-23,1-33-2.81-4.92-8.58-8.84-14.89-10.4a5.86,5.86,0,0,0-.32.67l-15.44,41.09a5.62,5.62,0,0,0,1.11,5.78l35,38.44a5.63,5.63,0,0,0,4.3,1.84l36.6-.87A5.66,5.66,0,0,0,1266,811l25.28-39.52A5.62,5.62,0,0,0,1292,767Z"/>
    <path d="M1215,737c6,10-10,22-1,33,3,3.69,5.9,6.83,10.06,9l-9.52-9.23a5.64,5.64,0,0,1-1.52-5.54l8.93-32.7a5.64,5.64,0,0,0-5-7.11l-11.43-.82a5.63,5.63,0,0,0-5.37,3C1206.42,728.16,1212.19,732.08,1215,737Z"/>
    <path class="cls-2" d="M696.5,861.5a342.06,342.06,0,0,0-38.68,6c-.79,7.38-.38,13.88,6.18,19.5,11,8,27,8,34,14,11.9,10.41-7.71,15.29-23.08,22,18.14-.64,35-4,39.58-13.54C725.5,886.5,696.5,861.5,696.5,861.5Z"/>
    <path class="cls-4" d="M611,469c-1.31-.86.67,1.42,0,0Z"/>
    <path d="M447.5,615.67a54.8,54.8,0,0,0,13.57,13.43c4.53-11.83,11.95-21,25.72-21.1a10.09,10.09,0,0,0,.95-1.74A38,38,0,0,0,484,607a38,38,0,0,1,3.74-.74,5.26,5.26,0,0,0,.4-1.8A64.16,64.16,0,0,0,447.5,615.67Z"/>
    <path d="M395.08,719.19c.62,10.53-3.19,20.21-6.08,30.81-11.08,37.19-20.89,76.25-18.07,114.22,11.67,2.6,12.67.7,11.92-1-.29-.63,8.61-2.14,20-4,13.78-46.11,26.56-92.38,38-140.5C425.58,718.57,410.33,719.59,395.08,719.19Z"/>
    <path class="cls-2" d="M611,469c.67,1.42-1.31-.86,0,0-14.75-31.11-26.94-45.45-34-50-1.25-.8-11.3-4.69-12-6-6.71-12.43-27.58-79.18-76.92-89.78L356.5,300.5s-21.51-3.44-15.05,20.8a9,9,0,0,1-2.95,9.16c-7.22,6.08-6.29,16.29-3.79,24.6a8.8,8.8,0,0,1-8.2,11.32c-9.09.23-20.13,3.95-25,19.12-9,28-40,90-38,131s-78,101-95,166c-16.47,63-32.95,80.9,17.92,121.08a8.92,8.92,0,0,1,3,9.34c-2.07,7.68-2.59,21.57,17,28.58,28,10,122,5,134,2s-11,9,20,18c4.19,1.21,7.61,2.1,10.43,2.72-2.82-38,7-77,18.07-114.22,2.89-10.6,6.7-20.28,6.08-30.81-1.7-.05-3.39-.11-5.08-.19,1.69.08,3.38.14,5.08.19,0-.4,0-.79-.08-1.19,0,.4.05.79.08,1.19,15.25.4,30.5-.62,45.75-.45Q446.65,694.21,452,669c2.6-10.93,4.12-27,9.07-39.9a54.8,54.8,0,0,1-13.57-13.43l-.5.33.5-.33c-.16-.23-.34-.44-.5-.67.16.23.34.44.5.67a64.16,64.16,0,0,1,40.64-11.21A5,5,0,0,0,488,603a5,5,0,0,1,.14,1.46A70.28,70.28,0,0,1,499,606a70.28,70.28,0,0,0-10.86-1.54,5.26,5.26,0,0,1-.4,1.8c18.12-2.59,31.51,10,35.26,27.74,5,24,8,49-2,71-11,24-40,43-33,73,1,2,8,2,9,0,29-39,73-22,113-29,2-1,4-8,6-13,9.33-15.8,22.79-28,32.6-42.86C640.09,599.29,629.64,481.27,611,469Z"/>
    <path d="M663.05,807.65c-5-11.32-9.38-58.63-14.45-114.51C638.79,708,625.33,720.2,616,736c-2,5-4,12-6,13-40,7-84-10-113,29-1,2-8,2-9,0-7-30,22-49,33-73,10-22,7-47,2-71-3.75-17.79-17.14-30.33-35.26-27.74a10.09,10.09,0,0,1-.95,1.74h0c-.85,1.33-1.79,2.55-1.79,4,0-1.45.94-2.67,1.79-4-28.79.2-29.8,40-34.79,61-14,66.43-30.69,128.48-49.16,190.24,17.62-2.89,41.18-6.65,45.77-9.4L550,834c.24-.14,32.78-14.84,33-15l77.2-.66A8.82,8.82,0,0,0,663.05,807.65Z"/>
    <path class="cls-2" d="M777,859c7-12,18-19,24-30,3-7-1-15,0-23,15,2,32,16,45,2,5-6,5-15,9-21,3-5,11-2,17-5,16-8-2-30-5-44,10-1,25,5,30-4,4.54-8.16-1.62-18.8-2.81-29.66a142,142,0,0,0-29.11-20.48h0c-11.41-13.64,0-24.4,0-24.4,17.08-7.63,27.41-17.58,27.41-28.46,0-24-50.37-43.5-112.5-43.5S667.5,607,667.5,631c0,4.38,1.68,8.6,4.79,12.59C712.38,654,748.82,678.94,792,676c-26,7-56,8-77,24-41,31-33,90-10,132-2-3-6-3-9-4a36.93,36.93,0,0,0,11,27,128.1,128.1,0,0,1,18.41,27.37,181.77,181.77,0,0,0,20.27,5C749.54,878.92,754.33,871,758,863,760,858,774,864,777,859Z"/>
    <path class="cls-3" d="M865,632c1.74-6.1-2.59-12.2-7-17-16.73-6.37-43.84-10.52-74.46-10.52-50.81,0-92,11.42-92,25.5,0,8.59,15.32,16.18,38.79,20.8,40-1,78.55-2.32,119.71-9.8C856,640,864,638,865,632Z"/>
    <path class="cls-3" d="M894.19,704.34c1.19,10.86,7.35,21.5,2.81,29.66-5,9-20,3-30,4,3,14,21,36,5,44-6,3-14,0-17,5-4,6-4,15-9,21-13,14-30,0-45-2-1,8,3,16,0,23-6,11-17,18-24,30-3,5-17-1-19,4-3.67,8-8.46,15.92-12.32,24.33a191.07,191.07,0,0,0,34.82,3.17c81.74,0,148-50.82,148-113.5C928.5,749.36,915.61,724,894.19,704.34Z"/>
    <path d="M858,615c4.45,4.78,8.78,10.88,7,17-1,6-9,8-15,9-41.16,7.48-79.7,8.84-119.71,9.8a281.59,281.59,0,0,0,53.21,4.7c50.81,0,92-11.42,92-25.5C875.5,624.4,869,619.23,858,615Z"/>
    <path class="cls-2" d="M952.53,798.43l-49,11.07-18,34s25.62-4.11,53-9.48A54.4,54.4,0,0,0,952.53,798.43Z"/>
    <path class="cls-2" d="M911,855c14.53-.91,26.59-6,37.67-13.61-31.18-4-60.13-7.11-71.77-8.33a5.74,5.74,0,0,0-6.27,4.8l-4.34,26.75a5.17,5.17,0,0,0,4.51,6l24.68,2.8C900.58,866.4,902.66,855.83,911,855Z"/>
    <path class="cls-3" d="M1053.5,862.5c-2.18-6.55-56.21-14.89-104.83-21.11-11.08,7.66-23.14,12.7-37.67,13.61-8.34.83-10.42,11.4-15.52,18.37l151,17.13S1057.5,874.5,1053.5,862.5Z"/>
    <path class="cls-2" d="M889.47,878.07a66.82,66.82,0,0,0-4-5.83s-48.18,4.21-75.55,6.22c6.56,5.39,12.18,12.54,21,12.54C851.21,891.92,868.9,879.34,889.47,878.07Z"/>
    <path class="cls-3" d="M889.47,878.07C868.9,879.34,851.21,891.92,831,891c-8.87,0-14.49-7.15-21-12.54-8.55.63-15.07,1-17.45,1-10,0,0,35,0,35s99,8,104-7C899.83,897.51,893.84,885.18,889.47,878.07Z"/>
    <path class="cls-3" d="M711.5,241.24a7.45,7.45,0,0,1,.14-1.49c1.23-6.17,11.15-48.32,52.86-49.25,45-1,53,49,53,49s4.82,81.14-49,101.93a8.77,8.77,0,0,1-6,.1C713.52,324.43,711.57,249.5,711.5,241.24Z"/>
    <path class="cls-3" d="M436.07,211.3a31.15,31.15,0,0,0-15.37,1.45c-13.43,4.85-40.33,19.05-49.2,56.75-12,51,49,121,82,120,28.36-.86,39-88.87,41.42-113.6a30.94,30.94,0,0,0-1.78-13.85C487.79,247.66,472.3,217,436.07,211.3Z"/>
    <path d="M486.93,360,749.86,640.75a2.49,2.49,0,0,0,3.45.17l4.25-3.72a2.49,2.49,0,0,0,.17-3.58l-264.2-281a2.49,2.49,0,0,0-3.8.22l-3,4A2.48,2.48,0,0,0,486.93,360Z"/>
    <path class="cls-2" d="M1194.41,722.24c10.43,3.26,25.45,5.82,42.25,6.83a229.52,229.52,0,0,0,25.87.16c-6.33-2-11.43-6.53-16.53-8.23C1229,713.71,1212,720.86,1194.41,722.24Z"/>
    <path d="M1295.42,719.22c.44-7.37-25.15-14.91-57.16-16.84s-58.32,2.49-58.76,9.86c-.21,3.5,5.47,7,14.91,10C1212,720.86,1229,713.71,1246,721c5.1,1.7,10.2,6.28,16.53,8.23C1281.73,728.19,1295.11,724.45,1295.42,719.22Z"/>
    <path class="cls-2" d="M1346.5,808.5s14,69-16,81-52-2-54-3-4-11-2-16S1296,802.25,1296,802.25Z"/>
    <path class="cls-2" d="M483.34,886.9s22.16,1.6,17.16,7.6-20,16-40,20-94,6-100-5,9.27-19,9.27-19Z"/>
    <path class="cls-3" d="M438.5,632.5s10-26,43-18,21,48,21,48-83,205-86,210c-3.29,5.49,81,11,74,20-6.5,11.14-86.2,27.44-115.22,12.94a10.1,10.1,0,0,1-5.47-10c3.32-36.72,32.22-132,33-171.41a21.36,21.36,0,0,1,5.5-13.83c7.57-8.47,20.14-23.43,22.21-31.72C433.5,666.5,438.5,632.5,438.5,632.5Z"/>
    <path class="cls-2" d="M448.11,877a2.39,2.39,0,0,0-2.2-1.47h-9a2.38,2.38,0,0,0-2.23,3.22l4.06,10.74c4-1.7,6.83-6.33,11.21-7.91Z"/>
    <path d="M450,881.55c-4.38,1.58-7.18,6.21-11.21,7.91l6.3,16.64c4.37-1.93,7.27-6.05,11.89-7.6Z"/>
    <path class="cls-2" d="M460.41,906.86,457,898.5c-4.62,1.55-7.52,5.67-11.89,7.6l1.7,4.49a2.36,2.36,0,0,0,2.72,1.48l9.21-2A2.38,2.38,0,0,0,460.41,906.86Z"/>
    <path class="cls-3" d="M1228.94,237.14a43.15,43.15,0,0,1,27.44,8.44c15.67,11.66,36.38,37,26.62,86.42-15,76-104,97-110,96-1.57-.26-9.28-2.5-12.61-7.21-12.05-17.11-30.93-58-18.39-98.79C1157.14,272.79,1161.54,239.69,1228.94,237.14Z"/>
    <path class="cls-3" d="M1120,565c5.6,18.39,25.9,17.6,43.52,14l-1-27.49-35-1s-3.35-2.34-8.72-5.51C1120.84,551.89,1118.33,559.14,1120,565Z"/>
    <path class="cls-5" d="M1108.52,672l-.65,7.75h0c.15-1.13.27-2.2.37-3.2C1108.41,674.79,1108.5,673.27,1108.52,672Z"/>
    <path class="cls-2" d="M1292.58,726.93s-31.08-22.43-45.08-24.43-86,22-92,12,0-154,0-154l50-12,116,12Z"/>
    <path d="M1117.88,224.5h14.5a2.31,2.31,0,0,1,2.31,2.1c4,43.2,57.06,613,56,663.64a2.32,2.32,0,0,1-2.32,2.26h-14.7a2.3,2.3,0,0,1-2.31-2.15c-2.79-39.67-43.46-616.1-55.72-663A2.31,2.31,0,0,1,1117.88,224.5Z"/>
    <path class="cls-3" d="M1364,498.07a2.52,2.52,0,0,1,3,2c2.55,12.81,12.14,67.23,4.49,72.46-9.5,6.5-162.5.1-180.18-11.38a2.6,2.6,0,0,0-1.93-.41c-16.56,3.34-34,15.82-58.32,8.11a2.72,2.72,0,0,1-.81-.42c-10.6-8.12-3.46-17.2-2.76-17.9,1-1-6-5.84-6-9,0-4,3.07-6.16,4.63-8.76a2.51,2.51,0,0,0-.82-3.42c-2-1.23-4.43-3.33-3.81-5.82s3-5.59,4.52-7.39a2.5,2.5,0,0,0,0-3.23c-3.25-3.93-10.09-14.08.31-19.81a2.56,2.56,0,0,1,2.21-.11c4.84,2,24.67,10,29.92,6.54,4.54-3-.09-11.79-2.6-15.86a2.52,2.52,0,0,1,1.18-3.67c3.8-1.5,11.1-1.62,17.42,14.53,9,23,4,27,13,32,8.1,4.5,105.41,8.19,124.69,8.88a2.51,2.51,0,0,0,2.54-3.1L1310.1,513a2.52,2.52,0,0,1,1.89-3.05Z"/>
    <path d="M1162,439c2.82,4.65,5.39,9.4,8,14.15l.25.44.18.3a3.64,3.64,0,0,0,.46.5,3,3,0,0,0,1.13.64,2.86,2.86,0,0,0,2.37-.29l6.59-4.4c8.94-6,17.86-11.95,26.7-18s17.59-12.22,26-18.76c4.21-3.27,8.33-6.65,12.23-10.27a65,65,0,0,0,5.56-5.7A31.5,31.5,0,0,0,1256,391a25.26,25.26,0,0,1-3.19,7.56,57.59,57.59,0,0,1-4.75,6.74,115.61,115.61,0,0,1-11.34,11.86,235.74,235.74,0,0,1-25.67,20.1q-13.42,9.21-27.65,17.09c-1.18.67-2.37,1.31-3.56,1.95l-1.79,1-.9.48c-.31.16-.55.29-1,.52a6.44,6.44,0,0,1-7.61-1.7,7.3,7.3,0,0,1-.75-1.12l-.27-.61-.18-.48C1165.46,449.27,1163.61,444.19,1162,439Z"/>
    <path d="M1307,367c-8.28,9.95-16.72,19.74-25.17,29.5l-12.66,14.65c-4.22,4.88-8.45,9.75-12.61,14.68s-8.36,9.81-12.45,14.78-8.13,10-12,15.07c-2,2.54-3.81,5.16-5.62,7.79a49,49,0,0,0-4.66,8.22c-1.25,3-2.52,6-4,8.89a39.8,39.8,0,0,1-2.43,4.25,9.27,9.27,0,0,1-1.6,1.89c-.31.24-.75.56-1.21.36A1.39,1.39,0,0,1,1212,486a1.29,1.29,0,0,0,.61.94c.35.11.69-.18.94-.44a9.12,9.12,0,0,0,1.29-2,40.92,40.92,0,0,0,1.94-4.39c1.16-3,2.19-6.05,3.17-9.12a49.93,49.93,0,0,1,4.28-8.93c.84-1.41,1.69-2.81,2.59-4.16s1.79-2.73,2.72-4.06c7.39-10.71,15.62-20.74,24-30.63q6.35-7.35,12.82-14.58c4.36-4.78,8.71-9.57,13.18-14.24C1288.43,385,1297.52,375.82,1307,367Z"/>
    <path d="M1307,391c-10.37,10.37-20.13,21.2-29.39,32.39-4.58,5.63-9.1,11.3-13.33,17.18s-8.39,11.8-12.18,17.95A226.57,226.57,0,0,0,1232.49,497l-1,2.56c-.17.42-.31.85-.5,1.28l-.59,1.29c-.83,1.71-1.54,3.48-2.51,5.09l-1.38,2.45c-.46.82-1,1.59-1.52,2.38a53.22,53.22,0,0,1-3.32,4.57,37.84,37.84,0,0,1-8.36,7.57l-1.2.75-1.25.65a24.44,24.44,0,0,1-2.58,1.11,15.2,15.2,0,0,1-5.47.92,19.88,19.88,0,0,0,9.52-4.77,38.24,38.24,0,0,0,7-8c.94-1.51,1.93-3,2.72-4.58.41-.79.87-1.55,1.23-2.36l1.1-2.44a78.64,78.64,0,0,0,3.7-10.08A176,176,0,0,1,1247,455.33c4-6.24,8.22-12.32,12.74-18.16s9.27-11.5,14.34-16.86,10.27-10.56,15.72-15.5A183.39,183.39,0,0,1,1307,391Z"/>
    <path d="M1280,517l10.23-2.58,10.22-2.51,20.42-5c13.56-3.4,27.18-6.73,40.32-10.8,3.27-1,6.51-2.11,9.52-3.34a34.49,34.49,0,0,0,4.06-1.93,3.15,3.15,0,0,0,.38-.24,2.35,2.35,0,0,0,.31-.21c.06-.06.18-.14.2-.17s.08-.07,0,0a.47.47,0,0,0-.1.1l0,.05a1.09,1.09,0,0,0-.13.17,1.47,1.47,0,0,0-.21.39s0,0,0,0,0-.21.07-.45a32.61,32.61,0,0,0,.21-4.34c0-1.61-.08-3.27-.18-4.95-.19-3.34-.52-6.74-.91-10.13-.81-6.79-1.82-13.6-3.11-20.34s-2.71-13.44-4.52-20a109.6,109.6,0,0,0-6.62-18.71,29.4,29.4,0,0,0-4.62-7.25,10.68,10.68,0,0,0-1.17-1.06c-.17-.08-.35-.25-.49-.3s-.11-.07-.25-.14L1353,403c-1.54-.68-3.07-1.35-4.61-2a84,84,0,0,0-9.29-3.23l-.58-.16-.52-.13c-.29-.07-.59-.14-.88-.18a13.72,13.72,0,0,0-1.8-.18,12.32,12.32,0,0,0-7,2c-.26.18-.53.34-.77.54s-.23.16-.4.3l-.49.41-2,1.64q-4,3.28-7.79,6.75c-10.17,9.23-19.78,19.18-27.75,30.31q-3,4.19-5.57,8.61a87,87,0,0,0-4.55,9.18,51.69,51.69,0,0,0-3.07,9.81,43.72,43.72,0,0,0-1,10.37,40.76,40.76,0,0,1-.79-10.6,52.71,52.71,0,0,1,1.71-10.63,77,77,0,0,1,3.5-10.22c1.43-3.3,3-6.52,4.79-9.67,7.09-12.54,16.26-23.69,26.19-33.95q3.75-3.84,7.67-7.51c.65-.61,1.31-1.22,2-1.82l.5-.45.62-.53c.42-.37.88-.7,1.33-1a23,23,0,0,1,6-3.1,23.28,23.28,0,0,1,6.73-1.19,20.83,20.83,0,0,1,3.44.19c.58.06,1.14.17,1.71.28l.76.17.69.16a94.66,94.66,0,0,1,10.68,3.31c1.72.63,3.43,1.31,5.1,2l.63.27c.26.11.63.3.93.45a16.69,16.69,0,0,1,1.76,1.05,19.61,19.61,0,0,1,2.81,2.37,39.61,39.61,0,0,1,7,10.18,119.1,119.1,0,0,1,7.58,20.8,250.93,250.93,0,0,1,7.35,42.35c.29,3.58.52,7.17.6,10.83,0,1.83.06,3.67,0,5.57a38.86,38.86,0,0,1-.64,6.12,14.24,14.24,0,0,1-.58,2.09l-.27.66c-.17.32-.35.64-.55.95a4.84,4.84,0,0,1-.3.44l-.25.31c-.17.2-.35.39-.54.58a11.7,11.7,0,0,1-1,.84c-.31.25-.56.4-.85.61a9.11,9.11,0,0,1-.8.49c-.25.15-.52.31-.76.43a39.64,39.64,0,0,1-5.54,2.32c-3.56,1.21-7,2.13-10.52,3-13.91,3.32-27.79,5.55-41.74,7.5-7,.94-14,1.81-21,2.52l-10.5,1C1287,516.48,1283.52,516.8,1280,517Z"/>
    <path d="M1215,707.14c5.43-2,10.87-3.47,16.32-4.89s10.89-2.7,16.31-4,10.84-2.5,16.17-3.91c2.67-.71,5.32-1.46,7.91-2.36a24.26,24.26,0,0,0,7.38-3.74,12,12,0,0,1-2.59,3.56,24.19,24.19,0,0,1-3.44,2.8,48.11,48.11,0,0,1-7.68,4.18,93.75,93.75,0,0,1-16.38,5.32,132.52,132.52,0,0,1-16.86,2.76A96.1,96.1,0,0,1,1215,707.14Z"/>
    <path class="cls-6" d="M1314,535c1-.92,2.3-.31,3.59-.45a9.41,9.41,0,0,1,3.84.47,10,10,0,0,1,3.31,1.91,9.51,9.51,0,0,1,1.31,1.38,9,9,0,0,1,1,1.69,12.64,12.64,0,0,1-1.82-.5c-.59-.15-1.11-.38-1.65-.55l-3.06-1.09c-1-.33-2-.66-3.06-1S1315.28,535.29,1314,535Z"/>
    <path class="cls-6" d="M1191,560a4,4,0,0,1-3-.24,5.65,5.65,0,0,1-2.33-2,6.75,6.75,0,0,1-1-2.83,9,9,0,0,1,0-1.47A8,8,0,0,1,1185,552a10.91,10.91,0,0,1,.64,1.28c.2.41.39.81.56,1.2a19,19,0,0,0,1.18,2.15A10,10,0,0,0,1191,560Z"/>
    <path class="cls-6" d="M1126,513c1.26.66,2.35,1.44,3.47,2.14.56.37,1.12.72,1.69,1a10.29,10.29,0,0,0,1.84.83,3.81,3.81,0,0,1-2.14-.11,7.12,7.12,0,0,1-1.93-.91,9.42,9.42,0,0,1-1.63-1.32A7.29,7.29,0,0,1,1126,513Z"/>
    <path class="cls-6" d="M1125,529a27.32,27.32,0,0,0,2.76,2.42,10.38,10.38,0,0,0,1.51.9,15.6,15.6,0,0,0,1.73.68,3.8,3.8,0,0,1-2,.06,5.19,5.19,0,0,1-1.84-.83,5.9,5.9,0,0,1-1.39-1.43A4.55,4.55,0,0,1,1125,529Z"/>
    <path class="cls-6" d="M1126.46,548.5a35,35,0,0,0,2.61,2.58,10.86,10.86,0,0,0,1.43,1,12.62,12.62,0,0,0,1.69.77,3.64,3.64,0,0,1-2-.05,5,5,0,0,1-1.77-1,6.2,6.2,0,0,1-1.28-1.52A4.79,4.79,0,0,1,1126.46,548.5Z"/>
    <g>
      <path class="cls-3" d="M1355.83,571.86a77.23,77.23,0,0,0-17.58-3.17,37.36,37.36,0,0,1-4.82-.72c-4.86-1-17.19-2.39-25.06,8C1323.25,570.26,1340,571.4,1355.83,571.86Z"/>
      <path class="cls-3" d="M1374.5,607.5a9.76,9.76,0,0,1-1.35-4.59c-.82-9.13,3.81-24.18-17.32-31-15.86-.46-32.58-1.6-47.46,4.16-3.56,4.74-6.21,11.91-6.82,22.64a38.89,38.89,0,0,1-4.74,16.38,92.21,92.21,0,0,0-11.31,43.46c0,30,17,123,12,139s-23,72-18,81c2.48,4.46,26.38,14.63,46.45,1.94a38.88,38.88,0,0,0,17-25.16,185.16,185.16,0,0,0,3.51-47.78c-1.58-25.22,16.72-72.8,24.55-91.83a54.89,54.89,0,0,0,4-17.77C1376.42,674.28,1379.3,614.69,1374.5,607.5Z"/>
    </g>
    <path class="cls-6" d="M858.48,450.69a33.08,33.08,0,0,0-3.27,4.11,8,8,0,0,0-1.06,2.27,6,6,0,0,0-.08,2.55,4,4,0,0,1-.69-2.69,6.2,6.2,0,0,1,1-2.66,9.37,9.37,0,0,1,1.82-2.09A8.9,8.9,0,0,1,858.48,450.69Z"/>
    <path class="cls-6" d="M1291,861a37.28,37.28,0,0,1,6.55-5.21,62.06,62.06,0,0,1,7.15-3.92,60.08,60.08,0,0,1,7.6-3,36.92,36.92,0,0,1,8.2-1.65,36.44,36.44,0,0,1-6.55,5.22,60.5,60.5,0,0,1-7.15,3.91,61.23,61.23,0,0,1-7.6,2.94A36.36,36.36,0,0,1,1291,861Z"/>
    <path d="M1326.46,819.34l-34.8,20.57c8.87-1.16,13.81,7.47,21,10.25L1345.32,834C1339.29,829,1335.13,821.61,1326.46,819.34Z"/>
    <path class="cls-2" d="M1348.35,831.5l-1.67-21.63a1.48,1.48,0,0,0-2.23-1.16l-18,10.63c8.67,2.27,12.83,9.68,18.86,14.69l2.21-1.09A1.49,1.49,0,0,0,1348.35,831.5Z"/>
    <path class="cls-2" d="M1291.66,839.91l-10.61,6.27a1.44,1.44,0,0,0-.69.94l-4.17,18.35a1.48,1.48,0,0,0,2.1,1.65l34.36-17C1305.47,847.38,1300.53,838.75,1291.66,839.91Z"/>
    <path class="cls-2" d="M1293.77,808.81l54.86,31.61a2.87,2.87,0,0,1,1.35,3.18l-3.6,14.37a3,3,0,0,1-4.18,2l-55.7-26.06a3.75,3.75,0,0,1-2-4.55L1290.7,810A2.11,2.11,0,0,1,1293.77,808.81Z"/>
    <path d="M942.27,802.42a46.81,46.81,0,0,0-9.48-20,19.32,19.32,0,0,1-4.74,14.21c1.94-9.73-1.39-20.22-7.93-27.86s-15.49-12.62-24.82-16c4.69,4.82,5.36,12.5,3.6,19s-5.56,12.19-9,18.09-6.57,12-6.72,18.68c-1.85-3.43-3.9-6.85-5.15-10.68s-1.89-7.88-.91-11.73a30.09,30.09,0,0,0-6.55,14.62,48.44,48.44,0,0,0-.63,7.89,50.88,50.88,0,0,0-4.94-1.48c3.4,2.84,4.37,7.83,3.65,12.2s-2.82,8.37-4.64,12.47-3.49,8.3-3.13,12.69a42.73,42.73,0,0,1-4.11-6.65,14,14,0,0,1-1.39-7.62,19.82,19.82,0,0,0-3.3,10,25.45,25.45,0,0,0,0,2.62,33.32,33.32,0,0,0-3-3.57A12.76,12.76,0,0,1,846.9,849c.61-6.51-2.28-13.17-7.09-17.72s-11-7.22-17.36-8.79c3.41,2.84,4.37,7.83,3.66,12.2s-2.82,8.37-4.64,12.47-3.5,8.3-3.14,12.69a43.45,43.45,0,0,1-4.1-6.65,13.92,13.92,0,0,1-1.39-7.62,19.72,19.72,0,0,0-3.3,10,39.92,39.92,0,0,0,1.13,11.27,28.52,28.52,0,0,0,5.16,11.37,22.29,22.29,0,0,0,12.5,7.31c8.38.54,16.33-1.56,21.94-7.69,2.55-3.64,5.08-7.42,6.47-11.73a24,24,0,0,0,.84-4.3c.27.38.54.75.84,1.11a22.26,22.26,0,0,0,12.49,7.31c8.38.54,16.33-1.56,22-7.69,2.54-3.64,5.07-7.42,6.46-11.73.13-.41.22-.83.32-1.25,10.67.79,20.89-1.64,29-8.82,4.41-5.1,8.81-10.4,11.59-16.7A37.66,37.66,0,0,0,942.27,802.42Z"/>
    <path class="cls-2" d="M691,834l-24.5-1.5-55.23-16.2c-.75,18,16.9,30.44,18.73,48.7a56.35,56.35,0,0,0-12.34,1.47c49.38,15.09,96.84,28,96.84,28Z"/>
    <path class="cls-2" d="M992.32,812.36a2.38,2.38,0,0,0,1.7,3.24l9.21,2a2.36,2.36,0,0,0,2.72-1.48l2.11-5.57c-4.59-1.49-8.06-5.13-12.07-7.08Z"/>
    <path d="M996,803.44c4,1.95,7.48,5.59,12.07,7.08l6.32-16.69c-3.47-2.5-7.69-4.36-11.48-7.17Z"/>
    <path class="cls-2" d="M1015.78,781h-8.95a2.39,2.39,0,0,0-2.21,1.47l-1.72,4.19c3.79,2.81,8,4.67,11.48,7.17l3.63-9.61A2.38,2.38,0,0,0,1015.78,781Z"/>
    <path class="cls-6" d="M1113,615a162.66,162.66,0,0,1,0,17c-.25,5.62-.66,11.21-1.2,16.79s-1.22,11.14-2,16.69l-1.21,8.32c-.23,1.39-.41,2.77-.6,4.16-.1.69-.18,1.39-.23,2.08,0,.35,0,.69,0,1a1.45,1.45,0,0,0,.25,1c-.36-.14-.49-.56-.63-.89s-.23-.69-.32-1c-.17-.71-.29-1.42-.41-2.13-.22-1.42-.34-2.85-.47-4.27-.21-2.84-.26-5.68-.25-8.51,0-5.66.38-11.29.93-16.89s1.31-11.19,2.28-16.74A137,137,0,0,1,1113,615Z"/>
    <path class="cls-2" d="M995.4,784.37a4.4,4.4,0,0,1,3.38.68c7.28,5,37.82,26,38.59,31.62.7,5.14-11.7,3.47-16.39,2.66a6.36,6.36,0,0,1-3-1.44l-33.67-29.13a1.32,1.32,0,0,1,.61-2.29Z"/>
    <path d="M812,329a231.61,231.61,0,0,1-16,22.75,247.32,247.32,0,0,1-18.39,20.91,111.14,111.14,0,0,1-10.55,9.44,31.28,31.28,0,0,1-6.46,4,11.54,11.54,0,0,1-2.21.68,5.43,5.43,0,0,1-3.24-.36l-.46-.24a1.54,1.54,0,0,1-.22-.17l-.41-.32-.81-.66a14.07,14.07,0,0,1-1.4-1.38,33.16,33.16,0,0,1-4.26-6c-.62-1-1.13-2.09-1.68-3.14s-1-2.13-1.47-3.21A84,84,0,0,1,740,358c2.31,4,4.57,8.05,7.06,11.87,1.22,1.92,2.5,3.8,3.84,5.57a34.25,34.25,0,0,0,4.29,4.83,9.68,9.68,0,0,0,1.15.94l.58.38.28.2.12.08a.09.09,0,0,0-.06-.06c-.2-.11-.13-.05.15-.13a6.66,6.66,0,0,0,1.05-.44,29.82,29.82,0,0,0,5.08-3.6c1.68-1.41,3.35-2.91,5-4.47s3.26-3.13,4.86-4.75c6.43-6.45,12.72-13.13,19.09-19.76S805.25,335.39,812,329Z"/>
    <path d="M792,401q-4.77,9.6-9.92,19c-3.38,6.3-6.93,12.5-10.55,18.67s-7.41,12.26-11.43,18.24c-2,3-4.11,5.93-6.39,8.82A53.47,53.47,0,0,1,750,470a23.66,23.66,0,0,1-2.25,2,12.55,12.55,0,0,1-1.42,1,7.16,7.16,0,0,1-2,.84,5.31,5.31,0,0,1-1.56.12,5.13,5.13,0,0,1-.91-.2l-.44-.15-.29-.14a7,7,0,0,1-1-.61,8.32,8.32,0,0,1-.74-.6,20.77,20.77,0,0,1-2.18-2.28c-1.25-1.5-2.33-3-3.37-4.53-2.07-3-4-6.14-5.79-9.26-3.63-6.24-7-12.6-10.22-19s-6.4-12.84-9.42-19.34-5.9-13.06-8.71-19.66-5.52-13.24-8.09-20-4.91-13.54-6.91-20.58c-.51-1.76-1-3.54-1.4-5.36a53.35,53.35,0,0,1-1-5.67,24.64,24.64,0,0,1-.19-3.21c0-.3,0-.58,0-.9l.13-1a8.2,8.2,0,0,1,.29-1.2,6,6,0,0,1,.85-1.69,4.81,4.81,0,0,1,2.88-1.84,5,5,0,0,1,2.86.3,5.41,5.41,0,0,1,.8.4,6.46,6.46,0,0,1,.58.38c.33.25.61.48.86.71a19.79,19.79,0,0,1,2.21,2.52,83.88,83.88,0,0,1,5.85,9.59c1.72,3.21,3.35,6.43,4.93,9.66,6.34,12.91,12,26.05,17.5,39.23,2.78,6.58,5.43,13.22,8.06,19.86s5.25,13.28,7.74,20l-2.82-.56,7.5-7,7.54-7,7.56-6.94L765,411l-6.88,7.62-6.94,7.56-7,7.54-7,7.5a1.68,1.68,0,0,1-2.38.08,1.74,1.74,0,0,1-.38-.52l-.06-.12-8.88-19.44-9-19.39q-4.5-9.68-9.16-19.28c-3.11-6.39-6.19-12.78-9.46-19.05-1.63-3.14-3.29-6.25-5-9.28a80.69,80.69,0,0,0-5.46-8.56,12.13,12.13,0,0,0-1.31-1.5c-.13-.14-.35-.23.06,0a2.94,2.94,0,0,0,1.56.12,3.08,3.08,0,0,0,1.79-1.12,1.47,1.47,0,0,0,.28-.49s0,0,0,.11,0,.2,0,.3v.43a16.85,16.85,0,0,0,.14,2.13,72,72,0,0,0,2.28,9.82c2,6.66,4.36,13.31,6.87,19.91s5.11,13.21,7.83,19.75,5.55,13.06,8.47,19.53,5.82,12.94,8.89,19.33,6.24,12.72,9.57,18.93c1.67,3.1,3.38,6.17,5.21,9.09.91,1.46,1.86,2.89,2.84,4.17a15.73,15.73,0,0,0,1.44,1.65,2.64,2.64,0,0,0,.29.25c.11.11.12.09.12.11v0l-.12-.06a.83.83,0,0,0-.27,0c-.11,0-.27,0-.23,0a3.71,3.71,0,0,0,1.23-.68,17.35,17.35,0,0,0,1.77-1.48c1.2-1.12,2.35-2.38,3.5-3.67,2.29-2.59,4.48-5.35,6.61-8.16,4.27-5.63,8.3-11.49,12.34-17.34C776.54,425,784.28,413,792,401Z"/>
    <path d="M825,434q-4.85,9.57-10,19l-5.11,9.41-5.21,9.37c-7,12.46-14.15,24.82-21.68,37-1.89,3-3.77,6.1-5.77,9.1-1,1.5-2,3-3.11,4.5-.25.38-.55.76-.84,1.14s-.54.74-.92,1.16a9.43,9.43,0,0,1-1.34,1.38c-.17.14-.34.28-.52.41l-.29.16-.39.17-.41.13a3.76,3.76,0,0,1-.76.08,3,3,0,0,1-1.61-.44,3.43,3.43,0,0,1-.7-.54,1.91,1.91,0,0,1-.23-.26l-.14-.19a4.92,4.92,0,0,1-.42-.82c-.05-.16-.09-.32-.13-.48a3.94,3.94,0,0,1-.11-.75,3.84,3.84,0,0,1,0-.55c0-.36,0-.62,0-.91,0-.56.1-1.06.17-1.55.14-1,.32-1.89.5-2.8.38-1.82.8-3.59,1.24-5.35.88-3.51,1.87-7,2.88-10.41,2-6.89,4.21-13.7,6.44-20.5s4.59-13.54,7-20.3l4.41,2.49c-3.86,4.54-7.73,9.19-11.42,13.93s-7.35,9.53-10.81,14.45a177.14,177.14,0,0,0-9.7,15.17,71.62,71.62,0,0,0-3.92,8.08A26.12,26.12,0,0,0,750,524a24.9,24.9,0,0,1,1.12-9,69.47,69.47,0,0,1,3.19-8.61A146.05,146.05,0,0,1,763,490.21C766.15,485,769.49,479.92,773,475s7.14-9.85,11-14.63a2.57,2.57,0,0,1,4.44,2.4l0,.09q-3.26,10.16-6.38,20.39t-6.18,20.42c-1,3.41-1.94,6.82-2.84,10.22-.44,1.7-.86,3.4-1.22,5.07-.18.84-.34,1.67-.47,2.46-.05.39-.11.78-.13,1.12a3.4,3.4,0,0,0,0,.42c0,.06,0,.13,0,.11s0,.08,0-.08a.39.39,0,0,0-.06-.15,1.85,1.85,0,0,0-.26-.53l-.1-.12-.17-.2a2.42,2.42,0,0,0-.56-.44,2.83,2.83,0,0,0-1.3-.36,2.23,2.23,0,0,0-.6.08,1.14,1.14,0,0,0-.25.06l-.24.11-.15.08v0a6.15,6.15,0,0,0,.49-.55c.23-.24.5-.62.75-.93s.51-.65.77-1c1-1.38,2-2.83,3-4.29,2-2.91,4-5.86,5.9-8.84,7.77-11.92,15.4-24,23.13-36S817,445.86,825,434Z"/>
    <path d="M823.94,621.35,697.25,465.47A67.17,67.17,0,0,1,691,472.6L815.56,626.11a4,4,0,0,0,4.75,1.14l2.48-1.1A3.11,3.11,0,0,0,823.94,621.35Z"/>
    <g>
      <path class="cls-3" d="M716,467l-3,6-10,14.28-27.65-16.2C672.11,470.66,653,444,653,444l13-46,21.5,40.5s17-2,19,0c1.71,1.71,13.67,20.26,14,28.71a3.24,3.24,0,0,1-3.28,3.29H709.5s-2-17-7-19"/>
      <path class="cls-3" d="M702.5,451.5s8.47,7.09,7.23,16.54"/>
    </g>
    <path class="cls-3" d="M691.5,464.5a58.47,58.47,0,0,0-1.31,8.76,2.78,2.78,0,0,0,4.3,2.48c2.45-1.63,5.59-4.2,6-6.89a2.68,2.68,0,0,0-.59-2.07l-1.38-1.72a2.78,2.78,0,0,1,1.28-4.38c2.35-.75,5.47-.59,7.67,3.82a11.69,11.69,0,0,1,1.22,5.87,18.6,18.6,0,0,1-4.08,10,2.27,2.27,0,0,1-.3.32c-1.57,1.37-14.11,11.81-25.2,3.36a2.69,2.69,0,0,1-.91-1.31c-1.44-4.33-7.77-25.05.27-32.2"/>
    <path class="cls-3" d="M717.55,470.5h-9s.67,16.56-22.67,16.78c0,0-1.33,8.22,2.67,9.22s14,1,17,0,15-12,15-19v-4.05A3,3,0,0,0,717.55,470.5Z"/>
    <path class="cls-3" d="M726.05,486s9.23,1.47,2.57,11.27S719.12,510,704.85,511c0,0-6.35-.5-3.19-7.22"/>
    <path class="cls-3" d="M720.5,477.5s11-1,4,11-13,19-27,15c0,0-5.63-1.5-3.31-6.25,0,0,16.62,2.16,25.75-18.45C720.13,478.38,720.32,477.94,720.5,477.5Z"/>
    <path class="cls-6" d="M709.5,470.5a19.61,19.61,0,0,1-2.46,7.57,17.79,17.79,0,0,1-2.44,3.23,18.38,18.38,0,0,1-3.15,2.56,20.91,20.91,0,0,1-7.5,2.9,24.14,24.14,0,0,1-8,.24,30.44,30.44,0,0,0,3.94-.27,29.34,29.34,0,0,0,3.85-.72,23.93,23.93,0,0,0,7.12-3,18.63,18.63,0,0,0,5.48-5.35,19.51,19.51,0,0,0,1.82-3.44A27.83,27.83,0,0,0,709.5,470.5Z"/>
    <path class="cls-6" d="M695.5,497.5c1.31-.37,2.6-.77,3.87-1.23s2.54-.92,3.77-1.46a44.49,44.49,0,0,0,7.09-3.77,25.16,25.16,0,0,0,5.9-5.32,17.58,17.58,0,0,0,3.37-7.22,16.34,16.34,0,0,1-.82,4,18.37,18.37,0,0,1-1.93,3.67,22.15,22.15,0,0,1-6,5.69,34.34,34.34,0,0,1-7.36,3.65A37.5,37.5,0,0,1,695.5,497.5Z"/>
    <path class="cls-6" d="M702,504a11,11,0,0,0,3.85.44,13.34,13.34,0,0,0,3.77-.68,17.56,17.56,0,0,0,6.45-4.06l.71-.64c.23-.23.43-.48.65-.72l1.29-1.44c.78-1,1.56-2.07,2.31-3.13s1.42-2.19,2.05-3.33,1.25-2.3,1.92-3.44c-.46,1.23-1,2.44-1.48,3.67s-1.23,2.33-1.84,3.51a18.3,18.3,0,0,1-1.08,1.67c-.38.55-.75,1.11-1.14,1.64L718.15,499c-.22.24-.43.51-.67.75l-.74.68a19,19,0,0,1-1.52,1.31l-1.66,1.15-1.8.92c-.63.25-1.28.46-1.91.67A11.62,11.62,0,0,1,702,504Z"/>
    <path class="cls-6" d="M695.16,475.22a5.71,5.71,0,0,1-2.42.66,4.35,4.35,0,0,1-2.57-.61,3.22,3.22,0,0,1-1.44-2.28,5.6,5.6,0,0,1,0-1.29,8.09,8.09,0,0,1,.32-1.22c.09.41.12.81.17,1.21l.14.56a1.61,1.61,0,0,0,.16.54,2.87,2.87,0,0,0,1.23,1.64,4.92,4.92,0,0,0,2,.67A18.48,18.48,0,0,0,695.16,475.22Z"/>
    <path d="M664.1,344.82a49.86,49.86,0,0,0-2.29,15.94,90.33,90.33,0,0,0,1.5,15.85c.19,1.31.53,2.6.78,3.9l.39,1.95.49,1.93,1,3.86,1.14,3.83.56,1.91.57,2.15a39.41,39.41,0,0,1,.92,4.42,18.72,18.72,0,0,1,.25,2.24c0,.74.14,1.49.17,2.24,0,1.49.08,3-.06,4.48l-.17,2.23L669,414c-.17,1.47-.54,2.89-.83,4.34a61.49,61.49,0,0,1-2.72,8.3,74.33,74.33,0,0,1-8.28,15,95.06,95.06,0,0,1-10.88,12.83c-2,1.95-4,3.84-6.19,5.61a67.26,67.26,0,0,1-6.69,5c3.49-4.3,6.78-8.65,9.87-13.11a152,152,0,0,0,8.57-13.63,92.7,92.7,0,0,0,6.51-14.32A54.28,54.28,0,0,0,661.51,409c.14-1.25,0-2.49.09-3.73,0-.62-.08-1.24-.12-1.85s-.06-1.24-.17-1.85a30.27,30.27,0,0,0-.63-3.65l-.41-1.83-.49-2.06-1-4.12c-.27-1.38-.49-2.78-.74-4.17l-.34-2.09-.25-2.11c-.12-1.42-.34-2.81-.39-4.23a68.75,68.75,0,0,1,.83-17,49,49,0,0,1,2.24-8.18A27.82,27.82,0,0,1,664.1,344.82Z"/>
    <path d="M637,391.4a2.38,2.38,0,0,0-3.4-.31l-2.56,2.2a3.49,3.49,0,0,0-.44,4.85L691,472.6a67.17,67.17,0,0,0,6.21-7.13Z"/>
    <path d="M341,321c.91,2.87,1.95,5.59,3.06,8.27s2.36,5.28,3.72,7.82,2.78,5.05,4.37,7.49c.74,1.25,1.6,2.43,2.39,3.68s1.69,2.42,2.46,3.74a35.25,35.25,0,0,1-3.57-2.78,34.53,34.53,0,0,1-3.16-3.24c-.49-.57-1-1.15-1.46-1.74l-1.32-1.85a41.66,41.66,0,0,1-2.36-3.9,37.51,37.51,0,0,1-3.28-8.48A25.63,25.63,0,0,1,341,321Z"/>
    <path d="M335,355c2.32,4.05,4.39,8,6.51,11.91s4.23,7.7,6.52,11.37a95.27,95.27,0,0,0,7.46,10.5c1.38,1.64,2.83,3.24,4.4,4.78s3.28,3,5.11,4.44a23,23,0,0,1-6.77-2,31.69,31.69,0,0,1-6-3.83,42.61,42.61,0,0,1-9.26-10.71,55.43,55.43,0,0,1-5.77-12.73A44.53,44.53,0,0,1,335,355Z"/>
    <path d="M327,366a180.31,180.31,0,0,0-1.91,20.19,105.59,105.59,0,0,0,1.1,19.91,71.27,71.27,0,0,0,2.23,9.61,57.56,57.56,0,0,0,3.77,9.08,49.26,49.26,0,0,0,5.56,8.17,57.57,57.57,0,0,0,7.25,7,37.81,37.81,0,0,1-8.65-5.66,41.1,41.1,0,0,1-6.85-8,48.94,48.94,0,0,1-4.67-9.46,57.21,57.21,0,0,1-2.58-10.19A75,75,0,0,1,322,386a84.82,84.82,0,0,1,1.85-10.16A65.35,65.35,0,0,1,327,366Z"/>
    <path d="M424,384q6,6.48,12.37,12.65c4.19,4.13,8.52,8.12,12.94,12a148.45,148.45,0,0,0,13.8,10.73,63.2,63.2,0,0,0,7.39,4.38,30.89,30.89,0,0,0,7.73,2.79l1,.17c.32.06.63,0,.95.07l1,.05,1.08,0,1-.05.39,0h0l-.09,0-.08,0a1.91,1.91,0,0,0-.31.13c-.12.13-.08-.13-.82.74a2.2,2.2,0,0,0,0,2.45c.7.8.38.38.64.62a1.31,1.31,0,0,0,.27.14l.15.06h0c-.08,0-.5-.09-.81-.12l-1-.12c-2.88-.28-5.82-.48-8.75-.69l-17.64-1.21-35.3-2.36,1.85-4.1c5.44,5.44,11,10.84,16.71,16.07s11.42,10.44,17.36,15.38a223,223,0,0,0,18.33,14.14,91.32,91.32,0,0,0,9.9,5.94,41.14,41.14,0,0,0,5.32,2.21l1.38.42c.46.14.94.19,1.41.29A15.45,15.45,0,0,0,495,477c-3.9.43-7.83-.71-11.46-2.14A78.17,78.17,0,0,1,473,469.61q-5.08-2.94-9.89-6.31c-3.23-2.22-6.38-4.52-9.49-6.88q-9.28-7.16-18.1-14.86c-5.86-5.16-11.63-10.38-17.24-15.86a2.39,2.39,0,0,1,1.8-4.1h0c11.79.7,23.57,1.36,35.34,2.26,5.89.45,11.78.87,17.68,1.4,2.95.27,5.88.55,8.87.91l1.15.15c.42.07.72.1,1.37.26l.15.05.28.1a2,2,0,0,1,.33.18c.28.24,0-.17.69.66a2.23,2.23,0,0,1,0,2.51c-.76.89-.74.63-.88.77a2.93,2.93,0,0,1-.38.16l-.14,0-.23,0-.27,0-.7.05-1.19,0h-1.13c-.4,0-.84-.05-1.25-.08s-.86-.05-1.26-.13l-1.21-.23a32.17,32.17,0,0,1-8.75-3.46,67,67,0,0,1-7.64-4.94,128.69,128.69,0,0,1-13.58-11.68A234.06,234.06,0,0,1,424,384Z"/>
    <path d="M480.51,366c2.39,2.47,4.71,5,7,7.61s4.48,5.22,6.65,7.9,4.28,5.42,6.29,8.25a81,81,0,0,1,5.73,8.92c.43.81.84,1.65,1.22,2.57a12.2,12.2,0,0,1,.89,3.3,5,5,0,0,1-.59,3,4.58,4.58,0,0,1-1.34,1.46,3.89,3.89,0,0,1-.8.46,4.57,4.57,0,0,1-.75.27,7,7,0,0,1-2.35.2,10.61,10.61,0,0,1-1.75-.26,28.93,28.93,0,0,1-5.49-1.91c-1.67-.75-3.25-1.56-4.82-2.4-3.12-1.67-6.1-3.5-9-5.37s-5.78-3.81-8.66-5.87l4.95-6a267.77,267.77,0,0,1,20.11,20c3.16,3.55,6.24,7.19,9.11,11.05a67.83,67.83,0,0,1,7.69,12.63c.25.59.48,1.22.71,1.84s.4,1.31.6,2,.28,1.43.4,2.14c0,.37,0,.79.07,1.18a6.31,6.31,0,0,1,0,1.22,8.88,8.88,0,0,1-2,4.92,10.47,10.47,0,0,1-4,2.79,21.08,21.08,0,0,1-7.91,1.16,53.09,53.09,0,0,1-7.31-.68A116.2,116.2,0,0,1,468,440c4.6.95,9.19,1.83,13.78,2.53A129.19,129.19,0,0,0,495.51,444a47.7,47.7,0,0,0,6.67-.09,17.92,17.92,0,0,0,5.8-1.36,4.58,4.58,0,0,0,1.58-1.28,2.92,2.92,0,0,0,.41-1.54,2,2,0,0,0,0-.53c0-.18,0-.36-.07-.56-.13-.43-.19-.83-.35-1.28s-.3-.89-.52-1.35l-.64-1.38a68.16,68.16,0,0,0-7.43-10.91c-2.87-3.5-5.87-7-9-10.31s-6.33-6.68-9.61-9.94-6.61-6.49-9.92-9.61l-.07-.06a3.91,3.91,0,0,1,5-6c5.35,4,10.93,7.92,16.56,11.37,1.41.86,2.83,1.68,4.25,2.42a25.39,25.39,0,0,0,4.07,1.77,6.26,6.26,0,0,0,.78.18c.2,0,.33,0,.2.07l-.15.06-.24.15a1.61,1.61,0,0,0-.46.54c-.29.58-.15.65-.16.52a6.21,6.21,0,0,0-.34-1.67,22,22,0,0,0-.8-2.15,95,95,0,0,0-4.51-8.87c-1.67-2.94-3.43-5.85-5.18-8.78C487.79,377.64,484.14,371.84,480.51,366Z"/>
    <path d="M427,459a196.53,196.53,0,0,0,15.46,22.35,160.91,160.91,0,0,0,18.15,19.5c13,11.82,28.28,20.84,44.94,24.62,2.12.52,4.37,1,6.53,1.45,1.08.23,2.16.45,3.21.64l1.5.25.61.08h.15s0,0,0,0h-.08l-.28,0-.15,0s-.3,0-.43.09l-.51.15a5.76,5.76,0,0,0-1.31.7,5.12,5.12,0,0,0-1.65,2,5.65,5.65,0,0,0-.35,3.8,5.37,5.37,0,0,0,.77,1.62,5.06,5.06,0,0,0,.48.58c.1.11.22.22.33.32l.21.17.23.16.15.09-.31-.16c-.37-.17-.84-.37-1.32-.56-1-.39-2-.78-3-1.16l-6.33-2.24c-8.53-3-17.16-5.88-25.74-8.91C461,518.52,443.86,512.26,427,505c18.14,2.85,36,6.84,53.67,11.29,8.86,2.23,17.66,4.64,26.46,7.27,2.21.65,4.4,1.36,6.62,2.09,1.11.37,2.23.75,3.39,1.17.58.22,1.16.44,1.84.73.35.15.69.3,1.22.58.18.11.3.17.52.32a5.75,5.75,0,0,1,1.11.91,4.68,4.68,0,0,1,.55.66,5.53,5.53,0,0,1,.46,5.61,5.08,5.08,0,0,1-1.72,2,6.22,6.22,0,0,1-1.41.75,6.13,6.13,0,0,1-.61.18l-.53.1-.26,0-.49,0h-.77c-.29,0-.48,0-.7,0l-1.09-.13c-.66-.09-1.26-.19-1.87-.29-1.19-.21-2.35-.43-3.49-.66-2.31-.47-4.51-.9-6.82-1.46s-4.71-1.16-7-2-4.57-1.58-6.81-2.48a93.06,93.06,0,0,1-12.84-6.59,94.69,94.69,0,0,1-11.61-8.39A104.63,104.63,0,0,1,454.54,507,126,126,0,0,1,438,484.37,130.78,130.78,0,0,1,431.73,472,96,96,0,0,1,427,459Z"/>
    <path d="M482,615c-7.85-2.72-16.33-2.64-22.38,1s-9.94,10.08-12.57,17.11-4.25,14.73-5.44,22.49c-.14,1-.27,1.94-.44,2.93l-.57,3.27c-.19,1.09-.37,2.18-.59,3.26l-.79,3.24c-.28,1.08-.52,2.16-.87,3.22l-1.05,3.18c-.65,2.13-1.57,4.18-2.41,6.25-.21.52-.43,1-.66,1.54l-.76,1.5L432,687c-.51,1-1.12,1.94-1.68,2.91s-1.12,1.94-1.74,2.86l-1.93,2.75-1,1.37-1,1.3-2.09,2.61c-.71.86-1.48,1.66-2.23,2.48a87.36,87.36,0,0,1-20.57,16.35A102.91,102.91,0,0,1,376,729.55a104.2,104.2,0,0,1-12.42,2.6A72.58,72.58,0,0,1,351,733a186.67,186.67,0,0,0,22.49-9.86,142.88,142.88,0,0,0,20.14-12.66c1.53-1.21,3.08-2.39,4.53-3.68s2.91-2.55,4.33-3.85a89.16,89.16,0,0,0,7.78-8.39,79.91,79.91,0,0,0,6.6-9.19c.95-1.62,1.91-3.24,2.8-4.89l1.24-2.53.62-1.27c.19-.42.35-.87.54-1.3.73-1.73,1.54-3.43,2.1-5.24l.93-2.67c.32-.89.51-1.82.79-2.73l.8-2.73c.22-.92.4-1.86.61-2.78l1.28-5.94.68-3.15.81-3.15c.49-2.1,1.19-4.17,1.86-6.25.31-1,.7-2.07,1.09-3.1s.76-2.06,1.19-3.08c.93-2,1.78-4,2.89-6a48.17,48.17,0,0,1,8-11.12,30.64,30.64,0,0,1,11.83-7.63,27.21,27.21,0,0,1,6.92-1.23,26.84,26.84,0,0,1,6.74.71A27.84,27.84,0,0,1,482,615Z"/>
    <path d="M396,761a77.31,77.31,0,0,1-1.2-14.29,132.68,132.68,0,0,1,3-28A81.15,81.15,0,0,1,402,705a71.9,71.9,0,0,1,1.29,14.3,127.08,127.08,0,0,1-.77,14.08,129.35,129.35,0,0,1-2.27,13.92A76.47,76.47,0,0,1,396,761Z"/>
    <path d="M468.5,596.5a35.8,35.8,0,0,0-26.4,5.58,42.88,42.88,0,0,0-10,9.22,65.54,65.54,0,0,0-7.35,11.51,94.29,94.29,0,0,0-5.26,12.72l-2.25,6.69c-.35,1.14-.81,2.24-1.22,3.36s-.81,2.24-1.29,3.33a155.76,155.76,0,0,1-13.29,25.28c-1.27,2-2.68,3.94-4,5.9s-2.8,3.85-4.3,5.7l-2.22,2.8-2.31,2.72c-.76.92-1.55,1.81-2.35,2.69s-1.59,1.77-2.41,2.64a148.1,148.1,0,0,1-21.45,18.8c-.95.71-1.95,1.35-2.94,2s-2,1.35-3,2l-3,1.88-3.12,1.75a108.37,108.37,0,0,1-12.95,6c-8.92,3.24-18.45,5.23-27.86,4.47a73.16,73.16,0,0,0,26.93-6.74,119.89,119.89,0,0,0,23.64-14.46l2.72-2.15,2.65-2.24c.89-.74,1.76-1.5,2.62-2.28s1.74-1.52,2.57-2.32c3.39-3.15,6.62-6.47,9.73-9.89a168.07,168.07,0,0,0,16.91-22c2.57-3.84,4.89-7.84,7.11-11.89s4.18-8.24,6-12.48c.5-1.05.89-2.13,1.33-3.2s.9-2.13,1.27-3.22l2.4-6.6c.78-2.26,1.75-4.46,2.69-6.66l1.56-3.25c.52-1.08,1.13-2.12,1.69-3.18a65.32,65.32,0,0,1,8.31-11.81A45.5,45.5,0,0,1,440.82,600C449.2,595.19,459.48,593.65,468.5,596.5Z"/>
    <path d="M264.66,496.7c1.76,14.15,3.18,28.12,4.8,42s3.39,27.68,5.8,41.27,5.41,27,10.25,39.67a79.24,79.24,0,0,0,9.24,17.87,47.43,47.43,0,0,0,6.67,7.59c.62.59,1.3,1.1,1.95,1.66s1.39,1,2.09,1.53,1.46.94,2.21,1.42L310,651c-7.14-.9-13.93-4.81-19.31-9.91a67.27,67.27,0,0,1-13.05-17.85,119.25,119.25,0,0,1-8.2-20.28c-1.06-3.47-2-7-2.83-10.48s-1.52-7-2.17-10.58a246.38,246.38,0,0,1-3.58-42.7A221.31,221.31,0,0,1,264.66,496.7Z"/>
    <path class="cls-3" d="M611.27,816.3,516.5,788.5s-16,20-8,36c4.08,8.17,57.67,26.23,109.16,42A56.35,56.35,0,0,1,630,865C628.17,846.74,610.52,834.31,611.27,816.3Z"/>
    <path class="cls-3" d="M698,901c-7-6-23-6-34-14-6.56-5.62-7-12.12-6.18-19.5-22.52,5-44.94,13.54-36.32,27,8.25,12.88,8,19.13,5.81,22.15a2.46,2.46,0,0,0,1.7,3.88c10,1.25,28.55,3.12,45.91,2.51C690.29,916.29,709.9,911.41,698,901Z"/>
    <path class="cls-3" d="M696,828c3,1,7,1,9,4-23-42-31-101,10-132,21-16,51-17,77-24-43.18,2.94-79.62-22-119.71-32.41,6.21,7.94,18.12,14.93,33.91,20.24a2.57,2.57,0,0,1,1.52,1.37c1.25,2.81,4.19,10.61-.48,13.16h0C662.6,697.91,632.5,734.76,632.5,777c0,47.75,38.46,88.61,92.91,105.37A128.1,128.1,0,0,0,707,855,36.93,36.93,0,0,1,696,828Z"/>
    <path d="M698,858.08a15.17,15.17,0,0,0-3.37-7.35,10.71,10.71,0,0,1-.41,5.92,32.3,32.3,0,0,1-2.55,5.41c-.1-3.37-1.73-6.43-3.47-9.39s-3.67-5.81-4.59-9.08-.61-7.14,1.73-9.59a41.27,41.27,0,0,0-4.21,1.84c.19-1,.36-2,.49-3a49.89,49.89,0,0,0-.17-14A24.49,24.49,0,0,0,676,806.92a17.2,17.2,0,0,1-.66,9.56,53,53,0,0,1-4.12,8.74c-.16-5.44-2.8-10.38-5.61-15.17s-5.93-9.39-7.41-14.67-1-11.54,2.8-15.5c-7.59,2.8-14.84,6.93-20.12,13.19s-7.91,14.84-6.26,22.76a15.72,15.72,0,0,1-4-11.55,38.07,38.07,0,0,0-7.58,16.33,30.59,30.59,0,0,0,1.81,17.64c2.31,5.11,5.94,9.4,9.56,13.52,7.65,6.67,17.55,8.2,27.63,6.49-.08.32-.15.63-.22.94A19,19,0,0,0,663,870.12a34.29,34.29,0,0,0,5.92,8.37c4.79,4.18,11,5.1,17.34,4a17,17,0,0,0,8.88-6.63,21.83,21.83,0,0,0,3-9.08A30.79,30.79,0,0,0,698,858.08Zm-29.61-2.62.45-.27c.05.35.1.7.18,1.06A9.08,9.08,0,0,1,668.36,855.46Z"/>
    <path class="cls-2" d="M459.33,878.87a4.4,4.4,0,0,0-3.38.68c-7.28,5-37.82,26-38.58,31.62-.71,5.14,11.69,3.47,16.38,2.66a6.36,6.36,0,0,0,3-1.44l33.67-29.13a1.32,1.32,0,0,0-.6-2.29Z"/>
    <path d="M459,610a41.29,41.29,0,0,1,11.81-5.2,50.68,50.68,0,0,1,12.87-1.88,40.84,40.84,0,0,1,13,1.84,32.18,32.18,0,0,1,6,2.65,24.54,24.54,0,0,1,5.16,4c-2.09-.63-4.07-1.25-6.08-1.71s-4-.85-6-1.1a83.76,83.76,0,0,0-12.06-.67c-4,.06-8.11.32-12.21.73S463.29,609.53,459,610Z"/>
    <path d="M306.71,848.91a54.93,54.93,0,0,0,8.44-2.91,61.21,61.21,0,0,0,7.82-4,58.88,58.88,0,0,0,13.34-10.89,55.06,55.06,0,0,0,5.28-6.71c.84-1.15,1.52-2.41,2.28-3.61l1-1.87c.35-.62.68-1.25,1-1.9a78.3,78.3,0,0,0,5.74-16.17l5.63,1.73c-1.63,4.12-3.18,8.39-4.65,12.63s-2.87,8.54-4.14,12.86-2.4,8.66-3.25,13.06-1.44,8.89-.65,13.42a22,22,0,0,1-1.72-6.72,45.21,45.21,0,0,1-.22-7,88.45,88.45,0,0,1,1.64-13.79c.84-4.55,2-9,3.2-13.46s2.67-8.79,4.29-13.17a2.95,2.95,0,0,1,5.65,1.65l0,.07a69.93,69.93,0,0,1-6.27,17.53,22.84,22.84,0,0,1-1.13,2.06l-1.18,2c-.88,1.3-1.7,2.63-2.68,3.86a51.88,51.88,0,0,1-6.22,7,53,53,0,0,1-15.46,10.22A46.94,46.94,0,0,1,306.71,848.91Z"/>
    <path d="M400.5,752.5a31.05,31.05,0,0,1-5.31,9.3,33.46,33.46,0,0,1-8.29,7.35,30.53,30.53,0,0,1-10.74,4.17,32.92,32.92,0,0,1-11.67,0l5.28-4.81c0-.2,0-.1,0-.12l0,.06.06.18a3.93,3.93,0,0,0,.18.43,3.74,3.74,0,0,0,.52.83,4.88,4.88,0,0,0,1.63,1.3,11.86,11.86,0,0,0,5.6,1.06,25.88,25.88,0,0,0,3.45-.26c.24,0,.7-.1,1.13-.14s.9-.08,1.43-.08a8.22,8.22,0,0,1,2,.2,5.64,5.64,0,0,1,1.79.72,5.09,5.09,0,0,1,1.2,1.06,4.89,4.89,0,0,1,.91,1.7,5.09,5.09,0,0,1,0,2.81,6.1,6.1,0,0,1-.59,1.35A8.13,8.13,0,0,1,388,781a15.27,15.27,0,0,1-1.9,1.78,37.19,37.19,0,0,1-3.66,2.58A62.48,62.48,0,0,1,367,792.17a32.44,32.44,0,0,1-8.44,1.35,11.42,11.42,0,0,1-4.39-.76,4.76,4.76,0,0,1-1.84-1.36,3.58,3.58,0,0,1-.77-2,3.54,3.54,0,0,0,1.3,1.4,3.85,3.85,0,0,0,1.71.47,10.37,10.37,0,0,0,3.62-.54,39.51,39.51,0,0,0,7-3.08,90.07,90.07,0,0,0,12.87-8.49,29.23,29.23,0,0,0,2.7-2.36,9.54,9.54,0,0,0,.94-1.07c.11-.14.16-.25.1-.18a2.18,2.18,0,0,0-.19.43,3.24,3.24,0,0,0,0,1.82,3.55,3.55,0,0,0,.67,1.26,3.4,3.4,0,0,0,.82.73,3,3,0,0,0,.85.38c.23.06.14,0,0,.06l-.57.09-.86.16A35.24,35.24,0,0,1,378,781a19.7,19.7,0,0,1-10-1.93,13.57,13.57,0,0,1-4.53-3.8,13,13,0,0,1-1.56-2.61,13.13,13.13,0,0,1-.54-1.45c-.08-.26-.15-.51-.21-.79l-.08-.43a4.6,4.6,0,0,1-.09-.61v0a4.39,4.39,0,0,1,3.83-4.86,4.65,4.65,0,0,1,1.45.08,31.51,31.51,0,0,0,8.86.74,31.16,31.16,0,0,0,8.87-2,42.3,42.3,0,0,0,8.54-4.47A60,60,0,0,0,400.5,752.5Z"/>
    <path d="M186,804c5.5,1.63,10.57,3.29,15.64,4.81s10,2.93,15,4.07a149.94,149.94,0,0,0,15.17,2.73c5.17.72,10.41.94,16.16,1.39a31.4,31.4,0,0,1-7.71,3.79,42.83,42.83,0,0,1-4.16,1.18c-.71.16-1.42.27-2.13.4s-1.42.25-2.14.32a50.09,50.09,0,0,1-17.22-1,56.06,56.06,0,0,1-15.88-6.4,50.58,50.58,0,0,1-6.93-5A33.16,33.16,0,0,1,186,804Z"/>
    <path d="M717.07,627a3.5,3.5,0,0,0,1.37,5.27l4,1.83a4.11,4.11,0,0,0,5-1.32L868,441.28c-2.62-2.06-5.42-5.11-9.68-5.26Z"/>
    <path class="cls-3" d="M876,437l-17.5,13.5s-8,9,0,11c5.9,1.46,15.23-5,20.5-5.52,1.9-.17,5.19,6.45,6.34,8,11,14.55,70,88.63,135.08,96.31a5.86,5.86,0,0,0,3.85-.89c21.59-13.77,28.23-29.89,28.23-29.89s61.62-76.3,71.31-75.65-4.17-95.49-4.17-95.49S1028.82,475,1009.24,495.82a5.24,5.24,0,0,1-6,1.15c-16.15-7.54-86.52-40.85-92.71-51.47-7-12-12-31-41-38s-40,30-35,43l3.75,9.75A4.9,4.9,0,0,0,844.8,463l.07,0c2.63-1.25,5.13-4.5,4.63-12.5,0,0-3-8-4-11-.75-2.25,4.69-10.12,7.45-13.92.92-1.27,1.55-2.08,1.55-2.08"/>
    <path class="cls-3" d="M847.5,461.5s12,1,11-11A75.69,75.69,0,0,0,856.93,439a3,3,0,0,1,.8-2.76l4.77-5.77L868,426l-14.5-7.5-12,22Z"/>
    <path class="cls-6" d="M846,462l-.12.12c-.06,0,0-.09,0-.13l.21-.27.41-.52.86-1A7.84,7.84,0,0,0,848.9,458a5.94,5.94,0,0,0,.47-2.51,14.32,14.32,0,0,0-.26-2.6c-.67-3.47-1.72-6.93-2.28-10.51-.14-.9-.27-1.78-.33-2.7l0-1.4.15-1.39a15.23,15.23,0,0,1,1.91-5.16A24.27,24.27,0,0,1,856,424a30.68,30.68,0,0,0-3.8,3.76,23,23,0,0,0-3,4.36,15.88,15.88,0,0,0-1.65,4.92,16.31,16.31,0,0,0,.28,5.19c.52,3.52,1.54,6.95,2,10.55a15.68,15.68,0,0,1,.13,2.74,6.5,6.5,0,0,1-.65,2.7,8.6,8.6,0,0,1-1.74,2.11l-.94,1-.48.47L846,462s-.09.11-.09.09Z"/>
    <path class="cls-6" d="M997.2,495a17.1,17.1,0,0,1,6.35.79,23.43,23.43,0,0,1,5.67,2.59,19.69,19.69,0,0,1,4.82,4.18,13.61,13.61,0,0,1,1.77,2.79,14.44,14.44,0,0,1,.57,1.59,9.12,9.12,0,0,1,.19,1.69c-1.82-1.3-3.47-2.14-5.12-3.11s-3.27-1.89-4.89-2.91-3.22-2.12-4.8-3.33A30.23,30.23,0,0,1,997.2,495Z"/>
    <path d="M951.06,327l-5.88-6.72a.82.82,0,0,0-1.29.05L858.33,436c4.26.15,7.06,3.2,9.68,5.26L951.11,328A.83.83,0,0,0,951.06,327Z"/>
  </g>
</svg>
