<svg id="Layer_1" data-name="Layer 1" xmlns="http://www.w3.org/2000/svg" xmlns:xlink="http://www.w3.org/1999/xlink" viewBox="0 0 539.85 411.79"><defs><style>.cls-1{fill:url(#linear-gradient);}.cls-2{fill:url(#linear-gradient-2);}.cls-3{fill:url(#linear-gradient-3);}.cls-4{fill:url(#linear-gradient-4);}.cls-5{fill:url(#linear-gradient-5);}.cls-6{fill:url(#linear-gradient-6);}.cls-7{fill:url(#linear-gradient-7);}</style><linearGradient id="linear-gradient" x1="105.43" y1="-697.88" x2="105.43" y2="-726.52" gradientTransform="matrix(1, 0, 0, -1, 0, -513.37)" gradientUnits="userSpaceOnUse"><stop offset="0" stop-color="#c0a650"/><stop offset="0.05" stop-color="#d2be57"/><stop offset="0.11" stop-color="#e4d45e"/><stop offset="0.16" stop-color="#eee262"/><stop offset="0.21" stop-color="#f2e763"/><stop offset="0.27" stop-color="#e6d65d"/><stop offset="0.64" stop-color="#a47a3b"/><stop offset="0.8" stop-color="#8a552e"/><stop offset="1" stop-color="#a38b46"/></linearGradient><linearGradient id="linear-gradient-2" x1="240.49" y1="-596.12" x2="240.49" y2="-847.23" xlink:href="#linear-gradient"/><linearGradient id="linear-gradient-3" x1="86.07" y1="272" x2="86.07" y2="333.56" gradientTransform="matrix(1, 0, 0, 1, 0, 0)" xlink:href="#linear-gradient"/><linearGradient id="linear-gradient-4" x1="157.16" y1="272" x2="157.16" y2="333.56" gradientTransform="matrix(1, 0, 0, 1, 0, 0)" xlink:href="#linear-gradient"/><linearGradient id="linear-gradient-5" x1="328.25" y1="272" x2="328.25" y2="333.56" gradientTransform="matrix(1, 0, 0, 1, 0, 0)" xlink:href="#linear-gradient"/><linearGradient id="linear-gradient-6" x1="399.32" y1="270.95" x2="399.32" y2="334.61" gradientTransform="matrix(1, 0, 0, 1, 0, 0)" xlink:href="#linear-gradient"/><linearGradient id="linear-gradient-7" x1="469.3" y1="272" x2="469.3" y2="333.56" gradientTransform="matrix(1, 0, 0, 1, 0, 0)" xlink:href="#linear-gradient"/></defs><title>letter</title><path class="cls-1" d="M117.08,200.76h0a1.94,1.94,0,0,0-1.88-2h-.55a1.92,1.92,0,0,0,1.93-1.91v0h0a2,2,0,0,0-.23-.93,1.94,1.94,0,0,0-1.73-1.06h-.74a1.92,1.92,0,0,0,1.93-1.93h0A1.92,1.92,0,0,0,113.9,191h-1.31a1.93,1.93,0,0,0-.38-2.7,2,2,0,0,0-1.16-.39h-3.73V185a.53.53,0,0,0-.52-.51h-2.19a.51.51,0,0,0-.51.51h0v2.9H99.91A1.93,1.93,0,0,0,98,189.82h0a2,2,0,0,0,.39,1.16H97.13a1.93,1.93,0,1,0,0,3.86h-.74A2,2,0,0,0,94.82,198a1.93,1.93,0,0,0,1.55.78h-.79a1.94,1.94,0,0,0,0,3.87h.59a1.93,1.93,0,0,0,0,3.86h1.37a2,2,0,0,0-2,2,2,2,0,0,0,.58,1.39,1.91,1.91,0,0,0,1.37.57h.61a1.91,1.91,0,0,0-.16.78h0a1.94,1.94,0,0,0,1.94,1.93h11.51a1.94,1.94,0,0,0,1.94-1.93h0a1.92,1.92,0,0,0-.17-.78h.29a1.92,1.92,0,0,0,1.94-1.92h0a2,2,0,0,0-2-2h1.38a1.94,1.94,0,0,0,1.93-1.93h0a1.93,1.93,0,0,0-1.93-1.93h.32a1.94,1.94,0,0,0,2-1.89Z"/><path class="cls-2" d="M389.85,179.68a1.93,1.93,0,0,0,0-.34,2.16,2.16,0,0,0,0-.36l-.35-.09-.38-.08-.22-.05c-.08,0-.08.08-.15.09-.38.28-.91.63-1.45,1s-1.11.61-1.53.81c0,0-.13,0-.15.07s0,.15-.07.21V181a26.84,26.84,0,0,1-7.36.78l-1.43-.06.11-.06c.32-.15.64-.32,1-.46,1.33-.6,2.71-1.13,4.1-1.68.69-.27,1.39-.55,2.08-.85s1.39-.62,2.07-1l1-.54,1-.6.48-.33a1.06,1.06,0,0,0,.43-.41c.24-.33.47-.66.68-1l1.26-2-1.63,1.46-.06.06h0l-1,.42c-.39.07-.61.37-.92.54l-.92.56-1,.51c-.65.32-1.31.63-2,.92l-2,.83c-1.38.55-2.78,1.08-4.16,1.71a9.29,9.29,0,0,0-1,.49l-.51.26a1.48,1.48,0,0,0-.5.3c-.22.22-.43.46-.64.7-1.65-.12-3.33-.29-4.93-.54h.06l.17-.07c.07,0,0-.08,0-.12a1.47,1.47,0,0,1,.14-.28,1.93,1.93,0,0,1,.27-.3,2.73,2.73,0,0,1,.83-.55,3,3,0,0,1,.5-.19,3.89,3.89,0,0,1,.49-.12,3.1,3.1,0,0,1,.86,0c.06,0,.1.07.16,0l.19-.12a1.46,1.46,0,0,1,.36-.16,2.38,2.38,0,0,1,.38-.11,2.64,2.64,0,0,0-.12-.4,1.83,1.83,0,0,0-.26-.42c-.06-.07-.13-.16-.21-.24s-.19,0-.28-.06a4.86,4.86,0,0,0-1.32,0,4.09,4.09,0,0,0-.69.17,3.38,3.38,0,0,0-.69.26,4.32,4.32,0,0,0-1.24.82,3.64,3.64,0,0,0-.48.56,3.19,3.19,0,0,0-.32.64c0,.12-.11.21-.08.32a.64.64,0,0,0,.06.18l-1.17-.25c-1.68-.39-3.19-1.27-4.95-1.5-3.08-.39-5.48.65-8.22,1.81-1.73.74-3.39.16-5.24,0a2.35,2.35,0,0,1-1.25-.43l1-.18c.16,0,.26-.17.4-.23l.4-.24c.53-.31,1-.61,1.58-.9a18.38,18.38,0,0,1,3.23-1.46c.27-.09.55-.17.83-.24s.56-.11.83-.16a8.12,8.12,0,0,1,.85-.07h.88l.93.75h.47l.24-.24a.73.73,0,0,0,.24-.07,7.86,7.86,0,0,0,.94-.41,4.83,4.83,0,0,0,.86-.55,13.29,13.29,0,0,1-1.86-.46.81.81,0,0,0-.22,0c-.07,0-.22-.48-.22-.48l-.45.75H357a10.32,10.32,0,0,0-2,.28c-.32.07-.64.17-1,.26a21.08,21.08,0,0,0-3.53,1.59l-1.63.94-.41.24c-.12.09-.29.11-.39.24l-.64.75h0l-.18.12-.92.78c-.86-.08-1.73-.15-2.59-.18l.18-.23a15,15,0,0,1,1.18-1.4,24.84,24.84,0,0,1,2.59-2.54l2.28-1.92-2.9.58h-.23c-.07,0-.13.08-.19.13l-.26.3a27.63,27.63,0,0,0-2.43,2.41c-.43.47-.84,1-1.23,1.46l-.3.37a.93.93,0,0,1-.16.18v.63h-.36c-2.39.12-5,1.27-7.45,1.25.2-.16.41-.31.64-.46a15.49,15.49,0,0,1,1.8-1c1.28-.65,2.63-1.23,3.64-1.69.12-.08.27-.06.36-.18l.26-.3c.16-.19.29-.37.4-.52s.33-.49.33-.49h-1.58c-.14,0-.22.12-.36.15-1,.46-2.35,1-3.7,1.72a21.81,21.81,0,0,0-2.05,1,10.54,10.54,0,0,0-1.59,1.23c-.07.08-.16.14-.23.21-1.75-.46-2.77-1.17-4.93-1.18-6.77,0-13.68,2-20.46,1.79,4.52-2.22,9.85-5.09,14.66-6.08,14.17-2.91,31.89,1,43.78-9.82-5.12,2.31-7.73,1.91-13.36,1-.62-.1-1.24-.17-1.86-.23l1.34-.45,2.43-.76a25.8,25.8,0,0,0,2.54-.94c.43-.16.84-.4,1.25-.6a8.2,8.2,0,0,0,1.19-.75c.37-.27.71-.53,1.06-.81s.67-.57,1-.85a42.37,42.37,0,0,1,3.32-3c.23-.22.53-.31.73-.53l.61-.57c.4-.34.76-.64,1.07-.88.61-.47,1-.74,1-.74h-.33a4.39,4.39,0,0,0-.91.17c-.39.1-.86.21-1.4.39l-.85.33a1.55,1.55,0,0,0-.41.25l-.41.31a39.17,39.17,0,0,0-3.43,3l-.92.8c-.32.25-.63.5-1,.75a10.68,10.68,0,0,1-1,.65c-.38.18-.73.39-1.13.55-.76.34-1.58.61-2.39.88l-2.43.76c-.8.25-1.57.51-2.3.81-.36.14-.72.3-1.06.47a8.21,8.21,0,0,0-.83.44,50.12,50.12,0,0,0-5.48.24c-2.86.27-6.53,1.71-9.18,1a12.33,12.33,0,0,1,2.69-3.07l.21-.07a21.79,21.79,0,0,1,2.23-.64c1.56-.39,3.18-.74,4.39-1.18.15-.08.32-.06.43-.17l.33-.33a4.29,4.29,0,0,0,.48-.56c.23-.33.34-.53.34-.53h-1.3a2.67,2.67,0,0,1-.4,0c-.15,0-.25.11-.39.13a21.23,21.23,0,0,1-2.36.68c.81-.48,1.63-1,2.44-1.48,6-3.86,12.32-10.42,16.42-16.31-7.61,5.43-15.17,10.29-22.5,15.89a28.77,28.77,0,0,1-7.43,3.93h0c.57-.94,1.18-1.88,1.75-2.84.28-.49.58-1,.84-1.48s.51-.94.72-1.44h.38c.13,0,.21-.11.34-.14,1-.41,2.28-.89,3.61-1.34s2.68-.88,3.69-1.2c.12-.07.26,0,.36-.13l.28-.26.44-.45c.24-.26.37-.43.37-.43l-.55-.12c-.17,0-.38-.08-.62-.11l-.38-.06c-.13,0-.23.09-.36.11-1,.32-2.37.74-3.72,1.2-1.13.38-2.24.79-3.16,1.16l.27-.76c.08-.28.14-.57.21-.86l.19-.86.09-.88c0-.29.06-.59.07-.88V153l.84-.27a6.85,6.85,0,0,1,.79-.13,1.91,1.91,0,0,0,.41-.11l.44-.11a17.74,17.74,0,0,1,2.07-.26,17.71,17.71,0,0,0,2.5-.36,9.22,9.22,0,0,0,2.63-1l.16-.09h.07l.28-.19a6.42,6.42,0,0,0,.61-.56,6.5,6.5,0,0,0,.9-1.25c.46-.86.77-1.73,1.13-2.47a5.13,5.13,0,0,1,1.32-1.81,9.88,9.88,0,0,1,1.9-1.21,19.05,19.05,0,0,1,1.93-.79,6.82,6.82,0,0,0,.9-.31l.78-.44c.49-.27.91-.53,1.25-.74a9.48,9.48,0,0,0,.78-.54l.27-.2-1.25.2-1.42.18-.88.11a6,6,0,0,0-.93.31,17.45,17.45,0,0,0-2.1.86,11.59,11.59,0,0,0-2.19,1.39,6.52,6.52,0,0,0-1.73,2.33c-.41.85-.71,1.69-1.1,2.4a4.46,4.46,0,0,1-.67.94,3,3,0,0,1-.37.34l-.28.19h0l-.13.07a7.61,7.61,0,0,1-2.21.85c-1.52.34-3.12.31-4.55.61a4.35,4.35,0,0,0-1,.27,6.36,6.36,0,0,0-.83.51l-.39.3v-.53l-.19-.87-.18-.86c-.09-.28-.2-.55-.3-.83a9.88,9.88,0,0,0-.69-1.61l-.5-.91c1.44-1.12,3-2.16,4.47-3.35l.62-.5a2.75,2.75,0,0,0,.58-.55c.34-.42.68-.85,1-1.29a12.13,12.13,0,0,0,.81-1.4,8.68,8.68,0,0,0,.55-1.5c-.16.21-.31.42-.47.62a7,7,0,0,1-.52.57,11.88,11.88,0,0,1-1.13,1c-.39.32-.79.61-1.21.89a3,3,0,0,0-.59.47c-.19.17-.39.33-.59.48-1.58,1.27-3.31,2.41-5,3.74l-.49.4.33.6.76,1.39a8.4,8.4,0,0,1,.61,1.45c.09.24.2.48.27.73l.16.76.17.76v1.54a2.83,2.83,0,0,1-.07.77l-.07.78-.18.76c-.06.25-.1.51-.18.76l-.26.75a13.4,13.4,0,0,1-.61,1.47,12.89,12.89,0,0,1-.72,1.44c-.25.44-.54,1-.81,1.42l-.53.85a4.39,4.39,0,0,0,.06-.89,3.53,3.53,0,0,0,0-.65,4.87,4.87,0,0,0-.1-.65c-.08-.42-.19-.84-.31-1.26-.26-.77-.51-1.55-.75-2.27a11.19,11.19,0,0,1-.41-1.91.67.67,0,0,1,0-.2.34.34,0,0,0,0-.2l-.18-.35a4.91,4.91,0,0,1-.28-.62l-.25-.57a3.65,3.65,0,0,0-.32.54,3.39,3.39,0,0,0-.31.67c0,.14-.1.28-.15.44a1.48,1.48,0,0,0,0,.47,12.34,12.34,0,0,0,.47,2.17c.24.73.5,1.5.75,2.28.11.37.21.74.28,1.09,0,.18.05.35.07.53a2.18,2.18,0,0,1,0,.51,4.18,4.18,0,0,1-.07,1q-.09.42-.21.84c0,.13-.15.21-.14.35s0,.26,0,.39v.21a3.53,3.53,0,0,0-.65.11.81.81,0,0,0-.22.07.54.54,0,0,1-.1.16l-.22.31c-.29.41-.56.82-.81,1.25-.13.21-.25.43-.37.64h-.09c-2,.74-4.7,3-6.72,2.45a15.46,15.46,0,0,0,.35-2.72c.35-.6.71-1.19,1.07-1.79.81-1.32,1.65-2.63,2.44-4l.38-.65-.71-.42a1,1,0,0,1-.17-.1l-.11-.08h0a.12.12,0,0,1-.14,0,2.33,2.33,0,0,1-.31-.5,1.24,1.24,0,0,0-.49-.5,1.38,1.38,0,0,1-.15.57,1.59,1.59,0,0,0-.25.62,1.51,1.51,0,0,0,0,.52.5.5,0,0,0,.13.25l.15.15c-.58,1-1.19,1.95-1.8,2.94v-1.92c-4.69,6-10.62,10.72-10,18.59q-1.37.32-2.85.57c.17-.42.3-.86.44-1.3.07-.23.13-.45.18-.68a3.28,3.28,0,0,0,0-.7v-1.4c0-.47-.06-.93-.08-1.4a13.1,13.1,0,0,0-.2-1.4c-.06-.47-.21-.92-.31-1.38a13.53,13.53,0,0,0-.45-1.36,12.8,12.8,0,0,0-.59-1.31,9.27,9.27,0,0,0-.76-1.23,9.17,9.17,0,0,0-.85-1.06c1.3,0,2.54,0,3.67-.1h.7a2.54,2.54,0,0,0,.67-.06c.44-.09.85-.17,1.23-.28s.75-.2,1.08-.32.59-.23.88-.37a4.44,4.44,0,0,0,.67-.38,2.17,2.17,0,0,0,.44-.36l.32-.32-.41.2a1.85,1.85,0,0,1-.5.17,3.34,3.34,0,0,1-.7.14,5.12,5.12,0,0,1-.87.08h-1a8.52,8.52,0,0,1-1.19-.06,10,10,0,0,0-1.32.05c-1.53.06-3.29,0-5.2.18a5.41,5.41,0,0,0-.69-.49,11.68,11.68,0,0,0-1.24-.71c-.44-.2-.86-.42-1.3-.58l-.29-.1a.27.27,0,0,1,.07-.08,1.58,1.58,0,0,0,.37-.44c.11-.16.23-.31.35-.47a8.76,8.76,0,0,1,.82-.9,9.82,9.82,0,0,1,1-.81,7.36,7.36,0,0,0-2.51.79c-.2.11-.4.22-.59.34a2.9,2.9,0,0,0-.29.19,1.37,1.37,0,0,0-.23.25,8.77,8.77,0,0,0-.85,1.08l-.54.82,1,.33,1.22.42c.4.14.77.35,1.16.52l.18.09a3,3,0,0,0-.7.14,7.66,7.66,0,0,0-.94.25l-.44.15-.5.2a12.88,12.88,0,0,0-3.23,2.29l-1.38,1.26c-.23.2-.46.4-.68.57l-.36.28-.36.26c-1,.72-2,1.47-2.92,2.1a22.35,22.35,0,0,1-2.18,1.25v-.07c.07-.15,0-.31,0-.48a32.31,32.31,0,0,1,.61-4.8,2.4,2.4,0,0,1,.15-.57,30.34,30.34,0,0,1,3-3l.56-.37a2.53,2.53,0,0,0,.42-.31c.11-.07.12-.16.11-.15h-.09a22.45,22.45,0,0,1,1.87-1.32c5.14-3.22,12.07-2.33,17.17-6.25a27.32,27.32,0,0,0,5.27-5.47h0a5.12,5.12,0,0,0,.67.19h.61v.87a62.43,62.43,0,0,1-.94,7.83,6.88,6.88,0,0,0-.13.77v.73a9.15,9.15,0,0,0,.11,1.18,9,9,0,0,0,.15,1l.43-1q.21-.45.48-1.08l.28-.66a5.08,5.08,0,0,0,.13-.78,65,65,0,0,0,1-8V152c.17-.1.33-.22.51-.31,2.31-1.51,4.38-4.24,6.34-6.95s3.78-5.51,5.3-7.43a4.57,4.57,0,0,0,.54-.69c.14-.24.26-.49.39-.7.25-.44.48-.81.68-1.12a5.89,5.89,0,0,1,.51-.68l.2-.23L330,134a5.86,5.86,0,0,0-.8.38,11,11,0,0,0-1.16.76c-.22.16-.43.34-.67.52a1,1,0,0,0-.3.33c-.09.13-.19.25-.29.37-1.16,1.47-2.46,3.36-3.82,5.33a1,1,0,0,1-.07-.25c-.15-.62-.35-1.28-.52-2a9.67,9.67,0,0,1-.36-2.14,3,3,0,0,1,.1-.94,2,2,0,0,1,.4-.72c.36-.44,1-.8,1.49-1.35.07-.06.12-.14.19-.2a.37.37,0,0,0,.14-.22,2.19,2.19,0,0,0,.1-.51,2.55,2.55,0,0,0,0-.78,2.44,2.44,0,0,0-.14-.46.23.23,0,0,0-.06-.15,4.37,4.37,0,0,1-.37.48,2.38,2.38,0,0,1-.44.4,1.18,1.18,0,0,1-.29.16c-.1,0-.11.17-.21.24-.3.35-.92.7-1.54,1.4a3.48,3.48,0,0,0-.7,1.28,4.5,4.5,0,0,0-.16,1.41,12.12,12.12,0,0,0,.4,2.47c.19.72.36,1.39.52,2,.05.13,0,.28.08.38l.22.31a2.87,2.87,0,0,1,.28.48V143l-.57.81c-1,1.35-2,2.66-3,3.81a15.94,15.94,0,0,1-2.74,2.58,14.29,14.29,0,0,0-.2-1.42,2.44,2.44,0,0,0-.15-.59A22.56,22.56,0,0,0,318,137.89c-2.67,1.71-2.56,5.25-3.61,8.12a4.8,4.8,0,0,0-.79-.89,2.35,2.35,0,0,0-.8-.52,5,5,0,0,0-.84-.16h-.71a3.71,3.71,0,0,0-.58.11,3.79,3.79,0,0,0-.74.25l-.25.1h.26a6,6,0,0,1,.73.17,3.75,3.75,0,0,1,.47.17c.17.08.34.15.51.25a2.76,2.76,0,0,1,.46.37.6.6,0,0,0,.25.16,1.5,1.5,0,0,1,.25.19,3.45,3.45,0,0,1,.85,1.15.77.77,0,0,0,.1.26,6.55,6.55,0,0,1-.52.66,9.16,9.16,0,0,1-1.53,1.39,11.14,11.14,0,0,0-.31-1.39,9,9,0,0,1-.26,1.72,14.38,14.38,0,0,1-2.79.89l-.89-.19.23-.24a5.73,5.73,0,0,0,.69-.87,3.56,3.56,0,0,0,.4-1.23l.06-.34v-.33a3.53,3.53,0,0,0,0-.65,11.12,11.12,0,0,0-.09-1.41,20.88,20.88,0,0,0-.67-2.81,20,20,0,0,1-.68-2.77,6.38,6.38,0,0,1-.06-1.38v-.76l.12-.67a18,18,0,0,1,.89-2.78c.37-.91.79-1.8,1.2-2.67s.81-1.72,1.18-2.53.7-1.61,1-2.37c.07-.19.13-.38.19-.56a2,2,0,0,0,.14-.55,6.11,6.11,0,0,1,.06-1.07,5.69,5.69,0,0,0-.21-1.74,3.35,3.35,0,0,0-.41-1l-.17-.33V122a4.18,4.18,0,0,1,0,1,6.44,6.44,0,0,1-.36,1.5c-.12.28-.22.57-.36.87a9,9,0,0,0-.33,1c-.25.7-.55,1.45-.91,2.25s-.77,1.63-1.18,2.5-.85,1.79-1.23,2.76a16.59,16.59,0,0,0-1,3.06l-.15.85v.78a5.65,5.65,0,0,0,0,1.3l-.14-.07c-.13-.09-.27,0-.4,0h.1a8.51,8.51,0,0,0-1.51.09l-2.9.3a18.72,18.72,0,0,1-2.8.09,4.62,4.62,0,0,1-.65-.07.57.57,0,0,1-.31-.06.21.21,0,0,0-.29,0,2.43,2.43,0,0,1-.66,0,1.47,1.47,0,0,1-.7-.24,1.59,1.59,0,0,0,.25.85,2.51,2.51,0,0,0,.65.69.5.5,0,0,0,.19.13h.21a2.7,2.7,0,0,0,.41.08,5.29,5.29,0,0,0,.8.09,18.81,18.81,0,0,0,3-.09l2.9-.3c.48,0,1-.08,1.41-.09h1.24c.11,0,.22.06.33,0a2.32,2.32,0,0,1,.44-.16c.16.74.36,1.44.56,2.1a17.62,17.62,0,0,1,.62,2.58,7.43,7.43,0,0,1,.09,1.15v.57a4,4,0,0,1-.06.5,1.69,1.69,0,0,1-.12.44,3.61,3.61,0,0,0-.16.42,4.29,4.29,0,0,1-.3.85l-.28.6c-.66-.2-1.32-.44-2-.69l-2.09-.79c-.71-.27-1.42-.52-2.15-.76a19.35,19.35,0,0,0-2.27-.58,12.13,12.13,0,0,0-1.21-.16H296.1l-.27.07a2.22,2.22,0,0,0-.43.23l-.32.27a5.17,5.17,0,0,0-.74,1.06,8.06,8.06,0,0,1-1.09,1.68l-.13.1h-.39a8.34,8.34,0,0,1-1,0,19.1,19.1,0,0,1-2.14-.18l-1.1-.16-.12-.41a1.41,1.41,0,0,1,.12-.42c.05-.15.17-.45.27-.68s.1-.51.19-.78a19.41,19.41,0,0,1,1.52-3.65c.67-1.31,1.47-2.68,2.29-4s1.43-2.39,2.08-3.56h0c.2-.07.42-.16.68-.24l.4-.11c.14,0,.21-.16.34-.22a3.25,3.25,0,0,1,.81-.35c.31-.1.7-.17,1.12-.27a7.79,7.79,0,0,0,1.33-.39,10,10,0,0,0,1.3-.57,6.11,6.11,0,0,0,1.28-.86,3.52,3.52,0,0,0,.88-1.33,8.94,8.94,0,0,0,.36-1.25c.09-.37.18-.69.27-1a2,2,0,0,1,.08-.22.37.37,0,0,0,0-.21v-1.83s-.2.14-.53.42a7.27,7.27,0,0,0-.57.54c-.11.11-.2.24-.32.37s-.1.31-.18.48c-.22.65-.36,1.51-.59,2.13a2,2,0,0,1-.51.78,4.32,4.32,0,0,1-.92.61,9.61,9.61,0,0,1-1.14.5,8.81,8.81,0,0,1-1.14.34c-.39.09-.8.16-1.22.29a4.85,4.85,0,0,0-.75.29,16.28,16.28,0,0,0,.93-2.34,3.54,3.54,0,0,0,.21-.91,6.51,6.51,0,0,0-.06-.88,3.88,3.88,0,0,0-.17-.75c-.08-.23-.18-.43-.26-.61a2.69,2.69,0,0,0-.57-.69l-.22-.19.09.28a2.9,2.9,0,0,1,.14.77V130a1.84,1.84,0,0,1-.14.61,4.77,4.77,0,0,1-.26.66,1.18,1.18,0,0,0-.09.37,1.86,1.86,0,0,1-.1.39c-.64,2.15-2.31,4.9-3.95,7.65a36.35,36.35,0,0,0-4,8.07,4.6,4.6,0,0,0-.21.89,6.17,6.17,0,0,0,0,.86,3.09,3.09,0,0,0,.12.74v.07h-.12a8.38,8.38,0,0,0-2.45,0l-.64.15-.61.24a2.92,2.92,0,0,0-1.07.73,7.27,7.27,0,0,0-1.33,2,12.8,12.8,0,0,0-.71,2.17,19.33,19.33,0,0,1,1.36-1.77,7,7,0,0,1,1.57-1.35c.13-.09.3-.13.43-.21a3.18,3.18,0,0,1,.4-.23l.42-.18.46-.1a6.7,6.7,0,0,1,2,0l.61.08c-.09,4.42-.81,8.28-4.26,11.79a47.23,47.23,0,0,1-5,4.15v-1.17c0-.84.09-1.74.14-2.7a21.41,21.41,0,0,1,.42-3c.1-.52.19-1,.29-1.59l.36-1.61c.24-1.09.53-2.18.82-3.28,1.21-4.38,2.69-8.71,3.7-12a9.43,9.43,0,0,0,.35-1.18c.06-.4.11-.77.16-1.12.1-.7.17-1.31.22-1.82.09-1,.13-1.6.13-1.6s-.26.53-.69,1.45q-.33.68-.78,1.65l-.47,1a9.4,9.4,0,0,0-.38,1.17c-.51,1.66-1.14,3.6-1.8,5.68l-.28-.34a9.64,9.64,0,0,1-.58-.84,3.3,3.3,0,0,1-.31-.51c-.11-.19-.31-.3-.46-.48-.31-.33-.62-.74-1-1.15a7.48,7.48,0,0,1-.95-1.4c-.18-.28-.36-.58-.54-.88a.29.29,0,0,1,0-.13l.16-.4.66-1.63a34.17,34.17,0,0,0,1.21-3.39,9.12,9.12,0,0,0,.23-.9,9.36,9.36,0,0,0,.17-1v-1a5.37,5.37,0,0,0-.13-.92c-.05-.29-.1-.56-.13-.83a1.56,1.56,0,0,1,0-.39.56.56,0,0,0,0-.36,2.42,2.42,0,0,1-.18-.75,2,2,0,0,1,.14-.87,2.08,2.08,0,0,0-.85.58,2.7,2.7,0,0,0-.54,1,.79.79,0,0,0-.08.26v.75a8.84,8.84,0,0,0,.14.9c.05.29.09.56.12.82a2.16,2.16,0,0,1,0,.36,2.41,2.41,0,0,1,0,.38,4.07,4.07,0,0,1-.14.77c-.06.25-.13.54-.21.81a31.24,31.24,0,0,1-1.16,3.24l-.39,1-.31-.62c-1.14-2.29-2.13-4.67-2.95-6.45a3.64,3.64,0,0,0-.3-.63l-.43-.5c-.26-.32-.5-.58-.71-.8l-.18-.18a35.25,35.25,0,0,0,2.62-4.28v-.07l.19-.12c.17-.09.24-.28.39-.4a10.29,10.29,0,0,1,1-.86c.36-.28.75-.58,1.18-.86.84-.58,1.82-1.12,2.8-1.68s2-1.13,2.89-1.71c.45-.32.91-.59,1.3-.91a10.74,10.74,0,0,0,1.11-.91l.25-.22a.47.47,0,0,0,.21-.23l.4-.19a5.87,5.87,0,0,0,.37-.9c.16-.51.22-.8.22-.8l-.68.46a7.68,7.68,0,0,1-.78.47l-.47.26c-.17.08-.26.26-.43.38a8.81,8.81,0,0,1-1,.83c-.36.29-.79.55-1.21.84-.87.55-1.83,1.11-2.82,1.66s-2,1.12-2.9,1.74c-.32.21-.6.44-.9.66.25-1.18.35-2.38.53-3.74.07-.51.15-1,.25-1.53a16.36,16.36,0,0,1,1.32-1.18c.09-.06.16-.13.25-.18a.58.58,0,0,0,.23-.18,5,5,0,0,1,.37-.43,8.5,8.5,0,0,1,.68-.66c.41-.34.68-.53.68-.53h-.23c-.22,0-.45,0-.67,0a6.78,6.78,0,0,0-1,.19,4.61,4.61,0,0,0-.63.2,1.21,1.21,0,0,0-.44.29c.33-1.38.71-2.77,1.08-4.16v.83l.52-.44a6.71,6.71,0,0,1,.58-.48l.34-.26c.11-.08.14-.25.25-.37A17.39,17.39,0,0,1,280,110c.56-.62,1.15-1.29,1.74-2,.3-.35.6-.69.87-1.06a12.54,12.54,0,0,0,.79-1.12,8.55,8.55,0,0,0,.61-1.16,6.32,6.32,0,0,0,.4-1.13,2.5,2.5,0,0,1,.07-.26.39.39,0,0,0,0-.26,2.78,2.78,0,0,0-.11-.5,3.63,3.63,0,0,0-.11-.42l-.1-.32c-.19-.41-.31-.61-.31-.61l-.27.61a3.87,3.87,0,0,1-.33.64l-.21.36c-.08.12,0,.27-.11.4a4.92,4.92,0,0,1-.32.91,8.54,8.54,0,0,1-.51,1c-.21.32-.44.66-.7,1s-.54.66-.82,1l-1.74,2A18.94,18.94,0,0,0,277.4,111h0a33.94,33.94,0,0,0,1.53-10.59c-3.32,4.43-5.86,13.42-8.66,21.22l-.08.06-.41.21-.19.1h-.14a4.75,4.75,0,0,1-1.48.38c-1,.13-2.1.07-3.07.13a3.35,3.35,0,0,0-.71.07c-.22.09-.43.19-.61.28a3.88,3.88,0,0,0-.91.65,2.14,2.14,0,0,0-.41.54l-.11.21.21-.09.27-.09L263,124a6.61,6.61,0,0,1,.89,0l.55.07a1.94,1.94,0,0,1,.59,0c.86-.06,1.94,0,3.17-.14a7.21,7.21,0,0,0,1.38-.29c-.08.22-.17.45-.25.68s-.46.32-.67.48a9.19,9.19,0,0,0-.75.65,5,5,0,0,0-.61.69c-.07.14-.23.19-.25.35a3.09,3.09,0,0,0,0,.43v.64c.07.33.13.53.13.53s.17-.12.43-.34l.22-.18.24-.13c-.36.81-.73,1.59-1.1,2.31a102.11,102.11,0,0,1-9.86,15c-.93-3.78-3-7.21-4.77-10.67l.11-.15c.18-.24.36-.51.58-.77s.31-.61.52-.91a19.55,19.55,0,0,1,1.34-1.93,25.88,25.88,0,0,1,1.74-2c.94-1,2-2.1,3-3.24l1.37-.17h.3l.25-.2c.14-.11.27-.23.4-.35s.32-.36.32-.36l-.43-.22c-.13-.07-.27-.15-.45-.23l-.28-.13a.06.06,0,0,0-.06,0c.18-.23.37-.46.55-.72s.6-.85.88-1.28c.55-.86,1-1.73,1.48-2.58.88-1.7,1.62-3.32,2.25-4.7a8.85,8.85,0,0,0,.43-1l.25-1c.15-.6.28-1.13.39-1.56l.33-1.37s-.33.4-.85,1.13c-.27.36-.59.81-.93,1.33l-.56.82a9.34,9.34,0,0,0-.46,1c-.62,1.38-1.35,3-2.21,4.62-.43.82-.89,1.66-1.41,2.47-.27.41-.51.79-.82,1.2s-.61.77-.91,1.16l-.64.77c-.35.06-.72.14-1.09.24l-.15,0a.49.49,0,0,0,0-.17,13.41,13.41,0,0,0,0-3.35,11.18,11.18,0,0,0-1-3.24c-.14-.25-.26-.51-.42-.76s-.33-.48-.51-.71a6.77,6.77,0,0,0-.93-1h0a5.42,5.42,0,0,1,0-.57,5.56,5.56,0,0,0-.13-1.22c-.25.33-.52.6-.78.9s-.26.31-.39.48a1.17,1.17,0,0,0-.17.28.59.59,0,0,1-.06.32l-.11.44.41.31a6.75,6.75,0,0,1,1,1c.13.19.28.38.4.58a5.36,5.36,0,0,1,.34.62,9.34,9.34,0,0,1,.82,2.79,12,12,0,0,1,0,2.94,5.55,5.55,0,0,1-.13.71,2.07,2.07,0,0,1-.1.33,1,1,0,0,0,0,.35v.11l-.13.16-.2.26L255,126c0,.08-.17.08-.18.19a.48.48,0,0,1-.07.29,1.61,1.61,0,0,0-.12.48l-.13.44a3.84,3.84,0,0,0,.48,0,2.94,2.94,0,0,0,.42,0c-.64.7-1.25,1.4-1.8,2.1a21.37,21.37,0,0,0-1.44,2.08,8.13,8.13,0,0,0-.55,1,1.72,1.72,0,0,0-.07.21c-1.82-3.65-3.21-7.41-2.68-11.72.39-3.14,2.23-6.57,3.42-9.73.6-1.61,1.22-3.34,1.8-5.12a6.6,6.6,0,0,1,.69-.71,5.54,5.54,0,0,1,.71-.57c.25-.2.45-.47.73-.69,1.07-.93,2.57-1.81,4.16-2.92l.27-.2a3.74,3.74,0,0,0,.45.22,3.39,3.39,0,0,0,.78,0c2.17,0,4.58-1.1,6.85-2.23s4.44-2.39,6.1-3.18c.2-.13.43-.14.59-.3l.48-.39c.3-.23.56-.45.79-.62.44-.34.72-.52.72-.52h-.27a4,4,0,0,0-.69,0c-.33,0-.67,0-1,.1l-.64.1a3,3,0,0,0-.63.29c-1.74.82-3.92,2.08-6.13,3.19a28.32,28.32,0,0,1-3.29,1.45,9.5,9.5,0,0,1-2.57.59c.17-.16.34-.34.51-.52L263,99l.15-.17.11-.15.46-.58c.31-.39.6-.86.9-1.29a25.32,25.32,0,0,0,1.49-2.7c.19-.4.37-.81.55-1.21l1.87,2-1.3-3.28.07-.18c.37-.86.72-1.68,1.1-2.43A20.52,20.52,0,0,1,269.52,87c.16-.33.43-.55.56-.87a9.36,9.36,0,0,1,.43-.84,13.51,13.51,0,0,1,.8-1.34l.8-1.15-.32.19c-.2.13-.52.3-.89.56a11.5,11.5,0,0,0-1.3,1c-.23.22-.51.44-.75.71a2,2,0,0,0-.33.44c-.09.16-.21.31-.3.48a23.44,23.44,0,0,0-1.2,2.2c-.22.44-.43.91-.63,1.37-.12-.22-.23-.45-.34-.67a18.15,18.15,0,0,1-.93-2,5,5,0,0,1-.29-1,2.32,2.32,0,0,1-.07-.46v-.45a1,1,0,0,1,.06-.43l.09-.2c0-.07-.05-.17-.05-.25a5.42,5.42,0,0,1,0-.57V83c-.21.08-.43.17-.63.27a4.73,4.73,0,0,0-.57.43,1.55,1.55,0,0,0-.24.27,1.07,1.07,0,0,1-.09.34,4.17,4.17,0,0,0-.1.68c0,.23,0,.45,0,.67s.06.44.1.65a8.16,8.16,0,0,0,.36,1.19,22.62,22.62,0,0,0,1,2.11l.29.59h-.12a4.5,4.5,0,0,0,.45,1c.08.14.14.29.2.42-.25.58-.5,1.16-.78,1.73a27.16,27.16,0,0,1-1.39,2.54c-.28.39-.51.77-.82,1.17l-.46.59-.12.15-.1.1-.23.26a12.53,12.53,0,0,1-1.69,1.48l-.32-.11-.26-.13-.21-.1.1.21.12.26c0,.06.09.13.13.2a43,43,0,0,0-4.22,3l-.24.22c1.54-5.35,2.57-11,2-16-1.23,3.28-3.52,6-4.67,9.34v.18a4.54,4.54,0,0,0-.21-.69,6.79,6.79,0,0,0-.39-.87c-.16-.27-.3-.57-.48-.82s-.35-.52-.55-.75a16.14,16.14,0,0,0-2.63-2.53c-.48-.36-1-.7-1.48-1-.24-.15-.49-.29-.74-.43l.18-.28a6.65,6.65,0,0,0,.27-.61,1.22,1.22,0,0,0,.14-.65,3.21,3.21,0,0,0-.34-1.28,1.76,1.76,0,0,0-.41-.53.87.87,0,0,0-.3-.16.55.55,0,0,0-.31,0,.45.45,0,0,1,.2.16.57.57,0,0,1,.07.22,1.24,1.24,0,0,1,0,.47,1.53,1.53,0,0,1-.13.45,3.17,3.17,0,0,1-.21.41c0,.07-.09.12-.09.19a.74.74,0,0,1,0,.21,2.48,2.48,0,0,1-.17.37,1.56,1.56,0,0,1-.23.34,2.68,2.68,0,0,1-.28.3l-.72.77.86.46c.49.27,1,.55,1.45.85a13.51,13.51,0,0,1,1.36,1,13.77,13.77,0,0,1,2.37,2.27,7.11,7.11,0,0,1,.47.65,6.58,6.58,0,0,1,.4.67,6.29,6.29,0,0,1,.32.7c.1.24.13.49.21.72a3.57,3.57,0,0,1,.09.74,6.69,6.69,0,0,0,.12.74,6.4,6.4,0,0,1,.1.81c0,.3,0,.61,0,.92l.1-.12c-1,4-1.57,8.18-3.16,11.82-4-5.65-2.76-15-6.07-21.44a19.61,19.61,0,0,1,1.12,9.77c-.53,5.23,1.81,10.25,1.45,15.42a39.54,39.54,0,0,1-4.2-2.27c-.09-.31-.17-.63-.26-1s-.36-.82-.51-1.28c-.71-1.77-1.48-3.9-2.56-6.12a22.65,22.65,0,0,0-2-3.3,15.09,15.09,0,0,0-1.28-1.59,15.56,15.56,0,0,0-1.46-1.35,29.46,29.46,0,0,0-3.26-2.25L226,94.94c-.51-.31-1-.63-1.48-.94a12.2,12.2,0,0,1-1.36-1,15,15,0,0,1-2.21-2c-.15-.17-.3-.34-.43-.51s-.24-.34-.38-.49a5.3,5.3,0,0,1-.73-.91c-.19-.31-.41-.59-.55-.88l-.36-.83a4.37,4.37,0,0,1-.22-.7c-.05-.21-.1-.39-.13-.53l-.12-.46v1a2.55,2.55,0,0,0,0,.78c0,.29.07.62.11,1a9,9,0,0,0,.31,1.13A5.84,5.84,0,0,0,219.89,92a16.41,16.41,0,0,0,2.24,2h-.39a9,9,0,0,0-1.22.14c-.84.11-1.71.28-2.57.46-1.73.36-3.43.77-4.68,1a.76.76,0,0,0-.45.09l-.38.24-.62.37-.58.32s.22.1.63.25c.2.06.45.13.74.19l.46.1c.16,0,.31-.07.48-.07,1.32-.25,3-.66,4.71-1,.84-.17,1.69-.34,2.47-.44.4-.06.77-.1,1.13-.13s.68,0,1,0c.15,0,.29.07.42,0l.4-.14.29-.09c.43.28.87.57,1.33.84l3.19,1.91c.79.48,1.59,1,2.33,1.53l-.28-.1-.28-.09h-.68a.44.44,0,0,0-.33.1,2.85,2.85,0,0,0-.57.47,2.48,2.48,0,0,0-.25.3c-.06.12-.12.25-.17.38a2.27,2.27,0,0,0-.13.77,3.87,3.87,0,0,0,.12.68,4.19,4.19,0,0,0,.22.59,3.29,3.29,0,0,0,.29.52c.1.16.2.32.31.47a9.82,9.82,0,0,0,.71.86,12,12,0,0,0,1.16,1.09h0a.57.57,0,0,1-.28.25.12.12,0,0,1-.07.1l-.08.13a2.06,2.06,0,0,1-.25.26,6.36,6.36,0,0,1-.66.5,3.49,3.49,0,0,0,.82.35,2.63,2.63,0,0,0,.49.07,1.07,1.07,0,0,0,.53-.07,4.82,4.82,0,0,0,.44-.35,2.79,2.79,0,0,0,.35-.42,3.25,3.25,0,0,0,.38-.9l.13-.49-.41-.31a10,10,0,0,1-1.41-1.27c-.21-.24-.41-.48-.59-.72s-.16-.25-.25-.37a2,2,0,0,1-.2-.38,1.42,1.42,0,0,1-.14-.36,1.55,1.55,0,0,1-.06-.31v-.31l.08-.09a.53.53,0,0,1,.23-.16c.06,0,.07-.08.12-.13l.13-.18.16-.2.21-.19a3.92,3.92,0,0,0,.37-.34c.18.13.37.27.53.41a12.74,12.74,0,0,1,1.38,1.27,14.69,14.69,0,0,1,1.11,1.39,21.83,21.83,0,0,1,1.83,3.09c1,2.12,1.79,4.22,2.51,6,.07.17.13.34.19.51-2.63-1.51-5.37-2.84-8.14-2.82,2.3,2.26,3.72,4.79,6.4,6.69,4.54,3.22,7.16,5.49,9.15,11,1.24,3.44,2.6,7.2,4.16,10.49-3.47-2.69-8.09-2.27-11.28-5.78-2.43-2.66-4.5-5-7.34-7.65.74,2.92,3.22,5.21,4.11,7.81-5.49-1.21-10.49-3.39-15.88-4.81,6.11,3.21,12.24,6.26,18.49,9.11v.06c.11.18.23.36.33.56s.33.31.47.5a13.28,13.28,0,0,1,1.88,2.59,13.5,13.5,0,0,1,1.28,3.43c.08.29.14.63.21,1a2.81,2.81,0,0,1,0,.71,4.8,4.8,0,0,1-.64,1.49,10.2,10.2,0,0,0-.89,1.7,3.79,3.79,0,0,0-.18,2,2.09,2.09,0,0,0,.11.43,1.16,1.16,0,0,0,.16.4l.51.57a6.42,6.42,0,0,0,.93.72c.53.29.85.44.85.44s-.15-.32-.43-.85c-.13-.28-.23-.6-.36-.94a2.37,2.37,0,0,0-.12-.55,2.55,2.55,0,0,1-.15-.52,2.18,2.18,0,0,1,.11-1.16,9.72,9.72,0,0,1,.78-1.46,6,6,0,0,0,.82-2,3.75,3.75,0,0,0,0-1.25c-.06-.32-.12-.63-.21-1a15.5,15.5,0,0,0-1.42-3.83,14.88,14.88,0,0,0-1-1.61l.12.06c7.75,3.41,12.84,6.82,13.33,14.57l-.51.2-1.55.6a11.75,11.75,0,0,0-1.58.71,18.59,18.59,0,0,0-2.69,1.89,4.78,4.78,0,0,1-1.12.64,3.31,3.31,0,0,1-1.17.15,4.85,4.85,0,0,1-1-.16c-.63-.51-1.26-1.05-1.93-1.55a12.92,12.92,0,0,0-1.83-1.17c-.31-.17-.67-.3-1-.45l-.45-.15c-.89-1-1.65-1.91-2.34-2.63a11.42,11.42,0,0,0-1.84-1.63c-.48-.32-.74-.46-.74-.46s.24.19.64.58a13.51,13.51,0,0,1,1.5,1.87c.38.54.77,1.18,1.22,1.89a5.57,5.57,0,0,0-1,0,8.51,8.51,0,0,0-1.87.32c-.47.16-.93.27-1.35.45a35.8,35.8,0,0,1-.49-4,.67.67,0,0,1,0-.2.31.31,0,0,0,0-.19c-.05-.12-.1-.24-.14-.36a2.85,2.85,0,0,1-.12-.58.9.9,0,0,1,0-.4l.07-.15h-.17a.7.7,0,0,0-.2.08.78.78,0,0,0-.26.17,2.42,2.42,0,0,0-.52.67c-.07.14-.15.3-.21.45a1.4,1.4,0,0,0,0,.5c.12,1.56.31,3.1.58,4.64v.11l-.09,0c-.79.49-1.44.94-2,1.3h-.06a18.79,18.79,0,0,0-.56-3.58c-1.5-4.2-1.33-7-3.92-9.64.23-.38.47-.75.71-1.09a7.11,7.11,0,0,1,.49-.6l.26-.24.19-.13v.05a.83.83,0,0,0,.42-.59.8.8,0,0,0-.22-.58,1.67,1.67,0,0,0-.45-.34h-.27l-.2.13-.46.32-.39.36a6.61,6.61,0,0,0-.63.77,9.35,9.35,0,0,0-.63,1,18.61,18.61,0,0,0-1.78-1.15,16.66,16.66,0,0,0-3.19-1.22,13,13,0,0,0,.2-1.65,1.2,1.2,0,0,0,.35-.39,2.73,2.73,0,0,1-.52-.5,1.91,1.91,0,0,0-.32-.24h-.44l-.57.14v.58a9,9,0,0,1-.17,1.56,15.35,15.35,0,0,1-4.23-1.69,1.77,1.77,0,0,1,.08-.31,31.53,31.53,0,0,0,1-4.19,34.12,34.12,0,0,1,.93-4c0-.13.14-.23.12-.37a2.41,2.41,0,0,1,0-.38v-1.24c-.17.11-.34.22-.5.34a5.8,5.8,0,0,0-.52.47,2.2,2.2,0,0,0-.3.31c-.12.1-.09.27-.16.4a35.61,35.61,0,0,0-1,4.2c-.2,1.07-.42,2.11-.66,3a1.38,1.38,0,0,0-.25-1c-.53-.56-1.08-1.11-1.65-1.66-.42-1-.85-2-1.3-3.11-.6-1.45-1.17-3-1.71-4.61a35.55,35.55,0,0,1-1.27-5,23,23,0,0,1-.22-2.62,7.17,7.17,0,0,1,0-1.31v-.66a2.29,2.29,0,0,1,.11-.58,4.64,4.64,0,0,1,.49-1c.21-.37.47-.73.74-1.11A10,10,0,0,0,209.5,110a4.58,4.58,0,0,0,.25-1.6,12.46,12.46,0,0,0-.11-1.36,18,18,0,0,0-.6-2.71q-.21-.66-.42-1.29a.81.81,0,0,1,0-.22c0-.66-.08-1.35-.14-2a12.67,12.67,0,0,1,0-3.48c0-.12.08-.21,0-.33l-.09-.32c-.06-.21-.11-.41-.15-.56-.07-.33-.12-.53-.12-.53a4.87,4.87,0,0,0-.42.35,2.4,2.4,0,0,0-.44.46l-.25.3a.22.22,0,0,0-.06.19v.2a9.63,9.63,0,0,0-.13,1.78c-.57-1.17-1.14-2.27-1.7-3.28-.36-.6-.61-1.22-1-1.74l-1.06-1.47c-.66-.92-1.26-1.7-1.75-2.35l-1.58-2,1.08,2.31L202.06,93l.75,1.62c.26.57.65,1.11,1,1.72.66,1.2,1.35,2.52,2,3.93.46,1,.9,2,1.29,3.08a8.72,8.72,0,0,1-.07,1.14c0,.12-.08.22,0,.32a.8.8,0,0,1,.1.31,4,4,0,0,1,.16.57c.09.33.16.53.16.53s.16-.13.41-.36h0a13.15,13.15,0,0,1,.28,1.39c.08.39.06.88.1,1.31a3.18,3.18,0,0,1-.17,1.06,8.41,8.41,0,0,1-1.24,2.18c-.26.37-.54.76-.79,1.19a5.5,5.5,0,0,0-.66,1.46,3.39,3.39,0,0,0-.15.77v.72a8.65,8.65,0,0,0,0,1.44,22.37,22.37,0,0,0,.25,2.83,37.93,37.93,0,0,0,1.31,5.27c.54,1.6,1.1,3.12,1.69,4.54a23.56,23.56,0,0,1-2-2.17c-4.68-5.4-2.2-13.75-1.32-20.43-4,3.64-4.16,12.52-4.86,17.72-.5-2.29-2.11-2.25-3.53-3.75-2.59-2.75-4.57-6.32-6.7-9.47-1-1.54-2-3.15-2.91-4.77.13-1.63.31-3.54.4-5.49v-.51h0c1-1,2.54-2.28,4-3.65a23.91,23.91,0,0,0,2.09-2.18,13.53,13.53,0,0,0,.84-1.15,9.53,9.53,0,0,0,.64-1.12l.14-.27a.35.35,0,0,0,.1-.26V92a4.22,4.22,0,0,0,0-.87,6.29,6.29,0,0,0-.11-.74l-.44.59a4.31,4.31,0,0,1-.51.62l-.31.36c-.12.12-.13.29-.23.44a7.46,7.46,0,0,1-.55,1,10.33,10.33,0,0,1-.74,1,21,21,0,0,1-2,2c-1,.93-2.09,1.83-3,2.66v-1.1c0-.6-.09-1.18-.14-1.73a8.93,8.93,0,0,0-.27-1.55,3.31,3.31,0,0,0-.17-.69c-.1-.2-.24-.38-.34-.56a9,9,0,0,0-.62-.86c-.39-.44-.61-.67-.61-.67a7.82,7.82,0,0,0,.07.89,8.34,8.34,0,0,1,0,1,5.81,5.81,0,0,1,0,.59,2.63,2.63,0,0,0,.13.62c.12.43.15.92.24,1.42a11.77,11.77,0,0,1,.14,1.62c0,.56,0,1.16,0,1.76v.81l-.17.38a6,6,0,0,0-.3.8c-.13.44-.19.71-.19.71l.59-.32q-.08,1.33-.18,2.61c-2.22-4-4.47-8-7.69-11.25a88.1,88.1,0,0,0,7.72,17v.14a.89.89,0,0,0,.09.29c-.76-.29-1.52-.59-2.31-.87a19.49,19.49,0,0,0-2.69-.74,13.64,13.64,0,0,0-1.43-.19h-.94c0-.09-.08-.18-.13-.27a6.66,6.66,0,0,0-.53-.66,13.64,13.64,0,0,0-1.09-1,4.25,4.25,0,0,1-.48-.47l-.29-.17a2.69,2.69,0,0,1-.29-.16,4.29,4.29,0,0,1-1.08-1,2.68,2.68,0,0,0,0,.8,2.57,2.57,0,0,0,.08.4,4.36,4.36,0,0,0,.28.79,1.55,1.55,0,0,0,.19.36c.1.1.2.17.29.26l.28.26c.37.33.72.63,1,.93a5.32,5.32,0,0,1,.37.46,2.16,2.16,0,0,1,.24.48l.22.55h.59a8.15,8.15,0,0,1,1.21,0q.61,0,1.23.15a21.18,21.18,0,0,1,2.48.69c.82.29,1.65.61,2.48.94l.32.12a.6.6,0,0,0,.32.12h1c.33.48.65,1,1,1.43.89,1.18,1.65,2.44,2.45,3.69l-.15-.06-.44-.15h-.47c-1.32.07-3.07.3-4.75.46-.85.07-1.68.11-2.46.11a18.59,18.59,0,0,1-2.1-.18H180a.41.41,0,0,0-.22,0l-.43.09-.71.13c-.4.07-.65.13-.65.13s.18.16.51.42a3.78,3.78,0,0,0,.61.44l.4.25c.14.11.31,0,.48.1a16.23,16.23,0,0,0,2.31.19,22.8,22.8,0,0,0,2.61-.12c1.76-.16,3.44-.38,4.72-.45H190l.4-.19.64-.29c.35.51.71,1,1.09,1.52,2.18,2.8,5.93,4.29,8.06,7.09a26.42,26.42,0,0,1,2.42,4.81l-1.32.1a14.19,14.19,0,0,0-3.16.58l-.06-.08a2,2,0,0,0-.31-.34,1.64,1.64,0,0,1-.26.33,1.08,1.08,0,0,0-.26.37.17.17,0,0,0,0,.1c-.2-.49-.38-1-.57-1.49a15,15,0,0,0-1.57-3.28,9,9,0,0,0-1.15-1.39q-.3-.3-.63-.57c-.22-.2-.44-.35-.66-.52a23.06,23.06,0,0,0-2.54-1.6,9.91,9.91,0,0,0-1.16-.62l-1.12-.39-1.82-.61-1.59-.55s.46.41,1.32,1c.42.32,1,.71,1.55,1.13l.95.68a2.33,2.33,0,0,0,.55.32l.57.3a24.42,24.42,0,0,1,2.38,1.5c.19.15.4.3.57.45a5.47,5.47,0,0,1,.56.51,7.38,7.38,0,0,1,1,1.16,13.92,13.92,0,0,1,1.41,3,23,23,0,0,0,1.44,3.39,10.65,10.65,0,0,0,2.49,2.94,15.07,15.07,0,0,0,3.2,1.81c2.17.88,4.23,1.39,5.88,2,.21.07.41.14.6.22a3.88,3.88,0,0,0,.56.23,8.2,8.2,0,0,1,1.07.32,6,6,0,0,1,.91.38l.3.14.81,1a5.43,5.43,0,0,0-1.54.63,7.48,7.48,0,0,0-2.31,2.06c-.26.43-.57.84-.79,1.28a10.85,10.85,0,0,0-.62,1.34,19.33,19.33,0,0,0-.87,2.77c-.22.94-.37,1.86-.5,2.84l-.14,1.39-.07,1.44V164q0,1.35-.09,2.67l-.15,1.31c-.09.42-.16.85-.26,1.27a9.62,9.62,0,0,1-.38,1.22,12.22,12.22,0,0,1-.54,1.16l-.32.54a2.57,2.57,0,0,1-.29.44,35.55,35.55,0,0,0-2.06-4.74c.36-3.42,1.21-7.85.27-11.06-1.08-3.72-5.14-8.13-7.31-11.18a8,8,0,0,1-.49-.79,1.62,1.62,0,0,1,0-.44,10.33,10.33,0,0,1,.2-1.24,5.06,5.06,0,0,1,.14-.72,6.15,6.15,0,0,1,.07-.75,3.42,3.42,0,0,0-.06-.78,2.18,2.18,0,0,0-.22-.71c-.07-.1,0-.25-.17-.3l-.31-.14a1.52,1.52,0,0,0-.51-.12h-.43v.42a1.34,1.34,0,0,1,0,.4v.37a1.1,1.1,0,0,1,.11.35,3.53,3.53,0,0,1,0,.46,2,2,0,0,1-.06.58,1,1,0,0,0,0,.25,13.1,13.1,0,0,0-1-1.84c-.87-1.26-2.13-2-3-3.17l-.08-.13h0c0-.08.08-.17.13-.26s0-.18,0-.28c0-.81.08-2,.12-3.27a10.25,10.25,0,0,0-.36-3.57c-.08-.12,0-.27-.16-.36l-.3-.24a2.5,2.5,0,0,0-.53-.3,1.58,1.58,0,0,0-.37-.11h-.13a3.91,3.91,0,0,1,0,.48,4.17,4.17,0,0,1,0,.5v.29c0,.1.07.16.08.25a8.69,8.69,0,0,1,.29,3,7.73,7.73,0,0,1-.07,1.27c-.23-.67-.45-1.38-.69-2.16-.9-2.9-.43-2.6-3.11-4.57-2.4-1.76-4.43-3.78-7.68-3.88,2.44,4,7.54,4.34,9.61,8.81.49,1.07,1.2,2.49,1.82,4v.34a2.2,2.2,0,0,0,.21.32h0a10.93,10.93,0,0,1,1,4.35c1.88,3.08,1.42,6.84,1.19,10.38-.14-.14-.3-.28-.47-.42l-.55-.48a4.37,4.37,0,0,0-.69-.33,55.82,55.82,0,0,0-7.32-2.7c-2.69-.83-5.35-1.65-7.27-2.42a6.46,6.46,0,0,0-.69-.26l-.68-.11c-.43-.07-.81-.12-1.12-.18l-1-.16s.26.25.75.67c.24.21.54.45.9.71l.57.43a4.41,4.41,0,0,0,.71.29c2,.79,4.69,1.63,7.36,2.45a54.84,54.84,0,0,1,7.13,2.62c.24.09.44.26.67.32l.65.16c.37.09.7.16,1,.25a15.59,15.59,0,0,0,.24,4.42,8.56,8.56,0,0,0,.81,2.07,3.45,3.45,0,0,1-2.78,1.29c-1.32-.21-4.22-4.39-5.62-5.34a35.94,35.94,0,0,0-8.95-4c2.17,1.91,3.93,4.41,5.94,6.52h0a3.3,3.3,0,0,0-1.17.19,4,4,0,0,1,.86.63,3.33,3.33,0,0,1,.25.28h0a1.2,1.2,0,0,1-.18.26l-.47.5.44.49a8.85,8.85,0,0,0,1.16,1.13c.4.33.81.64,1.22.94.81.59,1.61,1.15,2.36,1.75a10.12,10.12,0,0,1,1,.94,9.07,9.07,0,0,1,.86,1c.11.18.2.37.31.56s0,.21.11.29l.24.25.39.56a12.67,12.67,0,0,0-1.72,2.63,26,26,0,0,0-.67,4.21v-.12a8.86,8.86,0,0,0-.42-1.61l-.12-.3h.31l-.38-.23a12.68,12.68,0,0,1-.72-2.07v-.19c0-.05-.11-.1-.16-.14a.77.77,0,0,1-.19-.31.71.71,0,0,1,0-.29v-.12a1,1,0,0,0-.49.11,1.24,1.24,0,0,0-.45.46,3,3,0,0,0-.18.36.19.19,0,0,0,0,.18v.19a4.74,4.74,0,0,0,.18.72l-.14-.08-.84-.44c-.3-.15-.65-.19-1-.32l-2.36-.77a10.79,10.79,0,0,0-.05-1.27v-1a4.2,4.2,0,0,0-.11-1c-.19-.62-.34-1.26-.54-1.9-.14-.45-.3-.91-.48-1.36a2.92,2.92,0,0,0,.65-.79,3.68,3.68,0,0,0,.43-1.56,6.13,6.13,0,0,0-.13-1.48,12.73,12.73,0,0,0-.38-1.34,31.25,31.25,0,0,0-2.32-4.76c-.86-1.51-1.75-3-2.57-4.48-.2-.37-.42-.74-.58-1.12a10.13,10.13,0,0,0-.72-1,12.22,12.22,0,0,1-1.3-2.24,8.65,8.65,0,0,0,.28,2.68,2.55,2.55,0,0,0,.16.66,2,2,0,0,0,.23.63c.22.38.41.78.62,1.16.84,1.53,1.74,3,2.59,4.49a30.59,30.59,0,0,1,2.21,4.53,8.74,8.74,0,0,1,.32,1.14,3.7,3.7,0,0,1,.1,1.1,2.06,2.06,0,0,1-.24.91,2,2,0,0,1-.64.64l-.53.4.25.54a18.07,18.07,0,0,1,.63,1.74l.26.91c.08.31.18.61.23.93a4.13,4.13,0,0,0,.36.9l.41.9.45.91c-2.21-.73-4.69-1.59-7.16-2.52q-1.5-.57-3-1.17a.89.89,0,0,0-.07-.41,5.92,5.92,0,0,1-.14-.9c-.11-.31-.23-.62-.37-.92a21.63,21.63,0,0,0-.87-2c-.31-.72-.71-1.46-1.08-2.23s-.82-1.55-1.29-2.32l-1.42-2.33-.39-.59a2,2,0,0,1,.09-.32,7.33,7.33,0,0,0,.12-.73l.06-.45c0-.16-.1-.29-.12-.45-.18-.62-.4-1.32-.59-2.06-.1-.37-.18-.75-.25-1.13a5.35,5.35,0,0,1-.11-1.13,8.06,8.06,0,0,1,.13-1.1c.07-.4.15-.82.19-1.27a3,3,0,0,0-.18-1.46,3.14,3.14,0,0,0-.82-1.09l-.22-.18a.48.48,0,0,0-.23-.13,2,2,0,0,0-.48-.09,4.82,4.82,0,0,0-.76,0h-.65s.16.19.43.48.3.34.44.52a2.27,2.27,0,0,1,.22.32c.06.13.22.12.28.23a1.27,1.27,0,0,1,.41.51,1.68,1.68,0,0,1,.08.77,6.82,6.82,0,0,1-.18,1.14,8.09,8.09,0,0,0-.14,1.39,4,4,0,0,0,0,.69,1.7,1.7,0,0,0,.09.67c.08.44.18.85.28,1.25.15.57.3,1.07.44,1.54-.42-.58-.83-1.16-1.25-1.71-1-1.36-2-2.61-2.87-3.67a7.36,7.36,0,0,0-.63-.75l-.68-.57c-.43-.36-.82-.67-1.14-.92-.63-.5-1-.77-1-.77s.2.42.58,1.13l.69,1.28c.14.24.28.5.43.78s.41.48.6.76c.86,1,1.83,2.28,2.84,3.62s2,2.81,3,4.31c.47.76,1,1.51,1.39,2.27s.85,1.52,1.25,2.25a15.4,15.4,0,0,1,1,2.17c.25.7.6,1.36.84,2,.15.3.21.62.36.89l.09.15-.71-.31c-.82-.35-1.6-.72-2.34-1.08s-1.4-.73-2-1.05a5.87,5.87,0,0,0-.88-.5c-.3-.12-.6-.21-.86-.33-.53-.25-1-.43-1.39-.61l-1.2-.61s.29.38.86,1.06c.29.32.67.68,1.12,1.11a8.93,8.93,0,0,0,.73.63,8.33,8.33,0,0,0,.9.55c.66.34,1.35.73,2.11,1.09s1.55.75,2.39,1.1,1.68.73,2.56,1.08c.3.52.47.59.44.18l2.28.89c3.62,1.36,7.29,2.57,10,3.45a10.49,10.49,0,0,0,1,.32l.94.13.92.11c.12.32.25.64.36,1a4.43,4.43,0,0,1,.35,2.38c0,.07-.09.11-.06.19a1.17,1.17,0,0,1,.09.24,2.38,2.38,0,0,0,.09.42v.46h.12l.33-.08.29-.16c-.52,1.55-1.17,3.37-1.83,5.09l-.27-.29c-.72-.68-1.45-1.17-2.1-1.72l-.47-.42-.42-.42-.19-.23-.16-.22c-.11-.16-.21-.33-.32-.51-.2-.37-.4-.78-.65-1.19-.13-.2-.26-.41-.41-.61l-.15-.23.28-.1a1.28,1.28,0,0,0-.67-.37,1.38,1.38,0,0,0-.93.18l-.24.15.23.71a1.58,1.58,0,0,0,.09.31,1.37,1.37,0,0,1,.19.23,5.39,5.39,0,0,1,.33.5c.22.35.41.73.64,1.15.11.2.24.41.38.62a2.44,2.44,0,0,0,.23.31l.24.29c.18.19.34.35.52.52l.53.47c.7.6,1.45,1.11,2,1.65a3.69,3.69,0,0,1,.38.41,1.37,1.37,0,0,1,.13.2c0,.08.08.12.15.17h0a18.82,18.82,0,0,1-1,2.15,7.34,7.34,0,0,1-1.57,2.5h0a3.24,3.24,0,0,1-.53-.45l-.3-.32-.31-.43c-.1-.15-.18-.34-.28-.51s-.26-.31-.38-.5l-.37-.59a4.41,4.41,0,0,1-.33-.69,14.83,14.83,0,0,1-.59-1.61c-.36-1.15-.64-2.44-1-3.75-.18-.64-.37-1.27-.56-1.9s-.31-1.25-.47-1.85a16.49,16.49,0,0,0-1.19-3.35,3.72,3.72,0,0,0-.36-.65c-.16-.19-.33-.35-.48-.5-.3-.31-.59-.54-.82-.75-.47-.38-.75-.59-.75-.59s.1.33.29.91c.08.29.2.63.31,1,.06.19.12.4.17.62s.23.38.31.6a14.46,14.46,0,0,1,1.08,3.06c.16.61.32,1.24.48,1.87l.31,1.06h0a.85.85,0,0,0-.39-.31l-.41-.25c-.27-.18-.56-.33-.84-.5a33.91,33.91,0,0,0-3.47-1.72,32.58,32.58,0,0,0-3.59-1.36l-1.81-.61c-.3-.1-.61-.18-.9-.3a.73.73,0,0,0-.2-.05,1.48,1.48,0,0,0,.12-.29c-.12.06-.25.09-.37.14v.2a1.46,1.46,0,0,0,0-.51c-.06-.16-.12-.31-.17-.46s-.2-.54-.28-.74c-.18-.42-.29-.65-.29-.65s-.11.23-.29.65l-.29.74-.16.45c-.07.17,0,.33,0,.51v-.23h-.56l.56.41v4.5c0,1,0,1.9.06,2.79-.78-.72-1.56-1.45-2.3-2.2l-.82-.86c-.16-1-.24-2.33-.31-3.64a22.24,22.24,0,0,0-.19-2.47,15.3,15.3,0,0,0-.4-2.21.35.35,0,0,0-.07-.25.37.37,0,0,0-.1-.22l-.32-.36a4.92,4.92,0,0,0-.61-.5,3.24,3.24,0,0,0-.6-.27s.06.25.13.6v1c0,.14.11.22.12.37a13.73,13.73,0,0,1,.35,2c.08.74.14,1.56.18,2.39,0,.56.07,1.12.11,1.68-.26-.36-.5-.8-.8-1.27-.16-.28-.36-.54-.52-.87s-.42-.62-.65-.92c-.49-.61-.89-1.37-1.38-2.13a20,20,0,0,1-1.32-2.53c-.21-.45-.42-.91-.64-1.37L149,166c-.36-.85-.68-1.74-1-2.62l.35-.21c.15-.09.35-.15.52-.23s.32-.24.51-.34a10.58,10.58,0,0,1,1.31-.64c.5-.21,1.06-.41,1.65-.7a4.79,4.79,0,0,0,2.11-1.74l.27-.52h0v-.23l.07-.23.08-.23.06-.3a6.64,6.64,0,0,0,.1-2.18,13.82,13.82,0,0,0-.38-2c-.33-1.22-.74-2.29-1-3.2a5,5,0,0,0-.23-.65l-.35-.53-.54-.89c-.3-.49-.45-.8-.45-.8a1,1,0,0,0,0,.24c0,.16-.06.4-.06.7a6.49,6.49,0,0,0,0,1.08v.67a3.09,3.09,0,0,0,.22.67c.31.93.71,2,1,3.1a11.13,11.13,0,0,1,.34,1.72,5.78,5.78,0,0,1-.06,1.66,3.69,3.69,0,0,1-.24.8l-.18.33a3.15,3.15,0,0,1-.22.29,3.92,3.92,0,0,1-1.27.9,16.46,16.46,0,0,1-1.57.67,14,14,0,0,0-1.51.73c-.21.17-.48.24-.64.45s-.26.33-.37.5c-1.32-3.78-2.44-7.58-3.42-10.46a11.07,11.07,0,0,0-.39-1.1l-.51-.93c-.32-.59-.61-1.1-.87-1.5-.51-.82-.81-1.28-.81-1.28s.09.55.28,1.48c.1.47.19,1,.32,1.69.06.32.13.66.19,1a10.69,10.69,0,0,0,.36,1.09c.77,2.27,1.64,5.14,2.64,8.15l-.88,1.6c-.62,1.13-1.29,2.27-1.85,3.51a13.24,13.24,0,0,0-.67,1.82,22.46,22.46,0,0,1-.29-5.79,5,5,0,0,1,1-1.37c0-.06.13,0,.13-.14a.81.81,0,0,1,0-.22,2,2,0,0,1,.1-.4c.08-.23.14-.38.14-.38a1.87,1.87,0,0,0-.4-.13,1.93,1.93,0,0,0-.48,0h-.37c.21-3.16.42-6.29-.28-8.69-.43,3.19-1.18,6.27-1.9,9.33a14.21,14.21,0,0,0-.54-2.23c-.29-.86-.63-1.71-1-2.54-.77-1.67-1.62-3.27-2.16-4.48-.09-.14-.08-.32-.2-.43s-.22-.23-.32-.33-.38-.39-.52-.55l-.47-.49a4.89,4.89,0,0,1-.07.69,5.08,5.08,0,0,0,0,.78v.49c0,.17.15.29.2.46.56,1.27,1.41,2.88,2.16,4.49a23.67,23.67,0,0,1,1,2.39A11.77,11.77,0,0,1,138,160a1.12,1.12,0,0,0,.06.45c.06.14.12.25.18.38s.2.46.28.69c.13.41.23.64.23.64l.21-.34c-.46,2-.87,4-1.14,6.07-.16-.22-.34-.47-.52-.74l.32.29s-.13-.42-.39-1.13c-.12-.36-.27-.79-.45-1.28l-.27-.78a7.68,7.68,0,0,0-.47-.78c-.74-1.27-1.53-2.5-2.39-3.69a20.71,20.71,0,0,0-1.61-2,18.81,18.81,0,0,0-1.68-1.54h0l.31-.27c0-.06.11-.11.17-.17s0-.13,0-.2a17.87,17.87,0,0,0,0-2.07,7.11,7.11,0,0,0-.44-2.18.19.19,0,0,0-.1-.2l-.24-.11a1.9,1.9,0,0,0-.4-.14l-.37-.08s-.05.13-.12.36a2.72,2.72,0,0,1-.14.36,1.8,1.8,0,0,1-.08.21v.15a5.9,5.9,0,0,1,.34,1.72v1.9h0a14.06,14.06,0,0,0-1.48-.92c-.2-.1-.36-.2-.59-.31l-.56-.26c-.28-.12-.56-.23-.84-.32a3,3,0,0,0-.24-.59l-.09-.11a12.72,12.72,0,0,0-1-3.19,12.59,12.59,0,0,0-.9-1.6l-.28-.39a.9.9,0,0,1-.14-.2c0-.07-.16-.08-.25-.11a2.93,2.93,0,0,0-.57-.13,1.88,1.88,0,0,0-.58,0,3.11,3.11,0,0,1,.19,1v.22a.4.4,0,0,1,.13.13l.23.31a12.79,12.79,0,0,1,.78,1.4,11,11,0,0,1,.91,2.74c-1-.23-2-.39-2.8-.6-.3,0-.55-.21-.83-.23a5.86,5.86,0,0,1-.78-.11,5.63,5.63,0,0,1-.69-.14,3.83,3.83,0,0,1-.58-.16c-.36-.1-.63-.2-.82-.27l-.3-.11.21.23a6.35,6.35,0,0,0,.62.65,8.6,8.6,0,0,0,1.12.87l.59.36a3.22,3.22,0,0,0,.61.24l.48.13c1.28.33,2.74.52,4.17,1a9.57,9.57,0,0,1,1,.37l.55.26.5.27a10.37,10.37,0,0,1,1,.62,11.12,11.12,0,0,1,1,.69,15.13,15.13,0,0,1,1.78,1.61,19.87,19.87,0,0,1,1.5,1.8c.81,1.1,1.48,2.2,2.08,3.19a1.42,1.42,0,0,0-.08.18,2.3,2.3,0,0,0-.14.42,2.5,2.5,0,0,0-.07.26c0,.1.08.13.09.22a20.74,20.74,0,0,0,1.11,2.08,20.31,20.31,0,0,0,1.32,2c.07,0,0,.17.15.18l.26.06a2.66,2.66,0,0,1,.44.08h.06c0,.38-.07.76-.1,1.15a8.45,8.45,0,0,1-7.8-2.58,1.13,1.13,0,0,1,0-.26,20.4,20.4,0,0,1,.08-3.58c0-.68.08-1.37.05-2.05a8.42,8.42,0,0,0-.25-1.87c-.06-.13,0-.28-.12-.39a4,4,0,0,0-.29-.29,3.2,3.2,0,0,0-.51-.4c-.16-.1-.32-.18-.48-.26v.54a5,5,0,0,1,0,.55.61.61,0,0,1-.06.32c-.06.11.07.2.07.31a7.22,7.22,0,0,1,.2,1.54,17.34,17.34,0,0,1,0,1.91c0,.74-.1,1.5-.12,2.22-1.09-1.29-2.14-2.67-3.35-3.87-.46-.46-1.1-1.08-1.84-1.76a1.37,1.37,0,0,0,.35.08,1.93,1.93,0,0,0,.34,0l.18-.3c0-.09.11-.2.18-.31l.11-.16v-.13a11,11,0,0,1-.42-1.38,14.75,14.75,0,0,0-.6-1.56s0-.13-.09-.15l-.22-.06a2.21,2.21,0,0,0-.37-.08h-.35l-.14.31-.16.3-.1.18v.12a8.47,8.47,0,0,1,.43,1.38,14.83,14.83,0,0,0,.44,1.48c-2.58-2.35-6.22-5.3-8.39-5.54a5.87,5.87,0,0,0,1.17,2.34,1,1,0,0,0-.22.13,2.74,2.74,0,0,0-.55.47,2.82,2.82,0,0,0-.29.39,1.15,1.15,0,0,0-.08.55,3.16,3.16,0,0,0,.26,1.17c.15.36.32.66.45.94a4.2,4.2,0,0,1,.32.9c.1.35.19.71.29,1.06s.23.91.35,1.36a24.73,24.73,0,0,0-5.88-4.54,103.89,103.89,0,0,1,12.42,16.91c-4.67.93-13.38-3.83-17.34-7a12.53,12.53,0,0,0-.13-1.32c-.08-.66-.15-1.3-.19-1.77v-.17l-.18-.15-.3-.24-.29-.22-.28.24a3.57,3.57,0,0,0-.27.28l-.16.18c-.07.06,0,.12,0,.19a12.92,12.92,0,0,0,.16,1.52l-.58-.55v-.06a11.55,11.55,0,0,0-.11-1.87c-.11-.67-.14-1.32-.19-1.82v-.17l-.18-.15-.32-.22c-.18-.13-.3-.2-.3-.2a3.07,3.07,0,0,0-.26.25,3.58,3.58,0,0,0-.26.29l-.15.18c-.07.06,0,.11,0,.18,0,.49.12,1.14.19,1.8v.18c-.69-.7-1.41-1.42-2.15-2.11a.64.64,0,0,0,.08-.14v-.17a17.09,17.09,0,0,1-.35-1.87c-.11-.71-.2-1.43-.3-2a.28.28,0,0,0,0-.2l-.2-.15-.34-.23c-.2-.12-.33-.18-.33-.18s-.09.11-.22.3l-.23.33c0,.06-.09.13-.14.2s0,.11,0,.18c.09.52.19,1.23.3,1.95l.06.41c-2.32-1.92-4.79-3.3-7.23-2.9A75.59,75.59,0,0,0,97,166.45h-.39l-2.48.31c-1.49.15-3,.26-4.45.26a.38.38,0,0,0-.15,0h-.24v1.51h.26a.19.19,0,0,0,.15,0,41,41,0,0,0,4.57-.26l2.44-.26.61-.06h.3a.83.83,0,0,0,.29-.16,2.61,2.61,0,0,0,.28-.17,44.64,44.64,0,0,0,6.55,4.89c.22.13.47.26.72.39h-.12c-.93.18-2.11.54-3.26.87a18.29,18.29,0,0,1-3.1.7h-.3l-.27.18L98,175l-.41.28a3.13,3.13,0,0,0,.42.29,4.82,4.82,0,0,0,.5.27l.33.14c.11.06.22,0,.34,0a19.41,19.41,0,0,0,3.36-.75c1.16-.34,2.29-.68,3.13-.85a.54.54,0,0,0,.31-.06l.23-.21.42-.35.3-.27c1.09.42,2.32.78,3.62,1.15a2.69,2.69,0,0,0-.29.16,9.43,9.43,0,0,0-1.35,1c0,.05-.12,0-.11.11v.22a2.29,2.29,0,0,0,0,.37,3.4,3.4,0,0,0,.07.34l.33.07.35.07h.2c.08,0,.06-.07.11-.08a8.29,8.29,0,0,1,1.13-.81,8.77,8.77,0,0,1,1.27-.62s.1,0,.12-.05l.06-.2v-.06c4.85,1.33,9.93,2.82,11.11,6.2.07.2.15.39.23.59-.31-.22-.66-.47-1.08-.75l-.8-.52a7,7,0,0,0-1-.37,10.47,10.47,0,0,0-2.41-.52,3.07,3.07,0,0,1-.67-.05h-.67a10.11,10.11,0,0,0-1.45.2A9.62,9.62,0,0,0,113,181c-.85.49-1.64,1-2.42,1.55a13.78,13.78,0,0,1-2.34,1.24l-.66.22-.56.12a6.74,6.74,0,0,1-1.19.08,16.17,16.17,0,0,1-4.48-1.16l-.51-.17a1.48,1.48,0,0,0-.51-.13,8.4,8.4,0,0,0-1-.07,6.32,6.32,0,0,0-.87,0,4.43,4.43,0,0,0-.72.09,3.86,3.86,0,0,0-1,.25l-.33.11h.35a6,6,0,0,1,.94.17,3.69,3.69,0,0,1,.65.18,4.93,4.93,0,0,1,.73.27,5.87,5.87,0,0,1,.81.36c.28.14.62.18.94.31.66.22,1.39.49,2.2.74a10,10,0,0,0,2.71.49,7.66,7.66,0,0,0,1.51-.09l.78-.18c.24-.07.44-.15.67-.23a14.07,14.07,0,0,0,2.66-1.4c.81-.52,1.58-1.06,2.35-1.5a7.83,7.83,0,0,1,2.32-.95,7.53,7.53,0,0,1,1.16-.16h.61l-.16.12-.18.15c-.06.05,0,.11,0,.17a13.84,13.84,0,0,1-.14,1.72,4.19,4.19,0,0,1-.37,1.44c0,.06-.09,0,0,.12s0,.13.07.19.08.23.11.34.05.23.07.35h.36a1.14,1.14,0,0,0,.41-.07,1,1,0,0,0,.25-.07c.09,0,.06-.13.12-.18a6.27,6.27,0,0,0,.53-2c.08-.69.11-1.33.14-1.8,0-.06.06-.11,0-.17l-.15-.16-.13-.13a10.56,10.56,0,0,1,1.75.4c.32.09.6.27.91.34l.9.19c.56.14,1.07.25,1.49.34l.4.08a12,12,0,0,0,1.82,2.59l-.54-.13a15.83,15.83,0,0,1-1.52-.49c-.5-.2-1-.46-1.48-.7a16.56,16.56,0,0,0,1.2,1.17,11.49,11.49,0,0,0,1.4,1,14.52,14.52,0,0,0,1.52.78,3.86,3.86,0,0,0,.82.24,5.19,5.19,0,0,0,.78.18l.27.22a8.57,8.57,0,0,0-1.24-.15h-.81a5.88,5.88,0,0,0-.73.14c-.11.06-.25,0-.33.12a2.47,2.47,0,0,0-.21.27,2.27,2.27,0,0,0-.27.48,2.59,2.59,0,0,0-.14.45h.45a3.54,3.54,0,0,1,.45.08,1.13,1.13,0,0,1,.24.08c.09,0,.13-.06.21-.06a3.86,3.86,0,0,1,.49-.09h.6a7.91,7.91,0,0,1,1.37.18,20.51,20.51,0,0,1,2.63.82c.1,0,.16.11.26.09h0a22.05,22.05,0,0,1,1.65,1.55,22.78,22.78,0,0,1,2.4,3.3l-.6.55a6.62,6.62,0,0,1-1.36,1h-.07v.2a1.77,1.77,0,0,1-.15.31.92.92,0,0,1-.23.25.9.9,0,0,0,.23.32,2,2,0,0,0,.4.23,1.48,1.48,0,0,0,.27.1c.11,0,.16-.07.24-.08a7.37,7.37,0,0,0,1.75-1.23l.41-.36c2.41,4,4.91,8.53,8.76,9a7.36,7.36,0,0,1,1.83.58h-.59c-.26-.1-.54-.2-.85-.29l-.91-.27c-.32-.07-.67,0-1-.07a81.84,81.84,0,0,0-10.5.48l-2.44-.63c-.69-.43-1.55-.5-2.86.19a2.71,2.71,0,0,0,.24.78,28.86,28.86,0,0,1-4.83-.14c-.33,0-.63-.15-.94-.13h-.87a13.47,13.47,0,0,1-1.42-.2,6.66,6.66,0,0,1-.9-.26l-.33-.11.25.24a5.14,5.14,0,0,0,.75.65,7.89,7.89,0,0,0,1.35.78c.22.11.45.2.7.31a3.88,3.88,0,0,0,.69.18l.53.07a34.07,34.07,0,0,0,6.06.1c1.58,1.66,4.2,3.14,5.49,4.13a40.25,40.25,0,0,1-4.9,7.71,3.47,3.47,0,0,0-.55-.16,10.45,10.45,0,0,0-1.12-.18l-.68-.06a5.36,5.36,0,0,0-.7.1,7.26,7.26,0,0,1-1.47.09h-.33a2.73,2.73,0,0,1-.41-.1,4.81,4.81,0,0,1-.71-.29c-1-.5-2.12-1.34-3.51-1.91a4,4,0,0,0-2.43-.29l-.48.13c-.2.08-.4.15-.58.24s-.64.35-.92.53a17.62,17.62,0,0,1-1.48,1,4.43,4.43,0,0,1-1.25.62.67.67,0,0,1-.28.06.39.39,0,0,0-.26,0,4.42,4.42,0,0,1-.52.14h-.52L111,219a3,3,0,0,1-.68-.13l-.24-.06a1.46,1.46,0,0,0,.16.19,4.26,4.26,0,0,0,.52.52l.44.33a4.2,4.2,0,0,0,.6.3,5,5,0,0,0,.78.21,2.34,2.34,0,0,0,.87-.14,5.81,5.81,0,0,0,1.66-.81c.52-.34,1-.71,1.5-1a6.87,6.87,0,0,1,.74-.44l.32-.14.47-.13a2.88,2.88,0,0,1,1.48.24c1.11.44,2.19,1.27,3.41,1.87a6.09,6.09,0,0,0,1,.39,3.43,3.43,0,0,0,.46.11,3.31,3.31,0,0,0,.55.07,9.56,9.56,0,0,0,1.77-.1,4.45,4.45,0,0,0,.73-.12l.61-.26,1-.4.22-.07c-.51.62-1,1.22-1.57,1.79-4.56,4.83-6.39,8.68-7.43,15.33,5.71-4.07,7.65-14.14,12.71-19.36a7.57,7.57,0,0,1,4-2.29l.37.35v1.41l-.06,1.3a7.87,7.87,0,0,1-.17,1.28,10,10,0,0,1-.3,1.23,6.13,6.13,0,0,1-.47,1.16l-.3.54a2.23,2.23,0,0,1-.33.51l-.38.49-.19.24-.23.21-.46.4-.47.41a11.17,11.17,0,0,1-1,.82l-1,.64a1.12,1.12,0,0,1-.45-.44,1.72,1.72,0,0,1-.11-1,1.84,1.84,0,0,0-.22,1,1.61,1.61,0,0,0,.6,1l.1.08h.19l1.38-.39a10.68,10.68,0,0,0,1.34-.59,2.59,2.59,0,0,0,.33-.17,2.09,2.09,0,0,0,.28-.24c.17-.18.36-.34.54-.51l.27-.25.24-.29.46-.59a3.65,3.65,0,0,0,.4-.62l.36-.65a6.09,6.09,0,0,0,.39-1c1.81-1.67,4.75-4.14,5-6.7h.07a1.12,1.12,0,0,0,.35-.12h0a42.51,42.51,0,0,0,5.74.52l.21.07h.09a15.73,15.73,0,0,1,3.72.68l1.87.67-.15.27a8.4,8.4,0,0,0-.71,2.45c-.13.86-.17,1.72-.34,2.53a6.1,6.1,0,0,1-.92,2.29c-.11.17-.22.33-.34.49l-.16.18v0l-.28.32a10.39,10.39,0,0,1-1,.87,18.28,18.28,0,0,1-2.27,1.56c-.79.47-1.59.91-2.39,1.3-1.58.8-3.11,1.48-4.42,2.08a8,8,0,0,0-.94.44l-.78.55c-.49.34-.9.66-1.24.93a7.92,7.92,0,0,0-.77.64l-.27.23,1.3-.37,1.47-.39.91-.24a7.92,7.92,0,0,0,.94-.42c1.31-.59,2.85-1.28,4.48-2.1.82-.41,1.65-.86,2.48-1.35a18.71,18.71,0,0,0,2.45-1.69,12.11,12.11,0,0,0,1.15-1l.48-.54a1.33,1.33,0,0,0,.14-.19h.12a9,9,0,0,0,1.83-.47,2.32,2.32,0,0,0,.83-.38l.78-.48c.35-.22.68-.45,1-.68.23.18.47.36.68.56a9.18,9.18,0,0,1,1.73,2.14,10.28,10.28,0,0,1,.71,1.5,5.73,5.73,0,0,1,.23.7,12.76,12.76,0,0,1,.35,1.74,14.25,14.25,0,0,1,.11,1.85c-1.07,0-2.37-.12-3.76-.07h-1l-.31.05A11.5,11.5,0,0,0,156,232a20.28,20.28,0,0,1-2,.65h-.2a.23.23,0,0,0-.18,0l-.33.21c-.22.11-.42.22-.6.29-.36.14-.59.21-.59.21l.13.1a2.22,2.22,0,0,0,.42.25,3.74,3.74,0,0,0,.72.29,2.77,2.77,0,0,0,.48.11c.17.05.32-.06.5-.08.68-.16,1.4-.45,2.1-.69.36-.11.71-.21,1.06-.28l.3,0h.85c1.22-.05,2.51,0,3.65.06v.37l.88-.09c2.16-.24,4.26-.57,6.35-.67h2.34l.78-.07h1.58a7.88,7.88,0,0,1,1.62.11l-.72-.41-.76-.35-.79-.29-.8-.25-.83-.2h-2.49c-1.76.08-3.48.31-5.18.52l-.27-.07h-.14a18,18,0,0,0-.12-2.07,17.74,17.74,0,0,0-.38-1.9,6.67,6.67,0,0,0-.23-.72,11.11,11.11,0,0,0-1.79-3.2,13.92,13.92,0,0,0-1.3-1.36c-.25-.22-.67-.55-.93-.74l-.52-.38-1.15.8c-.24.17-.49.32-.74.47s-.48.31-.74.44a3.17,3.17,0,0,0-.71.48l-.49.37a8.85,8.85,0,0,0,.66-2c.15-.78.21-1.51.3-2.18a.67.67,0,0,0,.19.14.54.54,0,0,0,.25.09h.08v-.07a.59.59,0,0,1,.18-.13c.08,0,.18-.07.28-.12l.17,0c.07,0,0,0,0-.08a4,4,0,0,1,.31-1,2.31,2.31,0,0,1,.5-.78h0c-.06,0,0-.13-.08-.16a.36.36,0,0,1-.06-.3l.09-.29a9.77,9.77,0,0,0,1.53,0c1.59-.1,3-1.7,4.51-1.12,2.75,1,7.72-.62,11.24-.1s6.84-.5,10.42-.23a6.32,6.32,0,0,1,1.76.44c-.61,0-1.23-.1-1.87-.12a21.67,21.67,0,0,0-2.79.07,10.94,10.94,0,0,0-1.4.18,9.44,9.44,0,0,0-1.38.3c-.45.13-.9.24-1.33.4l-.7.26a6.54,6.54,0,0,0-.59.3,7,7,0,0,0-1.94,2,4.56,4.56,0,0,1-1.34,1.32c-.12,0-.23.12-.35.16a.92.92,0,0,0-.36.13,4.44,4.44,0,0,1-.72.27,7,7,0,0,1-1.36.22,11.24,11.24,0,0,0-1.26.06l.3.14c.21.08.49.24.89.37l.66.21c.25.07.53.09.84.15a5.57,5.57,0,0,0,1,0,3.16,3.16,0,0,0,1.1-.43,5,5,0,0,0,1.24-1l.17.26q.12.18.24.39c.08.13.23.2.33.33s.24.24.35.37l.32.44a3.3,3.3,0,0,1,.31.51,5.68,5.68,0,0,1,.28.55c.08.2.17.4.26.61s.14.43.22.65c.14.44.27.9.39,1.37.24.94.46,1.92.72,2.84a15.74,15.74,0,0,0,.87,2.5c.1.17.09.37.24.51l.4.39h-.42a5.62,5.62,0,0,1-1-.15c-.16,0-.28-.11-.43-.08h-.42a4.45,4.45,0,0,1-.73,0h-.67a5.56,5.56,0,0,0,.42.54,2.89,2.89,0,0,0,.59.57l.4.32a.43.43,0,0,0,.25.07l.27.06a7.8,7.8,0,0,0,1.18.17h1.29c.89,0,1.8-.1,2.69-.17.45,0,.89-.06,1.32-.07h1.24a8.42,8.42,0,0,1,1.11.14l.51.1h0c-3.24,2-7.19,2.25-10.27,4.54-3.83,2.83-6.17,4.4-11.23,3.41-2-.39-3.65-1.9-5.82-.68s-.61,2.57,2,2.62c-3.54,2.22-10.06.89-12.59,4.49,4.75.7,10.1-.93,15-.7,2.41-.54,5.66.38,7.93-.45,1.17-.43,2.73-2,3.8-2.62a56.58,56.58,0,0,1,7.39-3.69c1.88-.76,4-.46,5.76-1.14,2.9-1.15,4-4.65,8.31-4.64s5,4.06,6.75,8c2.32,5.11,1.57,11.85,3.4,17-2.16,3.86,1,17-2.64,19.28-1.93-2.05-3.43.82-1.49,4.82.41.85,1.17,4.68.28,5.23-.71.44-1.36,3.93-1,7.22.37,4-1.32,7.25-2.26,11-1.84,7.25,0,15.24,0,22.59.24-1.1,10.62.79,11.83.84,13.15.51,26.26,1.21,39.42,1.27,8.89,0,18.91,2.48,27.49-.53.06-.23,0-.43.06-.66.54.17,1.42,0,2,.21-.54-1.05.11-1.93.62-1.22-1-3.75,2.06-11.21,2.15-15.11.08-3.58-.67-6.77-1.25-10.25-.66-4,.2-8.12,0-12.2s-2.53-7.34-4-11.15c-.93-2.48-.77-3.21-.46-5.73.7-5.53,0-11.26.57-16.84.72-7.51.32-15.58,2.83-22.72s5.51-18.79,12.28-23.39c1.7-1.16,2.69-1.17,4.89-.17,3.51,1.6,4.85,4.75,7.62,7.07,4.86,4.06,16.5,4.21,14.9,2.05-2.36-3.17-8.6-6.68-5.28-10.44,2.56-2.89,6.35-3.39,8.69-6.7a81,81,0,0,1,8-10c2.25-2.32,5.84-3.33,7.9-5.39-3.37-.2-5.1,1.51-7.2,3.19a5.2,5.2,0,0,1-1.55-.93,8.22,8.22,0,0,0,1.08-.4,4.92,4.92,0,0,0,.87-.48l.29-.19h-.35c-.21,0-.54,0-1,.07a9.92,9.92,0,0,1-1.44-.07l-.74-.11c-.28-.27-.57-.54-.89-.8-2.67-2.14-6.51-2.66-9.72-3.63,1.66-1.57,4.15-.75,6.23-.49,3.61.44,6.35-1.13,9.83-1.83.08.1.17.22.28.34l.3.32c.11.11.28.09.41.17a35.33,35.33,0,0,0,4.17,1.3c1.5.4,3,.79,4,1.18.14,0,.24.15.38.13h1.65s-.11-.19-.34-.51-.3-.36-.46-.53-.19-.2-.3-.3-.27-.1-.41-.17c-1.14-.43-2.67-.83-4.17-1.23-1.2-.31-2.38-.65-3.34-1a50.89,50.89,0,0,1,9.56.21c.27.1.57.19.87.31,2.84,1.16,6.4,3.48,10.09,5.62a49.73,49.73,0,0,0,5.64,2.86,21.19,21.19,0,0,0,2.8,1,12.33,12.33,0,0,0,2.7.41,4.31,4.31,0,0,0,1.24-.06,6,6,0,0,0,1.08-.37,5.32,5.32,0,0,0,1.53-1,4.67,4.67,0,0,0,.78-.82l.24-.3-.34.18a4.72,4.72,0,0,1-1,.45,5.75,5.75,0,0,1-1.53.34,5.57,5.57,0,0,1-1,0,2.09,2.09,0,0,0-.5,0,4.69,4.69,0,0,1-.53,0,10.53,10.53,0,0,1-2.37-.36,20.11,20.11,0,0,1-2.61-.9,48.29,48.29,0,0,1-5.46-2.78c-2.48-1.43-4.92-3-7.2-4.21a67.92,67.92,0,0,1,9.71,1.55c2,.49,6.68,2.57,9,2.49,1.24,0,1.19.4,2.13-.46-.34-.37-.41-1-.64-1.28,2.45-1.2,6-1.76,8.73-2.48,2.35-.62,7.71-1.49,9.08-3.78a2.3,2.3,0,0,0-2-.13M314,150.26c0,.27.06.55.07.83h0c-.2.12-.39.15-.57.24h-.2c.25-.37.5-.75.74-1.14m-25.84,2.06a19.64,19.64,0,0,0,2.3.2h1.69a.61.61,0,0,0,.19,0,3.81,3.81,0,0,0,.45-.23l.3-.25a8.47,8.47,0,0,0,1.35-2,4,4,0,0,1,.52-.77l.1-.09h1.45a8.28,8.28,0,0,1,1,.13,19.62,19.62,0,0,1,2,.53c.69.23,1.37.47,2.06.74l2.07.79c.55.2,1.1.4,1.67.58a33.36,33.36,0,0,1-4.16,1.17c-1.38.27-4.26-.21-5.58.4-1.64.77-2.4,4.3-4.49,4.12-1.27-.11-2.46-2.68-3.31-5.18l.37.06m-61.52-12.1c0-.07,0-.17.08-.18s.21.14.27.3l-.38.08a.67.67,0,0,0,0-.2m-28.28-7.58h0m0,0a.11.11,0,0,1-.16.08c-.07,0-.07-.07-.11-.11Zm10.12,7.93c-1.72-.63-3.74-1.13-5.73-1.94a13.42,13.42,0,0,1-2.8-1.6,8.87,8.87,0,0,1-2.08-2.48q-.19-.36-.36-.72l.1.07.3.22.37-.14a12.73,12.73,0,0,1,3-.57l1.59-.11h.39a53.17,53.17,0,0,0,6.1,7.6c-.28-.11-.57-.19-.87-.31M132.84,208a8.75,8.75,0,0,1-.87-.95l.83-.07c.89-.08,1.79-.16,2.67-.22l.13.68c.16.82.32,1.63.47,2.44a9.3,9.3,0,0,1-3.23-1.88m9.07-38.93.36-.4c0-.07.15-.13.15-.2a.81.81,0,0,1,0-.22l.11-.44a12,12,0,0,1,.64-1.73c.48-1.08,1.08-2.13,1.68-3.21l.07-.08a.76.76,0,0,0,.13-.23,1,1,0,0,0,0-.25V162c.17.49.33,1,.51,1.45.38,1,.74,2,1.16,3l.62,1.47q.33.72.66,1.41c.43.94.92,1.8,1.38,2.63a17.79,17.79,0,0,0,1.44,2.25,6,6,0,0,1,.36.52c-2.74-1.15-6-1.44-8.26-3.78a6.13,6.13,0,0,1-1.2-1.78l.13-.15m-6.94,18.75h.64v.31l-.67-.31m4.28,3.93a5.65,5.65,0,0,0-1.89-2.58,4,4,0,0,0-.14-.65c0-.22-.08-.48-.1-.72h.48l2.29-.07c-.16,1.34-.4,2.67-.64,4m.81-5.86v.32l-2.48.08H137v-.1c0-.07.08-.14,0-.22a1.59,1.59,0,0,1-.13-.22c-.07-.14-.15-.28-.2-.39l-.18-.39c-.13.07-.25.15-.37.23a2.83,2.83,0,0,0-.37.32l-.22.22c-.08.08,0,.18,0,.28a1.31,1.31,0,0,0,0,.28h-1.26c-.94,0-1.87-.06-2.8-.13l-.19-.11c-3.92-2.57-4.43-7.4-6.88-11.1.11-.55.19-1.2.28-1.82a7.25,7.25,0,0,1,.44-1.78c0-.06.09-.08,0-.16s0-.14-.08-.2-.09-.27-.12-.37l-.1-.37a2.5,2.5,0,0,0-.38.06,2,2,0,0,0-.41.14l-.25.1c-.09,0,0,.15-.1.21a8.81,8.81,0,0,0-.54,2.15v.37l-2.89-3.71v-.61a3.59,3.59,0,0,1,.14-.86,2.19,2.19,0,0,1,.12-.33l.16-.24c0-.05.09,0,.06-.11v-.2a2.29,2.29,0,0,1,0-.37v-.36a1.56,1.56,0,0,0-.37-.1,1.62,1.62,0,0,0-.44,0h-.28c-.11,0-.1.13-.17.19a3.15,3.15,0,0,0-.53,1v.2c-.46-.56-.92-1.11-1.39-1.65a.68.68,0,0,1-.07-.2c-.31-1-.66-2.49-1-4l-.3-1.09a6.35,6.35,0,0,0-.41-1.13c-.16-.34-.32-.64-.42-.88a1.45,1.45,0,0,1-.14-.58v-.12a.09.09,0,0,0,0-.12,1.67,1.67,0,0,0-.08-.3,2.91,2.91,0,0,1,0-.59v-.07c1.91,2.35,5.16,4.73,6.82,6.24,3.59,3.26,5,10.29,9.8,11A40.42,40.42,0,0,1,148.5,180a27.44,27.44,0,0,1,3,2h-.84a2,2,0,0,0-.54.08l-.53.16a2.77,2.77,0,0,0-.48.26,3.62,3.62,0,0,0-.82.69,4.66,4.66,0,0,0-.59.81,4.56,4.56,0,0,0-.42.86l-.2.43-.13.44-.09.27h-2.72c-1.1,0-2.19.05-3.28.09h-.62a3.09,3.09,0,0,0-.14-.32m-1.75,32.34V218l.06-1.42v-1.15a1.36,1.36,0,0,1,.24.24c.87,1,.36,1.72-.28,2.42m11.21-5.7a1.93,1.93,0,0,0,0-.34v-.12l-.18-.08-.3-.13a.64.64,0,0,0-.57.06,1.89,1.89,0,0,0-.27.2l-.15.12c-.07,0,0,.07,0,.11v.14a34.92,34.92,0,0,1-5.93-.88c0-.08-.06-.15-.08-.22a.14.14,0,0,1,0-.1h-.19l-.31-.11-.3-.14a1.44,1.44,0,0,0-.27.22l-.06.08-1.25-.36c-.65-.2-1.27-.37-1.86-.54-.15-.81-.3-1.62-.46-2.42l7.06-.68,2-.19a3.84,3.84,0,0,0,1-.09l1-.22.3-.08c2.52,1.51,5.18,3.68,5.78,5.09a14.64,14.64,0,0,1-4.78.73m28.52-5.33c-3.84.38-7.91,1.39-11.58,1.33l.09-.25a2,2,0,0,1,.17-.48c.06-.18.07-.18.1-.28s-.06-.18-.06-.28a21.45,21.45,0,0,1-.4-2.88l-.22-3V201l-.19-.26a4.23,4.23,0,0,0-.33-.41c-.1-.12-.21-.23-.32-.34l-.25.4c-.07.13-.16.28-.24.45l-.14.28c-.07.1,0,.19,0,.29l.22,3a24.54,24.54,0,0,0,.43,3.08.45.45,0,0,0,.07.3l.24.24a3.34,3.34,0,0,0,.4.35l.1.07a13.19,13.19,0,0,1-2.66-.35c-2.21-.53-4.21-2.16-6.28-3s-3.29-.72-5.12-2.43c-1-.89-1.33-1.9-2.57-2.56.14-2.44,1.38-5.29,2.42-7.46-2,1.09-3.52,4.28-5.56,5.22-.32-1-.71-2-1-3.11a18.28,18.28,0,0,1-.59-2.2c-.08-.35-.1-.69-.16-1a4.21,4.21,0,0,1,0-.87c0-.26.07-.26,0-.39a1.9,1.9,0,0,1-.12-.36,6.23,6.23,0,0,1-.15-.62c-.06-.39-.09-.61-.09-.61-.16.14-.31.29-.46.44a3.2,3.2,0,0,0-.43.61,2.32,2.32,0,0,0-.22.41c-.08.14,0,.31,0,.48a10.28,10.28,0,0,0,.21,2.21,23.41,23.41,0,0,0,.63,2.36c.33,1,.68,2,1,2.89a3.11,3.11,0,0,1-1.15-.41c-2.19-1.23-2.09-6.51-3-10h.17c1.09,0,2.17-.07,3.24-.08h1.61c.54,0,1.06.05,1.59.07h.6l.19-.59.24-.78.12-.38.16-.36a3.6,3.6,0,0,1,.34-.68,2.9,2.9,0,0,1,.41-.58,1.79,1.79,0,0,1,.49-.42l.27-.15.29-.08a.81.81,0,0,1,.31-.05h.33c.24,0,.48.07.71.12a4.79,4.79,0,0,1,.73.24,6.07,6.07,0,0,1,.73.34c.25.1.53.17.79.27l.35.14c2.13,2.1,4,4.41,6.37,6.81l.58.58a5.27,5.27,0,0,0-.62.43,4.12,4.12,0,0,0-.67.65,8,8,0,0,0-.53.76,8.41,8.41,0,0,0-.37.87,4.91,4.91,0,0,0-.17.93,3.7,3.7,0,0,0,0,.94,3.19,3.19,0,0,0,.22.91,3.54,3.54,0,0,0,.38.84,3.7,3.7,0,0,0,.5.74,4.7,4.7,0,0,0,.6.66l.12.1-.24.29a5.08,5.08,0,0,1-.75.64,6,6,0,0,1-1.87.83,6.86,6.86,0,0,1-1,.22,2.44,2.44,0,0,1-.54,0l-.53.16c-.36.11-.73.2-1.11.3l-1.16.25a9.11,9.11,0,0,0,1.13.44,12.23,12.23,0,0,0,1.19.31,3.19,3.19,0,0,0,.62.08l.61-.09a10.15,10.15,0,0,0,1.22-.25,7.59,7.59,0,0,0,2.32-1,6.71,6.71,0,0,0,1-.85l.43-.51.36-.56.33-.51-.53-.46-.53-.47a3.64,3.64,0,0,1-.46-.5,2.53,2.53,0,0,1-.37-.55,2.11,2.11,0,0,1-.27-.59,2.25,2.25,0,0,1-.15-.62,2.15,2.15,0,0,1,0-.62,4.34,4.34,0,0,1,.11-.61,6,6,0,0,1,.25-.58,3.77,3.77,0,0,1,.37-.52,2.45,2.45,0,0,1,.46-.45,2.87,2.87,0,0,1,.54-.37l.27-.14a72.32,72.32,0,0,0,14.92,10.26,9.76,9.76,0,0,1,.4,1.3,8.73,8.73,0,0,1,.28,2.54m-7.93-16.84c-.22-.56-.44-1.12-.65-1.67a41.64,41.64,0,0,0,3.79,3.1c1.61,1.15,5.07,2.73,4.51,5.3-.6,2.75-2.8.95-4.25,0a16.66,16.66,0,0,1-1.41-1.1v-.46c0-.17-.14-.3-.18-.46Zm5-1.86c-2.81-.29-5-1.92-7.27-3.58h0c-.2-.23-.38-.41-.53-.57-.3-.31-.5-.37-.51-.19a16.09,16.09,0,0,0-5.69-2.87,57.94,57.94,0,0,1,5.87,5.08c.49,1.26,1.13,2.9,1.77,4.56l1,2.73a64.52,64.52,0,0,1-4.4-5.63,35.4,35.4,0,0,0-4.88-5.21c-.07-1.25-.14-6.63-.14-7.71.31.08.61.19.91.29l1.81.6c1.2.41,2.39.85,3.54,1.34a35,35,0,0,1,3.36,1.67l.81.47.39.26c.07,0,.12.1.19.14l.23.07,1.22.33c.28,1.08.54,2.18.87,3.23a15.91,15.91,0,0,0,.65,1.79c.12.28.27.55.4.81a6.07,6.07,0,0,0,.45.74,2.29,2.29,0,0,0,.51.64,5.27,5.27,0,0,0,.64.4c.21.11.41.2.59.28l.55.14a2.32,2.32,0,0,0,.69.07c-.65.42-1.47.29-3.08.13M185.93,164c-.38-.38-.78-.73-1.18-1.07-.82-.65-1.65-1.23-2.46-1.82-.4-.3-.79-.59-1.15-.9a7.84,7.84,0,0,1-.61-.54v-.07a2,2,0,0,0,.17-.54c2.45,1.87,6.51,4.5,6.72,6.79a1.41,1.41,0,0,1,0,.29l-.06-.11c-.14-.25-.27-.52-.42-.75a10.25,10.25,0,0,0-1-1.28m-6,43.24a10.21,10.21,0,0,0-.28-2.58c2.16,1.16,4.37,2.32,6.61,3.54a13.33,13.33,0,0,0-6.33-1m10.2,26.16-.1-.09c-.14-.14-.34-.11-.51-.2l-.56-.17a3.54,3.54,0,0,1-.6-.12,9.56,9.56,0,0,0-1.31-.16h-1.37l-1.38.08c-.78.06-1.54.12-2.26.14-.05-.21-.09-.43-.12-.65a1.27,1.27,0,0,0-.06-.46c-.06-.16-.15-.28-.2-.45a16.65,16.65,0,0,1-.8-2.28c-.24-.88-.46-1.83-.71-2.81q-.18-.74-.42-1.47l-.24-.72c-.1-.23-.2-.47-.3-.69s-.21-.45-.33-.67-.24-.41-.37-.61l-.41-.56c-.14-.18-.31-.32-.45-.47l-.21-.23a.42.42,0,0,0-.23-.18l-.53-.18-.23-.08c.22-.28.43-.57.65-.81a4.16,4.16,0,0,1,.74-.65,4.06,4.06,0,0,1,.51-.26h.28l.29-.1a10.53,10.53,0,0,1,1.21-.37c.4-.12.83-.18,1.25-.27a9.28,9.28,0,0,1,1.29-.16,19,19,0,0,1,2.61-.07,23.52,23.52,0,0,1,2.55.19c.83.09,1.7.23,2.48.36,3.91,3.2,7.47,8.86,7.33,12.25-3.86-.07-5.08,1.26-7.49,3M197,184.06c-1.35,4.24-5.22,3.25-8.32,4.12a2.75,2.75,0,0,1,2.08.84c-10.17-.62-1.33-9.18.13-14.62,1-3.67.74-7.25,1.73-10.88.09-.34.21-.67.33-1,1.52,2.06,3.13,4.14,3.58,6.46.35,1.8-.84,2.51.06,2.63,1.81,2.12,1.27,9.75.41,12.46m16.89-13.6c-2.55,2.73-3.47,10.15-8.24,9.75a21.57,21.57,0,0,0-.92-5.92,6.05,6.05,0,0,0,.61-.73,10.24,10.24,0,0,0,.79-1.26,13.69,13.69,0,0,0,.62-1.35c.19-.46.3-.94.45-1.41s.19-1,.29-1.43l.16-1.43c0-.49.06-1,.07-1.46h0c.55-.22,1.3-.56,2-.85a10.91,10.91,0,0,1,1.84-.58h.18s.09-.13.13-.19a3.43,3.43,0,0,1,.24-.33c.14-.19.22-.32.22-.32l-.29-.27a2.71,2.71,0,0,0-.35-.24l-.23-.13h-.22a14.67,14.67,0,0,0-2.07.66l-1.48.61v-4.34c2.51,3.07,10.82,4.88,13,5.59-1.41,3-4.65,3.32-6.8,5.64m8.57-7.11-.16-.18c-.06-.07-.17-.05-.25-.1a3.06,3.06,0,0,1-.57-.29,5.5,5.5,0,0,1-.61-.47c-.41-.36-.83-.82-1.27-1.29a15.75,15.75,0,0,0-1.42-1.41,6.66,6.66,0,0,0-.82-.57l-.41-.23-.42-.17-.2-.08a.23.23,0,0,0-.2,0l-.4.09a2,2,0,0,0-.59.24,2.69,2.69,0,0,0-.46.28l.44.29a1.91,1.91,0,0,1,.42.33l.22.21c.07.07.17,0,.26.1l.28.1.29.17a5.35,5.35,0,0,1,.62.44,15.34,15.34,0,0,1,1.28,1.27l.45.48c-.93-.37-1.82-.77-2.58-1-2.37-.79-6.57-4-8.93-4.45v-.06l.13-1.38.2-1.32c.07-.45.18-.88.27-1.32a16.53,16.53,0,0,1,.78-2.54,10.52,10.52,0,0,1,.55-1.18c.19-.39.45-.73.67-1.09a6,6,0,0,1,1.81-1.64,4.52,4.52,0,0,1,1.82-.61,94.06,94.06,0,0,1,6.58,9.3c-.94-.27-2-.51-3-.85a4.43,4.43,0,0,1-.84-.36,2.65,2.65,0,0,1-.67-.48c-.44-.39-.84-.84-1.2-1.23-.11-.08-.14-.23-.28-.27l-.38-.15a2.22,2.22,0,0,0-.8-.15.4.4,0,0,0-.26.1.35.35,0,0,0-.1.19.74.74,0,0,0,0,.21.54.54,0,0,0,.07.13l.08-.11a.5.5,0,0,1,.12-.08c.06,0,0,.09,0,.12a1,1,0,0,0,.1.44.93.93,0,0,1,.1.33c0,.11.17.16.24.27.35.37.76.84,1.29,1.32a4.53,4.53,0,0,0,1,.68,5.86,5.86,0,0,0,1.06.46c.7.25,1.4.42,2,.59s1.19.31,1.65.47c.12,0,.2.13.32.12h.5a28.39,28.39,0,0,1,2.56,6.13,3.21,3.21,0,0,1-1.33.32m24.9-5.34a6.18,6.18,0,0,0,1.5-.85,18.54,18.54,0,0,1,2.45-1.76,31.93,31.93,0,0,1,3-1.23v4.82l-.27.06a2.83,2.83,0,0,1-.5.05H252a16,16,0,0,1-2.07-.16,9.8,9.8,0,0,1-2.85-.87l.41-.12m-16.44.56a6.3,6.3,0,0,1-.58-2.17l.25-.09,1.93-.67a10.77,10.77,0,0,1,0,3c0,.14-.11.24-.08.37a2.41,2.41,0,0,1,0,.38q0,.32,0,.63a3.53,3.53,0,0,1,0,.46v.16a11.08,11.08,0,0,1-1.48-2.06m5,6.72.61.12c-.13.39-.26.76-.41,1.13a10.49,10.49,0,0,0-.2-1.25m10,20.73-.23-.06-.19-.4-.43-.81a16.14,16.14,0,0,0-1-1.49,26.48,26.48,0,0,0-2.36-2.6,17.93,17.93,0,0,1-2.19-2.65l-.27-.36-.36-.4a5.17,5.17,0,0,0-.8-.67l-.13-.08a21,21,0,0,1-1.31-4.33l.07-.1a4.17,4.17,0,0,1,.92-1c.33-.27.68-.5,1-.74h0c1,1,2.36,1.69,3.54,2.65a5.29,5.29,0,0,1,1.3,1.45,1.77,1.77,0,0,1,.21.41l.09.27h0l-.39.41a5.85,5.85,0,0,0-.45.54,3,3,0,0,0-.22.39,1.58,1.58,0,0,0-.09.31v.93a3.44,3.44,0,0,0,.1.63,13.9,13.9,0,0,0,.68,2.28c.12.34.25.68.37,1s.26.69.4,1c.28.64.57,1.21.81,1.73.14.25.19.53.34.74s.29.42.41.61l.15.25h.28m7.93-2.32c-.09.08-5,1.53-7.21,2.06v-.44a7.68,7.68,0,0,0-.13-.81,8.08,8.08,0,0,0-.35-.8c-.26-.54-.54-1.1-.8-1.69-.13-.3-.25-.6-.36-.92s-.25-.67-.38-1a12.81,12.81,0,0,1-.61-2,5.06,5.06,0,0,0-.08-.52v-.44a1.43,1.43,0,0,1,.39-.52l.42-.44a2,2,0,0,0,.25-.33,2.15,2.15,0,0,0,.14-.26,1.12,1.12,0,0,0,.07-.48.38.38,0,0,0,0-.15v-.31l-.1-.27a4.51,4.51,0,0,0-.29-.63,6.79,6.79,0,0,0-2-2c-1.22-1-2.41-1.65-3.23-2.36.2-.13.38-.29.56-.43l.28-.21c.07-.09.15-.18.22-.28a5.34,5.34,0,0,0,.66-1.16,3.62,3.62,0,0,0,.24-1.13v-.93a4.65,4.65,0,0,0-.31-1.22l-.14-.41v.43a5.82,5.82,0,0,1-.11,1.18.67.67,0,0,1-.08.38l-.15.39a3.44,3.44,0,0,1-.43.77,3.82,3.82,0,0,1-.72.67c-.27.21-.53.5-.88.73l-.31.22-.33-.35a1.88,1.88,0,0,1-.31-.43,3,3,0,0,1-.34-.7c-.06-.18-.1-.27-.1-.27v.28a3,3,0,0,0-.06.85,3.67,3.67,0,0,0,.28,1.22c-.37.25-.77.51-1.17.84l-.34.28a1.63,1.63,0,0,0-.06-.53,9.58,9.58,0,0,0,.56-1,25.2,25.2,0,0,0,1.38-3.56l.25-.79-.82-.17-2-.41a1.42,1.42,0,0,1-.44-.11c-.7-1.14-1.73-1.76-2.82-3l.15-.06a1.76,1.76,0,0,0,.42-.24,2.75,2.75,0,0,0,.59-.54l.3-.39a1.66,1.66,0,0,0,.11-.49,13,13,0,0,0,0-3.73h.13c.47-.13.91-.37,1.41-.49a5.27,5.27,0,0,1,3.07-.08l.66.21a11.05,11.05,0,0,0,1.09,1.27,5.08,5.08,0,0,0,1.07.84l.66.37c.21.11.4.18.61.27a11.52,11.52,0,0,0,1.29.44c.39.31.8.62,1.25.91a11,11,0,0,0,4.35,1.61,14.76,14.76,0,0,0,2.3.18h1.69a1.69,1.69,0,0,0,.57-.06h0a31.3,31.3,0,0,1-.35,3.2c-.35,2.08-.78,3.8-1,5.59h-.13a5.68,5.68,0,0,1-2.87-.73,2.27,2.27,0,0,1-.49-.44,2.57,2.57,0,0,1-.52-.47,4.49,4.49,0,0,1-.76-1.37l-.09-.21h-.11c-.46,0-.75.2-1.12.2a4.4,4.4,0,0,0,.81.22,4.45,4.45,0,0,0,.2,1.74,3.74,3.74,0,0,0,.45.92,1.85,1.85,0,0,0,.38.36,4.12,4.12,0,0,0,.41.32,5.2,5.2,0,0,0,1.82.75,10.18,10.18,0,0,0,1.82.23h.1a15,15,0,0,0,.2,2.76c.35,2.11,3,8.48,1.2,10.11m29.17-12.23c-.13,1-.21,1.94-.26,2.72,0,.17-.08.32,0,.48a2.3,2.3,0,0,1,.14.45c0,.14.07.19.1.28-.74.29-1.48.55-2.17.78-.43.16-.88.22-1.27.4l-.76.35c1.5-1.75,2.84-3.62,4.25-5.46M261,156.06h.08l-.08.05V156m.44,16.86c0-.56-.1-1.12-.14-1.68a46.06,46.06,0,0,1,4.81.7c.54.11,1.08.24,1.61.39.26.07.51.16.77.24a5.05,5.05,0,0,0,.74.27,4.68,4.68,0,0,1,1.44.51,1.14,1.14,0,0,1,.59,1.28,3,3,0,0,0,.23-.38,1.37,1.37,0,0,0,.09-.49,1.89,1.89,0,0,0-.33-1,5,5,0,0,0-1.42-1.3,3.71,3.71,0,0,0-.85-.35c-.28-.09-.57-.19-.85-.26-.57-.17-1.14-.3-1.71-.42a51.23,51.23,0,0,0-5.24-.75,110.55,110.55,0,0,1-.27-11.8c.52-.27,1-.55,1.51-.82l.12.09a11.83,11.83,0,0,1,1.32,1.12c.41.39.86.76,1.25,1.18a28,28,0,0,1,2.21,2.65c.32.47.68.92,1,1.41s.57,1,.85,1.48a11.91,11.91,0,0,1,.77,1.51c.22.52.47,1,.68,1.54s.37,1,.55,1.57l.27.78.2.79c.14.52.27,1.05.4,1.56s.17.86.24,1.28c-2,2.83-4.14,6.09-6.66,7.44-6.26,3.37-3.84-4.87-4.16-8.57m11.24,10.08c0,.88-.24,1.7-.26,2.49s-.13,1.55-.21,2.26a1.68,1.68,0,0,1-.07.59,25.13,25.13,0,0,0-6.94,2.07,1.92,1.92,0,0,1-1.54.08c3.15-2.37,6-5.11,9-7.72v.23m.19-13-.29-.82-.58-1.65c-.22-.54-.48-1.07-.72-1.61q-.18-.42-.39-.84v-.29a6.06,6.06,0,0,1,.37-1.45c.21-.53.51-1.11.8-1.72.57-1.24,1.09-2.45,1.45-3.42,0-.13.14-.23.11-.36a2.44,2.44,0,0,0-.05-.39,3.76,3.76,0,0,0-.2-.73.66.66,0,0,0-.12-.17c-.08-.06-.21-.08-.24-.05a.25.25,0,0,0-.16.12,1.34,1.34,0,0,0-.07.18v0a2.06,2.06,0,0,0-.31.28l-.24.23c-.1.08-.06.21-.13.31-.33.89-.85,2.12-1.39,3.29-.28.59-.59,1.19-.84,1.82a.94.94,0,0,1-.1.31,4,4,0,0,1-.2-.35c-.32-.51-.7-1-1-1.49a29.67,29.67,0,0,0-2.33-2.81c-.42-.45-.89-.83-1.33-1.25s-.69-.63-1-.92c.42-.25.84-.51,1.23-.77l.69-.44a3.59,3.59,0,0,0,.63-.45c.39-.34.75-.67,1.08-1a18.93,18.93,0,0,0,1.63-1.72,6.43,6.43,0,0,0,.87-1.26,2.5,2.5,0,0,0,.15-.38V150l-.07.12a1.76,1.76,0,0,1-.24.3,6.74,6.74,0,0,1-1.13.93c-.51.37-1.17.78-1.93,1.22-.38.22-.79.45-1.23.68s-.83.57-1.3.85l-1.72,1.06c-.46-.34-.92-.66-1.37-1,.08-.87.18-1.75.31-2.61h0c.09-.07.06-.2.12-.29a6.22,6.22,0,0,1,.42-.62,4.26,4.26,0,0,1,.59-.61,8.12,8.12,0,0,1,.75-.56c.29-.16.57-.34.89-.49.63-.32,1.31-.6,2-1,.32-.16.63-.38.92-.56a7,7,0,0,0,.77-.67c.09-.14.26-.2.31-.36a3.12,3.12,0,0,0,.09-.44,2.06,2.06,0,0,0,0-.7,5.73,5.73,0,0,0-.07-.58l-.45.35a2.26,2.26,0,0,1-.49.31l-.3.15c-.12,0-.13.15-.22.22a4.37,4.37,0,0,1-.56.49c-.24.15-.48.31-.77.46-.56.31-1.23.59-1.91.94-.33.16-.68.36-1,.55l-.59.42c.06-.29.11-.58.18-.87.83-3.73,2.87-6.52,4.59-9.93a48.48,48.48,0,0,1,3.57-5.69,7.19,7.19,0,0,0,.17,1,3.79,3.79,0,0,0,.11.63,3.61,3.61,0,0,0,.27.64c.79,1.74,1.78,4.12,2.93,6.46.35.7.7,1.39,1.08,2.06v.54l.08.14.12.16.11.12.12.07a.31.31,0,0,0,.19,0h0l.17.28c.31.53.68,1,1,1.48a14.23,14.23,0,0,0,1,1.26c.19.17.31.4.51.53a4.42,4.42,0,0,0,.6.34,5.2,5.2,0,0,0,1,.43l.51.14c-.61,1.93-1.23,4-1.8,6-.29,1.11-.59,2.22-.83,3.32q-.18.84-.36,1.65c-.1.55-.2,1.09-.29,1.62-.2,1.06-.3,2.11-.43,3.1a17.22,17.22,0,0,0-.15,2.81,8.83,8.83,0,0,0,0,1.26c.05.34.11.67.19,1-.6.49-1.19,1-1.76,1.56a18.41,18.41,0,0,0-1.38,1.55c-.14-.53-.27-1.07-.41-1.61Zm0-13.09h0a.38.38,0,0,1,.15,0s.06,0,0,0a.14.14,0,0,1-.15,0h0m18.63,21.28a3.34,3.34,0,0,0-.4.65,3.69,3.69,0,0,0-.21.64c0,.1-.08.2,0,.3l.14.27v.06a7.34,7.34,0,0,0-1.14.85c-.1.11-.21.2-.32.31a5.62,5.62,0,0,0-2.06.46c-1.81.88-2.47,3-4.65,4-2.88,1.39-6.24,1.85-9.58,2.41V188c.19-.71.42-1.47.56-2.28.07-.41.13-.83.17-1.26s.09-.87.11-1.33.06-1.08.08-1.64c.33-.26.65-.53,1-.78a22,22,0,0,0,2.49-2.24l1.34-.2c.38,0,.78-.12,1.2-.19a11.34,11.34,0,0,0,1.29-.4,27.17,27.17,0,0,0,2.9-1.06,26,26,0,0,0,3-1.7c.88-.58,1.7-1.21,2.55-1.82h.1a.55.55,0,0,0,.31,0l.28-.1c.62-.18,1.21-.35,1.79-.48a1.89,1.89,0,0,0,.2.2,2.38,2.38,0,0,0,.77.52,2.14,2.14,0,0,0,1,.15,3,3,0,0,0,.88-.23,11.2,11.2,0,0,0,2.29-1.71,9,9,0,0,1,1-.78,3.75,3.75,0,0,1,1-.5.94.94,0,0,1,.44,0,1.92,1.92,0,0,1,.48-.15,2.08,2.08,0,0,1,.61,0,5.06,5.06,0,0,1,.67.17,2.76,2.76,0,0,0-.36-.65,2.49,2.49,0,0,0-1.41-.92,4.19,4.19,0,0,0-.86.15,5,5,0,0,0-1.39.7,13.25,13.25,0,0,0-1.1.88,9.78,9.78,0,0,1-1.92,1.47,1,1,0,0,1-.39.11.48.48,0,0,1-.29,0,1.24,1.24,0,0,1-.32-.23,2.43,2.43,0,0,1-.33-.38l-.32-.4-.37.08.59-.54a11.59,11.59,0,0,1,2.81-2l.35-.14.43-.14a4.4,4.4,0,0,1,.81-.22c.25-.06.53-.11.81-.15l.84-.11H300a9.78,9.78,0,0,1,.87.83,8.86,8.86,0,0,1,.78,1,12.1,12.1,0,0,1,.65,1.06,7.82,7.82,0,0,1,.52,1.14,8.28,8.28,0,0,1,.39,1.19V173l-.47.58c-.19.2-.39.44-.65.68a3.62,3.62,0,0,1-.42.36c-.16.11-.19.32-.35.46a6.74,6.74,0,0,1-.92.93,7.78,7.78,0,0,1-1.22.84,17.32,17.32,0,0,1-3.09,1.35c-1.11.39-2.27.75-3.35,1.2l-.19.08.13-.18a2.2,2.2,0,0,1,.31-.3,4,4,0,0,1,.43-.28c.64-.34,1.45-.6,2.06-.87.07-.06.17,0,.21-.11l.13-.25A3,3,0,0,0,296,177a2.64,2.64,0,0,0,.12-.4l-.39-.11-.41-.11-.24-.07c-.09,0-.12.07-.2.07-.54.25-1.33.49-2.18.94a4.25,4.25,0,0,0-.63.41,2.82,2.82,0,0,0-.56.53m4.5,3.32a38.14,38.14,0,0,1-4-.21,11.1,11.1,0,0,1,1.34-.66c1-.41,2.13-.77,3.27-1.17a19.53,19.53,0,0,0,3.35-1.46,10.17,10.17,0,0,0,1.43-1A7,7,0,0,0,302.5,176a2,2,0,0,0,.41-.58,4.19,4.19,0,0,0,.19-.63,5.67,5.67,0,0,0,.18-1,2.35,2.35,0,0,0,0-.53,6.3,6.3,0,0,1,.18.84,10.76,10.76,0,0,1,.17,1.27c0,.42.09.85.08,1.28s0,.86,0,1.29v.65c0,.22.08.43.09.65l.15,1.34v.17a75.08,75.08,0,0,1-7.91.9m32.81,10.71h2.24a8.34,8.34,0,0,0,1,0h.07c.93.26,1.86.47,2.81.64a13.58,13.58,0,0,1-3.56,2.18c-2.36.94-4.58.82-6.51,2.79-2.1,2.13-2.56,5.2-4.73,7.34-2.35,2.3-3.46,2.41-6.62,2.33-2.44-.06-4.44.86-6.79.82s-4.88-.51-5.49-3.06c-.53-2.22,1.71-9.69,4-10.37a11.79,11.79,0,0,0,3.86-2.17l.21.17.69.6a9.77,9.77,0,0,0,.88.53,15.7,15.7,0,0,0,2.14,1,9.24,9.24,0,0,0,2.69.62h.74l.74-.07h.38l.34-.07a3.53,3.53,0,0,0,.73-.18,20.13,20.13,0,0,0,2.72-1,27.15,27.15,0,0,1,5-1.88,12.16,12.16,0,0,1,1.21-.18c.39,0,.77-.06,1.17-.07M327.38,191a7.07,7.07,0,0,0-1.31.2,28.72,28.72,0,0,0-5.3,2,19.23,19.23,0,0,1-2.53.94c-.21,0-.39.11-.62.15l-.33.07H317l-.6.06h-.59a9.58,9.58,0,0,1-4.17-1.47c-.31-.16-.56-.39-.86-.51l-.68-.25a12.93,12.93,0,0,1,5.21-2.85c3.76-.8,8,.39,12.08,1.68"/><path class="cls-3" d="M51.45,272h25l9.65,37.46L95.69,272h25v61.56H105.11V286.61l-12,46.95H79L67,286.61v46.95H51.45Z"/><path class="cls-4" d="M131.27,272h53.84v12.31l-34.56,36h35.82v13.23H128V320.8l34.19-35.65H131.27Z"/><path class="cls-5" d="M298.81,272h17.77l23.18,34.06V272h17.93v61.56H339.76l-23.06-33.8v33.8H298.81Z"/><path class="cls-6" d="M401.28,311.26v-12.8h29.39V324.7a59.83,59.83,0,0,1-14.93,7.83,50.49,50.49,0,0,1-15.39,2.08q-11,0-17.87-3.74a25.58,25.58,0,0,1-10.7-11.12,36.54,36.54,0,0,1-3.8-17,35.42,35.42,0,0,1,4.15-17.53,26.93,26.93,0,0,1,12.18-11.32q6.26-3,16.84-3,10.2,0,15.26,1.85a19.72,19.72,0,0,1,8.4,5.73,25.39,25.39,0,0,1,5,9.85l-18.35,3.27a10,10,0,0,0-3.84-5.33,12,12,0,0,0-6.91-1.85,12.43,12.43,0,0,0-10,4.35Q387,293.17,387,302.57q0,10,3.76,14.28t10.48,4.28a20.07,20.07,0,0,0,6.08-.92,33.11,33.11,0,0,0,6.64-3.15v-5.8Z"/><path class="cls-7" d="M479.81,323.4H458.22l-3,10.16H435.79L458.93,272h20.75l23.13,61.56H482.89Zm-3.94-13.31L469.07,288l-6.72,22.13Z"/></svg>