<svg xmlns="http://www.w3.org/2000/svg" xmlns:xlink="http://www.w3.org/1999/xlink" width="1209" height="1068" viewBox="0 0 1209 1068">
  <defs>
    <style>
      .cls-1 {
        fill: url(#linear-gradient);
      }

      .cls-2 {
        fill: #fff;
      }

      .cls-3 {
        fill: #493838;
      }

      .cls-4 {
        fill: #5c4d4d;
      }
    </style>
    <linearGradient id="linear-gradient" x1="37.63" y1="537.59" x2="1134.76" y2="537.59" gradientUnits="userSpaceOnUse">
      <stop offset="0" stop-color="#c0a650"/>
      <stop offset="0.05" stop-color="#d2be57"/>
      <stop offset="0.11" stop-color="#e4d45e"/>
      <stop offset="0.16" stop-color="#eee262"/>
      <stop offset="0.21" stop-color="#f2e763"/>
      <stop offset="0.27" stop-color="#e6d65d"/>
      <stop offset="0.64" stop-color="#a47a3b"/>
      <stop offset="0.8" stop-color="#8a552e"/>
      <stop offset="1" stop-color="#a38b46"/>
    </linearGradient>
  </defs>
  <title>illu2 2</title>
  <g id="Layer_2" data-name="Layer 2">
    <path class="cls-1" d="M905.94,70A1277.65,1277.65,0,0,0,663.57,48.65c-33.23.25-67.9,2.2-96.81,18.6-44,25-64.16,76.75-97.78,114.58-8.48,9.53-18.59,18.61-31.09,21.12-11.25,2.26-22.78-1.11-33.78-4.37-31.56-9.38-66.89-17.88-96.21-2.91-37.34,19.06-47.77,66.24-68.89,102.45-21.95,37.63-57.43,65.07-92,91.61s-69.92,54.18-91.52,92-26.22,88.8.54,123.17c31.71,40.72,93.37,44.37,131.29,79.38,34.68,32,42.65,84.28,37.35,131.19s-21.56,92-27,138.92c-1,8.77-1.61,18,1.85,26.11,6.08,14.25,22.36,20.76,37.22,25.16,132,39.14,279.58,22.75,399.8-44.42,21.21-11.85,42.89-25.59,67.18-26.22,22.24-.57,43.89,10.09,66,7.94,15.75-1.53,30.41-9.46,46.2-10.39,11.51-.68,22.87,2.41,34,5.51,86.51,24.13,135.41,8.77,223.7-7.72,7.35-1.38,15.26-3.42,19.81-9.35,4.06-5.3,4.47-12.45,4.64-19.12,2.54-100.83,28-160.09-4.55-255.54C1081.13,610,1084.33,593.94,1056,568c-39.59-36.25,41,25.37,74-17,14-18-6-68-20-87-6.93-9.4-42.23-34-68.85-52.7a80.61,80.61,0,0,1-34.3-64.44c-1.22-69.25,26.4-99.86.15-183.86-10-32-75.84-87.88-84.93-95.51C906,54,836.36,53.69,829,63"/>
    <path class="cls-2" d="M726.5,748.5s-87.26,37.77-123.58,60.76c-14.26,9-18.38,28.42-8.25,41.93a26.55,26.55,0,0,0,10.59,8.43,22.77,22.77,0,0,1,3.8,2.12c5.23,3.64,24.06,13.07,64.14-2.34a28.38,28.38,0,0,0,4.39-2.16c11.4-6.83,66.27-39.6,88.58-50.36a29.26,29.26,0,0,0,14.68-15.82c5.14-13.46,7.56-34.12-20.35-42.56C760.5,748.5,740.5,742.5,726.5,748.5Z"/>
    <path d="M611.93,811.7c-3,5.11-10.08,20.6,4.7,31.36a18.17,18.17,0,0,1,2,1.7C621.74,847.84,637.3,858,693,831c62-30.06,86.5-48.83,80.64-69.09a14.93,14.93,0,0,0-1.63-3.65c-9.93-16-31.31-13.22-37.42-12a14.8,14.8,0,0,0-2.93.89c-12.52,5.2-112.7,47.23-118.41,61.68A21.66,21.66,0,0,1,611.93,811.7Z"/>
    <path class="cls-2" d="M647.72,844.63h0c-2.45,3-5,3.7-8.71,3a19.06,19.06,0,0,1-8.53-4l-14-11.38c-2.42-2-3.81-1.83-5-4.72-1.45-3.5-1.68-8.71.77-11.72h0c2.92-3.59,6.7-4.17,11.33-2.62a14.79,14.79,0,0,1,4.65,2.63l18,14.66C651.5,835.5,651.22,840.33,647.72,844.63Z"/>
    <path class="cls-2" d="M763.2,775.9h0c-1.85,2.27-3.83,2.74-6.75,2.12a16.2,16.2,0,0,1-6.79-3.34l-11.24-9.15a16,16,0,0,1-4.58-5.83c-1.21-2.74-1-4.73.87-7h0c2.2-2.7,5.15-3.06,8.81-1.75a12.72,12.72,0,0,1,3.72,2.15l14.47,11.78C765.94,768.92,765.84,772.65,763.2,775.9Z"/>
    <path class="cls-2" d="M661.08,797.89c-2.74,2.72-5.87,4.42-8.12,2.82s-2.27-5.44,0-8.6,5.87-4.42,8.12-2.82S664.5,794.5,661.08,797.89Z"/>
    <path class="cls-2" d="M698.76,813.91c-2.26,4.59-8.47,6.58-10.58,3.67-3.68-5.08-2.95-7.08,0-11.19s7.63-5.75,10.57-3.67S701.52,808.29,698.76,813.91Z"/>
    <path class="cls-2" d="M721.64,803.07c-3.13,3.11-6.69,5.06-9.24,3.25a6.15,6.15,0,0,1,0-9.8c3.51-2.68,6.69-5,9.25-3.25S725.53,799.2,721.64,803.07Z"/>
    <path class="cls-2" d="M744.08,791.89c-2.74,2.72-5.87,4.42-8.12,2.82s-2.27-5.44,0-8.6,5.87-4.42,8.12-2.82S747.5,788.5,744.08,791.89Z"/>
    <path class="cls-2" d="M685.08,783.89c-2.74,2.72-5.87,4.42-8.12,2.82s-3.16-6.32,0-8.6c3.58-2.61,5.87-4.42,8.12-2.82S688.5,780.5,685.08,783.89Z"/>
    <path class="cls-2" d="M708.08,772.89c-2.74,2.72-6.45,5-8.12,2.82-2.46-3.21-2.27-5.44,0-8.6s5.87-4.42,8.12-2.82S711.5,769.5,708.08,772.89Z"/>
    <path class="cls-2" d="M642.08,808.89c-2.74,2.72-5.87,4.42-8.12,2.82s-2.76-5.85,0-8.6c3.58-3.61,5.87-4.42,8.12-2.82S645.5,805.5,642.08,808.89Z"/>
    <path class="cls-2" d="M671.7,830.79c-2.91,2.74-6.32,4.35-9,2.46s-3-6.06-.67-9.31,6.32-4.34,9-2.46S675.33,827.37,671.7,830.79Z"/>
    <path class="cls-2" d="M562.91,612.6a9.4,9.4,0,0,0-2.19-3.28c2.83,13,5.57,26.62-2.72,37.68-5,8-19,16-23,7-3.81-8.57-2.18-21.68-2.88-33.28-1.42,7.66-2.83,16.71-3.62,25.78-1.52,17.44,14.22,15.33,21.91,13.29a9.12,9.12,0,0,0,5.87-4.8C567.39,632.31,565.36,618.88,562.91,612.6Z"/>
    <path d="M558,647c8.29-11.06,5.55-24.66,2.72-37.68a9.27,9.27,0,0,0-3.57-2.14L546,603.58a9.19,9.19,0,0,0-11.83,6.81c-.64,3-1.36,6.47-2.07,10.33.7,11.6-.93,24.71,2.88,33.28C539,663,553,655,558,647Z"/>
    <path d="M832.5,59.5l-78,83,13-94-138-5s-24.81,492.35-22.23,522.64a2.51,2.51,0,0,1-1.07,2.28c-6.67,4.74-36.81,26.19-38.7,28.08s21,5.54,35.43,1a.88.88,0,0,1,1,1.35l-7.41,10.7s-3,6,8,0,13-13,13-13,12.47,5.76,9.23,15.39a.33.33,0,0,0,.39.43c2.32-.68,10.85-3.11,19.38-4.82,0,0,8.41,0,9,10.85a.84.84,0,0,0,1.13.74c4.48-1.7,21.17-8.27,22.9-12.59l22-4,12.08,15.8a1.2,1.2,0,0,0,1.91,0c1.82-2.48,5.28-8.7,3-17.79l.85-10.24a.72.72,0,0,1,1.27-.4c3.88,4.64,16.81,19.64,21.88,19.64,6,0-15-29-14-37s-21-36-5-94c5-65-7-65,3-84s11-88,11-88,12-33,23-44l1.77-15.95a.75.75,0,0,0-1.26-.63l-19.26,18.39a.61.61,0,0,1-1-.51c1.43-10.75,9.43-69,15.78-76.3,7-8,108-126,126-131S832.5,59.5,832.5,59.5Z"/>
    <path class="cls-3" d="M675.5,523.5s8,77,6,88-3,47-3,47l24-2s.94-56.59,4.66-63.52a3.32,3.32,0,0,0,.38-1.48c.26-7.6,2-56,2-68C709.5,510.5,675.5,523.5,675.5,523.5Z"/>
    <path class="cls-3" d="M571.5,478.5s-24.57,35.38-29.87,101.27a4.7,4.7,0,0,1-1.35,3l-2.69,2.69a10.54,10.54,0,0,0-3.09,7.46v2.63s-8,47-6,51,9,17,24,4,5-50,5-50-1-13,9-28c0,0,33-79,40-84S571.5,478.5,571.5,478.5Z"/>
    <path class="cls-3" d="M399.5,833.5s2,44-3,55c0,0-14,11-9,24s71,0,71,0,19-11,0-18-34-2-33-11,5-60,5-60Z"/>
    <path class="cls-3" d="M442.5,834.5s26,36,28,52,8,24,23,23,68-37,68-37,9-21-15-19c0,0-43,26-56,7s-19-45-20-48S442.5,834.5,442.5,834.5Z"/>
    <path class="cls-2" d="M709.34,414.14a37.25,37.25,0,0,0,.9-14.41c-1.91-13.75-5.19-39.05-3.74-41.23,1.74-2.61,4.24-12.78,4.86-15.39l-.16-.13c-35.33,12.57-77,.89-113.14-8.22-3,24.46-6.95,56.3-7.56,58.74-1,3.86-29.94,64.67-28.29,85.92a2.6,2.6,0,0,0,2.17,2.37c8.85,1.49,46.71,9.34,65.45,36.71a2.62,2.62,0,0,1,.36,2.16l-2.69,10.09a2.63,2.63,0,0,0,2.84,3.29c13.73-1.59,60.54-6.47,77.64-1a2.61,2.61,0,0,0,3.41-2.55c-.39-15.07-1.6-67.4.11-75.94C713.26,445.7,705.73,428.39,709.34,414.14Z"/>
    <path class="cls-3" d="M574.5,283.5l.94,59.15a9.77,9.77,0,0,0,2.74,6.63c10.4,10.73,48,49.21,58.32,55.22,12,7,25,4,25,4s-64.88-68.42-63.44-73.71,4.44-38.29,4.44-38.29Z"/>
    <path class="cls-3" d="M723.5,278.5s16,66,10,77-58,28-67,25c0,0-10,9-18,2-3-5,0-7,0-7s-4-4,0-6c0,0-4-5,0-6,0,0-3-5,1-5,0,0,0-4,7-3s11,8,11,8,36-8,44-20l-13-71,21-5Z"/>
    <path class="cls-3" d="M655.5,375.5s12,256,13,259,7,0,7,0l-14-259Z"/>
    <path class="cls-3" d="M801.5,574.5s-38,8-21,64c0,0,21,40,55,18l9,10s20.39,1.85,29-20.32a2.25,2.25,0,0,0-1.78-3c-2.65-.38-6.27-1-6.27-1.65,0-1-8-12-8-12s6-26-12-46S801.5,574.5,801.5,574.5Z"/>
    <path class="cls-3" d="M842.5,670.5s-52,43-65,53-40,28-43,37c0,0-34,11-32,24s25,5,37-6,71-48,71-48l37-50Z"/>
    <path class="cls-2" d="M460.5,495.5l76,156s1,2-18,7-22-7-28-2-4,22-17,28-71,20-100,10c0,0-38,15-42-15s-12-154-21-164S460.5,495.5,460.5,495.5Z"/>
    <path class="cls-2" d="M510.5,644.5l-14,41s10,53,7,75c0,0,3.17,37.28-1.78,46.14a8.89,8.89,0,0,0-1.12,5.87c1.07,6.25,0,17.13-22.74,12.51a4.75,4.75,0,0,0-4.13,1.12c-6.32,5.73-27.76,23.89-34.68,13.19a4.58,4.58,0,0,0-5.81-1.63c-9.67,4.57-33.49,13.37-46.57-3.24a5.14,5.14,0,0,0-7.33-.79c-5,4.19-12.84,7.47-12.6-12.71a40.48,40.48,0,0,0-5.95-21.7c-7.33-11.9-18-31.59-17.29-44.76,1-20-4-60-3-72S510.5,644.5,510.5,644.5Z"/>
    <path class="cls-3" d="M325.66,619.14,278,929.21a3.38,3.38,0,0,0,2.78,3.84l5.45.91a3.24,3.24,0,0,0,3.73-2.74L333.5,619.5Z"/>
    <path class="cls-2" d="M525.5,633.5l3,13,13.59-9.59a80.09,80.09,0,0,1-7.68-11.24C529.22,629.92,525.5,633.5,525.5,633.5Z"/>
    <path d="M544.6,618.09a124.9,124.9,0,0,0-10.19,7.58,80.09,80.09,0,0,0,7.68,11.24l11.28-8C550.91,624.87,548.34,620.89,544.6,618.09Z"/>
    <path class="cls-2" d="M562.5,612.5c-4.11-2.06-11.1,1.13-17.9,5.59,3.74,2.8,6.31,6.78,8.77,10.86l9.13-6.45Z"/>
    <path class="cls-3" d="M236.5,539.5s88,66,99,65,19-2,24,5,0,23,0,23-5,3-5-9c0,0,2,18-3,16,0,0-4,0-3-12,0,0,0,14-4,14,0,0-6,6-4-16,0,0-1,20-5,17-3.29-2.47-3.87-11-4-14a.92.92,0,0,0-1-.9c-2.62.14-10.35-.42-20-10.11,0,0,0-2-15-6s-111-50-112-57c-.85-5.94,3-19,9-18S236.5,539.5,236.5,539.5Z"/>
    <path class="cls-3" d="M629.17,120.52C618,127.48,604.58,143.09,604,178c8.5,59.5,49.5,48.5,49.5,48.5s28-2,36-45c6.67-35.83-11-57.78-32.37-64.39A33.87,33.87,0,0,0,629.17,120.52Z"/>
    <path class="cls-2" d="M323.25,346.54c-1.82.3-13,2.29-17.7,6.77a9.52,9.52,0,0,1-7.42,2.76c-6.92-.62-18.52,2.82-22.33,31A9.25,9.25,0,0,1,274,391.4c-2.25,3-6.41,9-7.94,14.4a9.09,9.09,0,0,1-3.09,4.8c-1.57,1.22-3.52,3.79-4.79,9.21a9.38,9.38,0,0,1-4.15,5.77c-7.74,4.83-26,17.34-29.12,29.33a9.4,9.4,0,0,1-2.72,4.66c-13.15,11.84-77.89,70.94-70.7,79.93,8,10,49.76,13,92.63,6.06l.73-.09c5.92-.44,82.07-6.16,92.64-11S396,543,422.3,508.71a9.39,9.39,0,0,1,10.89-3c7.51,3,19.87,5.93,29.15-1.2a9.36,9.36,0,0,1,5.53-2c1.95,0,4.05-2.66,1.73-16.41a8.8,8.8,0,0,0-.26-1.13c-1.42-4.73-11.48-39.09-9.92-58a34.06,34.06,0,0,0-4.43-20.1c-9.54-16.25-27.7-44-41.74-46.19a8.72,8.72,0,0,1-3.76-1.62c-6-4.37-23.74-17-32-19.52-9.53-2.86-49.95,6.09-53.72,6.94Z"/>
    <path class="cls-3" d="M378.72,245.35c-17.53-1.73-59.29-.69-67.91,46.36a18.32,18.32,0,0,0-.28,3.77c.2,8.45,1.71,41.51,13.28,52.68a19.1,19.1,0,0,1,5.69,13.76v17.26c0,4.11,4.59,7,7,10.32l17,16c6.06,8.36,11.3,11.57,20,6h0c5.88-3.76,7.33-6,7-13l-2-18c-.2-4.16-1.48-11.16,1-14,1.91-2.19,7.18-2.47,10-4,8.15-4.43,21.1-13.53,24-42,0,0,3.53-37.91-21.7-68.2A19.5,19.5,0,0,0,378.72,245.35Z"/>
    <path class="cls-3" d="M650.32,395.92s6.09-3.3,12.5-.88,4.89,5.32,4.89,5.32c3.45,1.8-1,4.09-1,4.09,3.07,2.52-2.27,4.36-2.27,4.36,2.68,3.25-2.28,4.36-2.28,4.36s1.83,2.8-2.65,5.09c-9.54,1.5-14.75-9.53-14.75-9.53-2.25-.47-6.79-2.88-11.73-6.73,2.58-4.35,7.26-8.41,12-11C647.88,393.46,650.32,395.92,650.32,395.92Z"/>
    <path class="cls-2" d="M844.5,666.5s-33.06,26.25-37.82,61.5a3.57,3.57,0,0,1-1.33,2.36c-3.24,2.54-12.39,10.5-14.85,21.14-3,13,3,79,30,132a49.93,49.93,0,0,0,41.22,22,2.18,2.18,0,0,1,1.34.49c2.62,2.1,13.91,10,24.44-.48l15-4s39.75,5.82,58.15-4.5a.88.88,0,0,1,1.23.36,7,7,0,0,0,7.62,4.14c6-1,11-3,15-7s24-3,31-21c0,0,14-6,12-40,0,0,6.94-76.37-32.51-116.5a3.25,3.25,0,0,1-.72-1.14c-2-5.4-16.35-43.58-36.77-59.36,0,0-28.27-40-40.53-41.94a1.1,1.1,0,0,1-.72-.44c-1.15-1.72-6.25-8.54-12.87-6a1.07,1.07,0,0,1-1.32-.47c-1.61-2.88-7.73-11.44-19.56-2.14a9.93,9.93,0,0,0-5.17,11.64,2.94,2.94,0,0,1-2.37,3.6c-4.26.72-10.79,3.38-10.5,13a2.68,2.68,0,0,0,.48,1.41c1.44,2.09,6,9.13,6.73,15.18C872.5,657.5,844.5,666.5,844.5,666.5Z"/>
    <path class="cls-2" d="M711.38,342.92a2.69,2.69,0,0,0,0-1c-.62-2.5-3-12.07-3.85-16.4-1-5,3-14-1-19-3.81-4.77,3.28-15.89-2.11-24.72a2.63,2.63,0,0,1,0-2.77c2.7-4.31,11.27-15.6,19.49-1a2.63,2.63,0,0,0,4.79-2.11l-.15-.42c-5-13.94-14.92-32.85-47.6-34a2.54,2.54,0,0,1-.82-.16c-1.91-.75-9.58-4.46-9.58-15.85,0-8-.39-8.46-.7-7.65a2.6,2.6,0,0,1-2.3,1.66l-38.63,2.1a2.6,2.6,0,0,0-2.45,2.26c-.48,3.4-2.73,9.63-12.92,9.63-14,0-30,5-38,20-6.33,11.86-6.4,24.35-6.15,29.06a2.61,2.61,0,0,0,1.94,2.39c6.57,1.75,29,8.63,30.19,21.26a3.62,3.62,0,0,1,0,.57c-.24,1.92-1.66,13.69-3.41,28C634.31,343.89,676,355.59,711.38,342.92Z"/>
    <g>
      <path class="cls-3" d="M670.57,224.34c-.11-5.24.43-12.38.43-15.34,0-5-44,2-44,2a74.27,74.27,0,0,1-1.13,13.25C640.17,233.4,657,233.62,670.57,224.34Z"/>
      <path class="cls-3" d="M625.87,224.25c-.54,2.52-1.35,4.58-2.53,5.26-4.34,2.49,13.34,3.14,22.1,12.59a2.34,2.34,0,0,0,3.35.08c2.9-2.77,9-7.92,15.68-9.81.84-.24,6.74-2.52,6.53-3.37a24,24,0,0,1-.43-4.66C657,233.62,640.17,233.4,625.87,224.25Z"/>
    </g>
    <path d="M635.73,235.16a37.12,37.12,0,0,1,8.55,5.33,47.63,47.63,0,0,1,12.59,15.74,37.51,37.51,0,0,1,3.32,9.52c-1.8-2.85-3.52-5.64-5.34-8.35s-3.75-5.31-5.77-7.84-4.16-5-6.38-7.36S638.12,237.53,635.73,235.16Z"/>
    <path d="M695.29,260.77a44.35,44.35,0,0,1,8.83,18.31.6.6,0,0,1-.45.71.58.58,0,0,1-.55-.16l0,0A11,11,0,0,0,692,277.1l.47-1.37a68.69,68.69,0,0,0,8.59,10,1.17,1.17,0,0,1,0,1.67,1.11,1.11,0,0,1-.45.3l-.05,0-5.17,1.81.7-1.93a8.54,8.54,0,0,1,1.27,4.8,11.4,11.4,0,0,1-1.18,4.67,21.68,21.68,0,0,1-5.94,6.82,89.32,89.32,0,0,1-14.33,9.63A92.2,92.2,0,0,1,660,320.33,88.83,88.83,0,0,1,643,324l-.18-4.37a176.51,176.51,0,0,0,52.38-7.08,2.45,2.45,0,0,1,2.44,4.07v0a70.25,70.25,0,0,1-16.1,12.06,94.78,94.78,0,0,1-18.46,7.63,142.45,142.45,0,0,1-19.35,4.22c-6.51,1-13,1.59-19.53,2.11l.14-4.49c6.07,1,12.09,1.91,18.12,2.54a115.13,115.13,0,0,0,18.07.68,67.86,67.86,0,0,0,17.61-3.14,47.41,47.41,0,0,0,15.66-8.34l0,0a1.35,1.35,0,0,1,1.91.19,1.33,1.33,0,0,1,.3,1,11.27,11.27,0,0,1-2.37,5.69,15.1,15.1,0,0,1-4.51,3.89c-3.42,2-7.18,2.75-10.76,3.52l.2-1.72c2.18,1.22,4.93,1,7.55.3s5.28-1.67,8.11-2.14a4.79,4.79,0,0,1,2.29,0,1.84,1.84,0,0,1,1.06.81,2.27,2.27,0,0,1,.25,1.24,5,5,0,0,0,0,1.95A2.53,2.53,0,0,0,699,346a3.82,3.82,0,0,0,1.88.49,4.6,4.6,0,0,0,1.93-.52,13.05,13.05,0,0,0,3.21-2.6,13.07,13.07,0,0,1-3.09,2.84,4.88,4.88,0,0,1-2,.68,4.31,4.31,0,0,1-2.14-.43,3.07,3.07,0,0,1-1.57-1.62,5.61,5.61,0,0,1-.12-2.2,1,1,0,0,0-.77-1.16,4,4,0,0,0-1.84.14c-2.66.58-5.2,1.71-7.92,2.54a17.64,17.64,0,0,1-4.28.82,9.23,9.23,0,0,1-4.48-.88.92.92,0,0,1-.42-1.22.88.88,0,0,1,.59-.48h0c3.54-.91,7.07-1.85,10-3.71a13.32,13.32,0,0,0,3.66-3.43,8.75,8.75,0,0,0,1.69-4.42L695.6,332a50.52,50.52,0,0,1-16.34,9.43,70.84,70.84,0,0,1-18.46,3.79,115.77,115.77,0,0,1-18.72-.27c-6.19-.55-12.31-1.43-18.38-2.3a2.27,2.27,0,0,1,.11-4.5h0c6.44-.61,12.85-1.33,19.18-2.34a136.45,136.45,0,0,0,18.68-4.17,90.11,90.11,0,0,0,17.46-7.3,66.58,66.58,0,0,0,15-11.16l2.44,4.08A170.11,170.11,0,0,1,642.75,324h0a2.19,2.19,0,0,1-.16-4.37,91.63,91.63,0,0,0,16.22-3.2,88.73,88.73,0,0,0,15.4-6.13,91.68,91.68,0,0,0,14-8.87,18.81,18.81,0,0,0,5.35-5.65c1.15-2.12,1.43-4.84.27-6.77l0,0a1.28,1.28,0,0,1,.44-1.76,1.75,1.75,0,0,1,.28-.13l5.23-1.62-.47,2a70.59,70.59,0,0,1-8.4-10.72l0,0a.89.89,0,0,1,.27-1.24.88.88,0,0,1,.22-.1A12.32,12.32,0,0,1,704,278.79l-1,.52A45.09,45.09,0,0,0,695.29,260.77Z"/>
    <path d="M608.94,242.48c-3.28,2-7.52,1.49-10.7,2.86a6.46,6.46,0,0,0-3.63,3.15,3.5,3.5,0,0,0-.14,2.12,5.11,5.11,0,0,0,1.07,2,23.39,23.39,0,0,0,4,3.45l4.49,3.34c3,2.22,6,4.43,9,6.58s6.06,4.34,9.13,6.47,6.14,4.21,9.21,6.38a71.35,71.35,0,0,1,8.89,7.06,28.68,28.68,0,0,1,6.58,9.19,33.83,33.83,0,0,0-7.55-8.09,95.55,95.55,0,0,0-9.2-6.21c-3.2-1.91-6.38-3.94-9.53-6s-6.22-4.21-9.28-6.38-6.05-4.45-9-6.77l-4.39-3.53a21.53,21.53,0,0,1-4.25-4.1,7.31,7.31,0,0,1-1.33-3,5.33,5.33,0,0,1,.49-3.36,8,8,0,0,1,4.9-3.71C601.65,242.84,605.39,243.9,608.94,242.48Z"/>
    <path d="M586.51,241.21a81.27,81.27,0,0,0-2,12.06,25.87,25.87,0,0,0,.3,5.85,18.49,18.49,0,0,0,1.69,5.45c1.59,3.43,4.55,5.89,8,8.05,1.71,1.09,3.49,2.16,5.2,3.39a20.44,20.44,0,0,1,4.57,4.33c-3.38-2.47-7.17-3.8-10.93-5.69a25.44,25.44,0,0,1-5.45-3.47,12,12,0,0,1-1.22-1.15,15,15,0,0,1-1.11-1.28,16.43,16.43,0,0,1-1.77-2.87A21.72,21.72,0,0,1,582.2,253,36.63,36.63,0,0,1,586.51,241.21Z"/>
    <path d="M595.12,290.12a38.24,38.24,0,0,1,8.7,5.3,40.86,40.86,0,0,1,7.12,7.39,41.6,41.6,0,0,1,5.11,9,39.82,39.82,0,0,1,2.71,10,1,1,0,0,1-.83,1.08,1,1,0,0,1-.8-.26l-5.63-5.45,1.68-.63-.69,7.56a4.22,4.22,0,0,1-.26,1.18,2.31,2.31,0,0,1-1,1.2,3.57,3.57,0,0,1-1.23.38c-.35.05-.68.09-1,.11a11.61,11.61,0,0,1-4.06-.49l1.07-1.33c2.77,5.24,5.51,10.49,9.2,15.06a35.61,35.61,0,0,0,6.26,6.13,25.23,25.23,0,0,0,7.83,4,23.54,23.54,0,0,1-8.25-3.44,33.08,33.08,0,0,1-6.81-5.91,55.68,55.68,0,0,1-5.37-7.25c-1.61-2.53-3-5.15-4.49-7.75a.91.91,0,0,1,.36-1.25.89.89,0,0,1,.69-.09h0a10.38,10.38,0,0,0,3.42.35,4.38,4.38,0,0,0,1.43-.26.34.34,0,0,0,.17-.22,2.29,2.29,0,0,0,.12-.66l.66-7.54a1,1,0,0,1,1.68-.63l5.6,5.49-1.63.82a40.83,40.83,0,0,0-2.41-9.6,42.71,42.71,0,0,0-4.62-8.8,44.53,44.53,0,0,0-6.53-7.59A42.76,42.76,0,0,0,595.12,290.12Z"/>
    <path d="M645.8,419.12a75.73,75.73,0,0,1,3.61,12.52q.66,3.21,1,6.47c.25,2.18.44,4.36.53,6.56l-3.17-1a80.72,80.72,0,0,1,7.84-10.59,2.17,2.17,0,0,1,3.74,1.89l0,.11q-2.31,10.71-4.86,21.35c-1.7,7.09-3.44,14.21-5.64,21.25a165.38,165.38,0,0,1-8,20.62,140.44,140.44,0,0,1-10.77,19.2c2.83-6.77,5.48-13.54,7.91-20.37s4.54-13.75,6.39-20.73,3.5-14.05,5.23-21.15,3.56-14.15,5.46-21.2l3.71,2a87.92,87.92,0,0,0-8.16,9.56l-.08.11a1.71,1.71,0,0,1-3.08-1.09c.09-2.11.15-4.23.11-6.36s-.12-4.25-.26-6.38Q646.9,425.52,645.8,419.12Z"/>
    <path class="cls-2" d="M531.5,606.5S559,634,561,643l-5,9-26.5-35.5Z"/>
    <path class="cls-4" d="M598.09,334.85a8.84,8.84,0,0,0-7.11,3.83"/>
    <path d="M878.29,620.6a49.75,49.75,0,0,1,8,22,54.35,54.35,0,0,1,.28,6,30.89,30.89,0,0,1-.68,6.1,20.73,20.73,0,0,1-2.22,5.93,14.08,14.08,0,0,1-4.54,4.91,14.44,14.44,0,0,1-6.39,2.16c-2.14.24-4.16.2-6,.27-.93,0-1.83.07-2.68.18a9.4,9.4,0,0,0-1.22.22l-.6.13-.58.19a14.14,14.14,0,0,0-4.34,2.29,15.46,15.46,0,0,0-5.42,8,12.34,12.34,0,0,0-.39,4.66,11.64,11.64,0,0,0,1.45,4.36,14,14,0,0,0,7,6.13,11.89,11.89,0,0,0,4.46.85,10.22,10.22,0,0,0,2.2-.24,14.37,14.37,0,0,0,2.2-.69,20.82,20.82,0,0,0,7.76-6.19,70.1,70.1,0,0,0,6.19-9.21,111.09,111.09,0,0,0,9.59-20.41,59.37,59.37,0,0,0,3.25-21.69v-.11a3.28,3.28,0,0,1,6.54-.42,255.58,255.58,0,0,1,1.31,27.23c-.27,9.16-1.41,18.48-4.68,27.26a54.64,54.64,0,0,1-15.56,22.76,39,39,0,0,1-11.91,6.92l-1.62.57-1.66.43a13.39,13.39,0,0,1-3.41.59,8.71,8.71,0,0,1-3.43-.49,3.77,3.77,0,0,1-2.35-2.37,3.64,3.64,0,0,0,2.48,2,8,8,0,0,0,3.23.1,13.78,13.78,0,0,0,3.15-.91l1.55-.56,1.5-.7a39.75,39.75,0,0,0,10.69-7.53A49.05,49.05,0,0,0,889.32,701a56.41,56.41,0,0,0,5.19-11.9,73.68,73.68,0,0,0,2.59-12.73,102.22,102.22,0,0,0,.56-13.11c-.12-8.79-1-17.63-2-26.55l6.54-.53a63.18,63.18,0,0,1-3.28,24.25,105.93,105.93,0,0,1-10.15,21.8,75.29,75.29,0,0,1-6.92,10.07,27.56,27.56,0,0,1-10.46,8,18.93,18.93,0,0,1-3.37,1,16.68,16.68,0,0,1-3.6.31,18.43,18.43,0,0,1-6.89-1.5,20.27,20.27,0,0,1-10-9.18,17.84,17.84,0,0,1-2-6.7,17.28,17.28,0,0,1,.8-6.88,21,21,0,0,1,7.86-10.66,19.25,19.25,0,0,1,6.06-2.85c.27-.08.54-.16.82-.22l.84-.15a13.74,13.74,0,0,1,1.66-.22,30.47,30.47,0,0,1,3.15-.07c2,.06,3.9.2,5.64.11a10.3,10.3,0,0,0,4.66-1.23c2.81-1.52,4.64-4.76,5.71-8.21a35.79,35.79,0,0,0,1.21-11.1A52.68,52.68,0,0,0,878.29,620.6Z"/>
    <path d="M898.15,605.34a87.33,87.33,0,0,1,8.68,17.9A132.37,132.37,0,0,1,912,642.53c1.33,6.53,2.17,13.12,2.94,19.71a117.45,117.45,0,0,1,.68,20.15c-.12,1.7-.33,3.4-.58,5.09s-.68,3.38-1,5.06a21.26,21.26,0,0,1-.67,2.49l-.76,2.46c-.55,1.63-1.23,3.21-1.88,4.8a61.64,61.64,0,0,1-27.51,29.08,53.28,53.28,0,0,1-19.06,5.8,64.34,64.34,0,0,0,32.27-20.58,61.78,61.78,0,0,0,10-16.18A56.84,56.84,0,0,0,910.67,682a118.22,118.22,0,0,0-.39-19.34c-.49-6.54-1.22-13-2.07-19.52C906.39,630.25,903.48,617.46,898.15,605.34Z"/>
    <path d="M913.08,611.64a67.55,67.55,0,0,1,7,19.46,117.58,117.58,0,0,1,2.19,20.64,106.8,106.8,0,0,1-1.12,20.74,49.88,49.88,0,0,1-2.8,10,35.6,35.6,0,0,1-5.23,9c3.74-5.82,5.58-12.51,6.49-19.23a96,96,0,0,0,.72-10.19c.08-3.41,0-6.83-.06-10.26a149.72,149.72,0,0,0-1.72-20.41A87.62,87.62,0,0,0,913.08,611.64Z"/>
    <path d="M881,745.18a12.56,12.56,0,0,0-7,3.06,15.4,15.4,0,0,0-4.16,6,17.06,17.06,0,0,0-1,7,25.11,25.11,0,0,0,1.55,7c1.68,4.55,4.53,8.7,7.65,12.85,1.57,2.08,3.19,4.19,4.8,6.39s3.12,4.43,4.6,6.7a142.48,142.48,0,0,1,14.42,29c.93,2.54,1.75,5.12,2.52,7.7a68.59,68.59,0,0,1,2,8c.41,2.8.41,6-1.08,8.61a9.23,9.23,0,0,1-2.91,3.2,6.06,6.06,0,0,1-4,1,5.85,5.85,0,0,0,3.31-1.83,7.8,7.8,0,0,0,1.8-3.15,12,12,0,0,0-.5-7.07c-.76-2.34-1.91-4.77-2.93-7.18s-2.14-4.8-3.28-7.16a240,240,0,0,0-15.22-27.37c-2.81-4.43-5.81-8.56-8.91-13s-6-9.41-7.5-15.07a27.28,27.28,0,0,1-.89-8.69,19.61,19.61,0,0,1,2.49-8.46,16.61,16.61,0,0,1,6.13-6,14.1,14.1,0,0,1,4-1.45A11.25,11.25,0,0,1,881,745.18Z"/>
    <path d="M845.8,748.36a24.58,24.58,0,0,0-9.38,6.29,32.16,32.16,0,0,0-6.07,9.41,41.45,41.45,0,0,0-2.88,10.8,74,74,0,0,0-.56,11.25c.18,7.56.93,15.18,1.85,22.72s2.22,15,3.85,22.45a89.57,89.57,0,0,0,2.77,10.77,19.62,19.62,0,0,0,2.29,4.5,14.76,14.76,0,0,0,3.4,3.43,21.8,21.8,0,0,0,9.41,3.62,32.71,32.71,0,0,0,5.25.42,9.34,9.34,0,0,0,2.18-.15,1.67,1.67,0,0,0,.6-.24c.07-.06.17-.09.24-.15a1,1,0,0,1,.19-.17,2.34,2.34,0,0,0,.5-1.14,6.64,6.64,0,0,0,0-2,18,18,0,0,0-1.31-4.7L857,842.94c-.39-.9-.79-1.79-1.17-2.69-.77-1.8-1.48-3.65-2.16-5.5a63,63,0,0,1-3.06-11.63,42.68,42.68,0,0,1-.24-12.32,2.93,2.93,0,0,1,5.45-1.07c2.68,4.69,5.37,9.34,8.22,13.86a152.13,152.13,0,0,0,9,13.1,81.73,81.73,0,0,0,10.73,11.48,57.21,57.21,0,0,0,12.89,8.66l-3.26,2.25c-.29-6.24-2.45-12.34-5.33-18.12A181.77,181.77,0,0,0,878,824.08c-3.57-5.6-7.22-11.27-9.91-17.45a49.24,49.24,0,0,1-3.13-9.58,35.59,35.59,0,0,1-.64-10c0,6.68,2.19,13.06,5.23,18.85a134,134,0,0,0,10.82,16.52,172.51,172.51,0,0,1,11.2,16.71,48.31,48.31,0,0,1,6.53,19.6,2.26,2.26,0,0,1-2.08,2.46,2.14,2.14,0,0,1-1.1-.18l-.08,0a60.36,60.36,0,0,1-14.28-8.94,88.54,88.54,0,0,1-11.67-12,146,146,0,0,1-9.66-13.43c-3-4.62-5.71-9.32-8.44-14l5.46-1.07c-.91,7,.65,14.2,3.11,21.16.63,1.75,1.28,3.49,2,5.22.35.86.73,1.72,1.1,2.59l1.18,2.69a23.43,23.43,0,0,1,1.69,6.36,12.64,12.64,0,0,1-.15,3.75,8.06,8.06,0,0,1-2,4c-.29.27-.59.53-.89.79a11,11,0,0,1-1,.61,7.31,7.31,0,0,1-2.08.8,14.45,14.45,0,0,1-3.54.29,37.85,37.85,0,0,1-6.18-.55,27.24,27.24,0,0,1-11.73-4.87,20.16,20.16,0,0,1-4.56-4.79,24.94,24.94,0,0,1-2.8-5.77,49.46,49.46,0,0,1-1.58-5.85c-.41-1.91-.8-3.79-1.15-5.7a233.06,233.06,0,0,1-4-46.18c.22-7.74,1.39-15.73,5-22.81a33.44,33.44,0,0,1,7-9.34A24.75,24.75,0,0,1,845.8,748.36Z"/>
    <path d="M1009.75,772.21c.18,9.25.64,18.38,1.67,27.43.55,4.53,1.19,9,2,13.51s1.53,9.09,2.05,13.76a71.72,71.72,0,0,1,.27,14.22,42.91,42.91,0,0,1-3.54,14,32.44,32.44,0,0,1-3.71,6.27c-.73,1-1.45,1.79-2.05,2.67a7.25,7.25,0,0,0-1.25,2.59,3.25,3.25,0,0,0,.43,2.5,4.57,4.57,0,0,0,2.33,1.69,17.06,17.06,0,0,0,6.66.71,15.19,15.19,0,0,1-7,.62,5.9,5.9,0,0,1-3.47-1.82,5.39,5.39,0,0,1-1.36-4,9.47,9.47,0,0,1,1.23-3.79c.58-1.1,1.25-2.1,1.81-3.05a32.28,32.28,0,0,0,2.79-5.88,46.17,46.17,0,0,0,2.43-12.86,82,82,0,0,0-.51-13.34c-.47-4.49-1.18-9-1.76-13.59a134.65,134.65,0,0,1-1.16-13.92A116.93,116.93,0,0,1,1009.75,772.21Z"/>
    <path d="M944.51,658A172.48,172.48,0,0,0,955.4,676.3c3.89,5.85,8,11.62,11.84,17.75A96,96,0,0,1,977,713.79c2.38,7,3.65,14.71,2.3,22a94.82,94.82,0,0,0-8.08-19.51c-3.27-6.1-7-12-10.77-18a161.39,161.39,0,0,1-10.55-19C946.91,672.64,944.6,665.38,944.51,658Z"/>
    <path d="M881.76,874.21a45.93,45.93,0,0,0,4.74,10.34,38.7,38.7,0,0,0,3.3,4.49,33.5,33.5,0,0,0,3.87,3.94,38.35,38.35,0,0,0,9.3,6,46.15,46.15,0,0,0,10.88,3.33,26.32,26.32,0,0,1-11.72-1.14,29.81,29.81,0,0,1-10.43-5.91,32.5,32.5,0,0,1-4.12-4.42,30.29,30.29,0,0,1-3.12-5.13A26.24,26.24,0,0,1,881.76,874.21Z"/>
    <path d="M808,725.48c.27,2.54.38,5,.57,7.43s.36,4.84.59,7.25.51,4.81.82,7.23.65,4.86.87,7.4a27.58,27.58,0,0,1-3.17-6.89,37.3,37.3,0,0,1-1.46-15A27.63,27.63,0,0,1,808,725.48Z"/>
    <path d="M324.86,364.54a62,62,0,0,0,3.43,28.6,120.72,120.72,0,0,0,22.08,36.73,35.81,35.81,0,0,0,5,4.5,21.84,21.84,0,0,0,5.6,3c3.84,1.29,8.35,1.25,11.67-.49a9.57,9.57,0,0,0,2.24-1.54l.47-.46c.16-.15.28-.34.43-.5a9.86,9.86,0,0,0,.84-1.18,27.46,27.46,0,0,1,2.34-3.44,10.16,10.16,0,0,1,2.06-1.87,9.69,9.69,0,0,1,2.71-1.24,9.49,9.49,0,0,1,5.7.33,15.35,15.35,0,0,1,4.14,2.39,27.78,27.78,0,0,1,5.62,6.22l8.21,12.23c2.71,4.1,5.45,8.14,8.13,12.31a112.26,112.26,0,0,1,7.5,13.07,61.49,61.49,0,0,1,2.92,7.1,42.41,42.41,0,0,1,1.87,7.52,35.11,35.11,0,0,1,.38,7.82,28,28,0,0,1-1.62,7.67A29.85,29.85,0,0,1,423,510.2a24.78,24.78,0,0,1-5.23,5.63,20.38,20.38,0,0,1-6.7,3.58,17.64,17.64,0,0,1-7.42.48,17.84,17.84,0,0,0,7.05-1.48,19,19,0,0,0,5.79-4,24.75,24.75,0,0,0,4.21-5.61,27.32,27.32,0,0,0,2.59-20.06,50.41,50.41,0,0,0-5.14-13c-1.13-2.08-2.38-4.11-3.7-6.11s-2.66-4-4.06-6l-8.49-12-8.44-12.07a21.16,21.16,0,0,0-4.21-4.66,8.62,8.62,0,0,0-2.2-1.29,2.43,2.43,0,0,0-1.53-.13,2.34,2.34,0,0,0-.62.27,3.07,3.07,0,0,0-.66.6A24.66,24.66,0,0,0,382.5,437a13.85,13.85,0,0,1-1.31,1.81c-.25.3-.49.61-.77.9l-.84.81a15.86,15.86,0,0,1-3.83,2.59,20.12,20.12,0,0,1-8.57,2,23.3,23.3,0,0,1-8.43-1.44A32.88,32.88,0,0,1,345.8,434a94,94,0,0,1-8.74-12.41A115.3,115.3,0,0,1,330,408.31a91.49,91.49,0,0,1-5-14.19,66.33,66.33,0,0,1-2-14.87A50.44,50.44,0,0,1,324.86,364.54Z"/>
    <path d="M311.61,374a104.33,104.33,0,0,0,1.81,12.4,97.5,97.5,0,0,0,3.32,12l1.07,2.9,1.17,2.86,1.24,2.82,1.33,2.78a97,97,0,0,0,6.26,10.55,2.19,2.19,0,0,1-2.92,3.13l-.06,0a22.77,22.77,0,0,0-12-3l2-3.69c2.21,3.18,4.37,6.37,6.61,9.54s4.53,6.35,6.89,9.41,4.8,6,7.36,8.87a70.36,70.36,0,0,0,8.22,7.89,46.87,46.87,0,0,0,20.05,10c7.47,1.64,15.37,1.65,23.21,1.86-7.76,1.06-15.67,1.9-23.69.87a42.65,42.65,0,0,1-11.71-3.22,52.87,52.87,0,0,1-10.51-6.15,91.25,91.25,0,0,1-16.81-17.15c-2.44-3.13-4.81-6.3-7.05-9.53s-4.44-6.58-6.66-9.86a2.37,2.37,0,0,1,1.93-3.69h.07a26.46,26.46,0,0,1,14.34,4.07l-3,3.1a78.79,78.79,0,0,1-6-11.38l-1.22-3-1.11-3-1-3.06-.86-3.08a80.08,80.08,0,0,1-2.22-12.55A75.31,75.31,0,0,1,311.61,374Z"/>
    <path d="M401,393.15a34.62,34.62,0,0,0-1.3,13.47,31.91,31.91,0,0,0,3.88,12.4,28.63,28.63,0,0,0,3.8,5.23c1.48,1.64,3.21,3.22,4.8,5.08a16.74,16.74,0,0,1,3.67,6.5,10.51,10.51,0,0,1,.31,3.74,7,7,0,0,1-1.25,3.4,8.93,8.93,0,0,0-.91-6.45,16.82,16.82,0,0,0-4.08-5c-1.65-1.49-3.49-2.91-5.26-4.62a26.74,26.74,0,0,1-4.56-5.91,27.68,27.68,0,0,1-3.53-14.26A23.76,23.76,0,0,1,401,393.15Z"/>
    <path d="M433.1,424.23c2.16,6.2,4.15,12.32,6.42,18.32s4.64,11.93,7.25,17.75,5.44,11.52,8.45,17.22c1.5,2.86,3,5.81,4.27,8.84a39.27,39.27,0,0,1,2.75,9.5c-2.93-5.87-6.72-10.94-10.4-16.32a111.07,111.07,0,0,1-16.07-35.84A89,89,0,0,1,433.1,424.23Z"/>
    <path d="M260.52,411.91a13.54,13.54,0,0,1,6.89-5,14.39,14.39,0,0,1,2.15-.54,5.55,5.55,0,0,1,1.32-.12,3.65,3.65,0,0,1,1.88.55,3.17,3.17,0,0,1,1.37,2,5,5,0,0,1,.06,1.7c-.06.45-.13.76-.17,1s-.08.58-.1.87a9.46,9.46,0,0,0,1.24,6.28,6.27,6.27,0,0,0,2.51,2.09,5.4,5.4,0,0,0,3.68.39,5,5,0,0,1-4.11,1.52,7.22,7.22,0,0,1-4.38-1.85,9,9,0,0,1-2.53-4.17,12.49,12.49,0,0,1-.39-4.65c0-.38.09-.76.16-1.13l.19-1c0-.22,0-.36.06-.31a.64.64,0,0,0,.29.34c.14.07.12,0,0,0a2.51,2.51,0,0,0-.68,0c-.61,0-1.22,0-1.84.1A28.69,28.69,0,0,0,260.52,411.91Z"/>
    <path d="M271.48,395.55a14.68,14.68,0,0,1,2-4.52,18.84,18.84,0,0,1,7.33-6.58,14.26,14.26,0,0,1,4.71-1.5c-1.34,1-2.63,1.87-3.88,2.82s-2.44,1.94-3.59,3-2.27,2.11-3.35,3.25S272.6,394.32,271.48,395.55Z"/>
    <path d="M458.41,505.88a8.67,8.67,0,0,1-5.08,1.9,14.83,14.83,0,0,1-5.51-.79,32.87,32.87,0,0,1-9.22-5.2,92.21,92.21,0,0,1-7.77-6.5,54.91,54.91,0,0,1-6.9-7.64,54.35,54.35,0,0,1,9.26,4.5,90.67,90.67,0,0,1,8.41,5.64,90,90,0,0,0,7.81,5.62C452.07,505,454.86,506.21,458.41,505.88Z"/>
    <path d="M323.8,353.7a30.54,30.54,0,0,1,5.93,9c1.51,3.29,2.63,6.68,3.79,9.93.57,1.63,1.15,3.22,1.77,4.77s1.25,3.07,2,4.54a65.7,65.7,0,0,0,4.91,8.59,77.39,77.39,0,0,0,13,15,88.42,88.42,0,0,0,8,6.33c2.8,2,5.78,3.74,8.87,5.57a36.4,36.4,0,0,1-5.29-.94,42.44,42.44,0,0,1-5.18-1.59,51.27,51.27,0,0,1-9.71-5,54.85,54.85,0,0,1-15.51-15.52c-1.05-1.52-1.92-3.16-2.84-4.76s-1.66-3.31-2.29-5.05a54.06,54.06,0,0,1-3-10.54C326.88,367.07,326.37,360.38,323.8,353.7Z"/>
    <path d="M335.17,657c.9,4.26,1.51,8.54,2.51,12.64a38,38,0,0,0,4.58,11.5,22,22,0,0,0,8.68,8.22,40.89,40.89,0,0,0,5.93,2.12,17.18,17.18,0,0,1,5.89,2.91c-4-1.74-8.33-1.24-12.73-2.87a19,19,0,0,1-5.9-3.55,24,24,0,0,1-4.41-5.24,30.05,30.05,0,0,1-2.86-6.14,37.08,37.08,0,0,1-1.47-6.51A60.91,60.91,0,0,1,335.17,657Z"/>
    <path d="M352,675.12a20.33,20.33,0,0,1,4.23,1,31,31,0,0,1,4,1.79c2.58,1.38,4.95,3.06,7.31,4.63a53,53,0,0,0,7.1,4.26,43,43,0,0,0,7.6,2.8,60.23,60.23,0,0,0,8,1.48q4.1.44,8.24.51c5.55.08,11.15-.2,16.82-.53l-2.63,4.07-3.21-8.42,0,0a3,3,0,0,1,4.6-3.38,33.32,33.32,0,0,0,12.65,5.9A69.45,69.45,0,0,0,441.29,691c5,.17,10.12.06,15.27.21a72.55,72.55,0,0,1,15.34,1.71,120.57,120.57,0,0,0-15.23.94c-5.05.58-10.13,1.25-15.33,1.52a63.63,63.63,0,0,1-15.83-.93,42.42,42.42,0,0,1-7.83-2.36,34.05,34.05,0,0,1-7.26-4.15l4.59-3.41,3.26,8.39a3,3,0,0,1-1.7,3.87,3.1,3.1,0,0,1-.93.2,164.2,164.2,0,0,1-17.35.2,79.54,79.54,0,0,1-8.79-1,56.86,56.86,0,0,1-8.65-2.21,42.07,42.07,0,0,1-8.1-3.86,47.66,47.66,0,0,1-7-5.37c-2.13-1.93-4.21-3.82-6.41-5.55A25.55,25.55,0,0,0,352,675.12Z"/>
    <path d="M502.34,648.06a59.33,59.33,0,0,1,1.4,17.18,74.67,74.67,0,0,1-9.92,33,59.18,59.18,0,0,1-10.66,13.55c2.55-5.15,5-10.18,7.14-15.31a155.32,155.32,0,0,0,5.62-15.6,153.61,153.61,0,0,0,3.93-16.1C500.9,659.31,501.63,653.76,502.34,648.06Z"/>
    <path d="M354.26,764.4c2.35,4.85,4.6,9.75,6.54,14.82,1,2.54,1.86,5.11,2.63,7.74s1.41,5.27,2,7.93,1.13,5.31,1.62,8l1.43,7.92c.51,2.61,1,5.22,1.62,7.78s1.21,5.1,2,7.57a74.22,74.22,0,0,0,2.59,7.25,4.76,4.76,0,0,0,.54,1.1c.11.11-.1-.15-.26-.16s-.11,0,0-.07a1.24,1.24,0,0,0,.41-.29l.12-.16c.06-.12.12-.25.18-.4a5.34,5.34,0,0,0,.26-1.15,32.19,32.19,0,0,0,.09-3.57v-8.06c0-10.75.15-21.49.4-32.24v-.1a3.22,3.22,0,0,1,4.6-2.82,11.76,11.76,0,0,1,4.48,3.87,17.2,17.2,0,0,1,2.24,4.78,47.86,47.86,0,0,1,1.57,9.07c.63,5.77,1.36,11.52,1.91,17.3.3,2.9.54,5.77,1,8.52a26.89,26.89,0,0,0,2.32,7.88,14,14,0,0,0,5.41,5.92,11.74,11.74,0,0,0,3.86,1.47,9.08,9.08,0,0,0,4.23-.22,10.34,10.34,0,0,1-8.72,0,15.27,15.27,0,0,1-7-5.9,28.68,28.68,0,0,1-3.58-8.41c-.76-2.92-1.26-5.81-1.83-8.64-1.14-5.69-2.1-11.41-3.16-17.12a51.31,51.31,0,0,0-1.81-8,10.85,10.85,0,0,0-1.56-3,5.28,5.28,0,0,0-2.07-1.69l4.6-2.93c.15,10.75.16,21.49.1,32.24L383,828.7a33.87,33.87,0,0,1-.23,4.48,11.73,11.73,0,0,1-.72,2.74,8.38,8.38,0,0,1-.71,1.4,7.43,7.43,0,0,1-1.13,1.42,7.85,7.85,0,0,1-3,1.85,6.81,6.81,0,0,1-3.94.2,6.13,6.13,0,0,1-2-1,6.33,6.33,0,0,1-1.42-1.48,10.91,10.91,0,0,1-1.24-2.5,72.38,72.38,0,0,1-2.54-8,121.43,121.43,0,0,1-2.84-16.22l-.92-8c-.28-2.66-.55-5.32-.89-7.95a132.68,132.68,0,0,0-2.89-15.66C357.23,774.76,355.69,769.6,354.26,764.4Z"/>
    <path d="M467.18,831.78c2.33-4.61,4.52-9.09,6.4-13.68a121.64,121.64,0,0,0,4.81-14,122.88,122.88,0,0,0,3.06-14.43c.76-4.9,1.19-9.87,1.58-15A47,47,0,0,1,485.37,790a58.43,58.43,0,0,1-2.17,15.48,59.41,59.41,0,0,1-6.12,14.37A47.39,47.39,0,0,1,467.18,831.78Z"/>
    <path d="M270.14,543.76a82,82,0,0,0,12.23-1,97.37,97.37,0,0,0,12-2.52,122.84,122.84,0,0,0,43.14-21.82,89.39,89.39,0,0,0,16.82-17.12l3.12,2.67L331,531.65l-2.57-3.87,24.24-9.6c8.09-3.19,16.16-6.42,24.26-9.55h0a2.47,2.47,0,0,1,2.57,4.13,64.62,64.62,0,0,1-14.93,9.91c-5.28,2.64-10.67,4.8-16,7l-32,13.09-.55-4a81.47,81.47,0,0,0,17.8.47,84.81,84.81,0,0,0,17.56-3.34l.53,3.13a34.66,34.66,0,0,0-14.72,3.45,35.58,35.58,0,0,0-12.07,9.34,17.77,17.77,0,0,0-3.66,6.59,22.41,22.41,0,0,0-.86,7.63c.26,5.21,1.64,10.38,2.87,15.52-1.58-5-3.37-10.07-3.94-15.44a23.66,23.66,0,0,1,.44-8.12,19.32,19.32,0,0,1,3.63-7.38A37.12,37.12,0,0,1,336,540.06a37.61,37.61,0,0,1,15.82-4.29,1.59,1.59,0,0,1,.59,3.1l-.06,0a83.56,83.56,0,0,1-18.18,4,86.41,86.41,0,0,1-18.68,0,2.1,2.1,0,0,1-.6-4l.05,0,31.79-13.59c5.31-2.27,10.62-4.41,15.63-7a60,60,0,0,0,13.76-9.2l2.58,4.13c-8.07,3.22-16.18,6.35-24.28,9.51l-24.3,9.45h0a2.37,2.37,0,0,1-3.07-1.35,2.39,2.39,0,0,1,.52-2.53l26.87-27.19,0,0a2.06,2.06,0,0,1,3.09,2.7,93.31,93.31,0,0,1-18,17.41,120.19,120.19,0,0,1-21.42,12.62,116.89,116.89,0,0,1-23.48,7.9A88.54,88.54,0,0,1,270.14,543.76Z"/>
    <path d="M380.41,895.72a44.65,44.65,0,0,1,5-.51c1.66-.13,3.31-.18,5-.21s3.29,0,4.94,0a45,45,0,0,1,4.92.26c1.64.17,3.28.41,4.92.66s3.29.41,4.94.48,3.29,0,4.94-.08,3.29-.32,4.93-.53c3.27-.5,6.54-.93,9.81-1.22,1.64-.18,3.27-.35,4.91-.51s3.26-.31,4.9-.42a179.28,179.28,0,0,1,19.83-.24.19.19,0,0,1,.19.21.19.19,0,0,1-.13.18,91.52,91.52,0,0,1-19.54,4.11c-3.3.33-6.62.4-9.94.45-1.66,0-3.32,0-5,0s-3.32-.22-5-.33a75,75,0,0,0-9.93-.29c-3.31.12-6.62.72-9.94.91a61.15,61.15,0,0,1-9.94-.49,57.69,57.69,0,0,1-9.81-2,.2.2,0,0,1-.14-.25A.2.2,0,0,1,380.41,895.72Z"/>
    <path d="M380.9,907.16c1.9-.25,3.77-.35,5.63-.43s3.72-.16,5.58-.23,3.7-.09,5.55-.11,3.7,0,5.56.08,3.71.28,5.57.42,3.74.23,5.6.18,3.71-.21,5.56-.42,3.69-.58,5.52-.91c3.66-.78,7.3-1.51,10.95-2.14l5.47-1c1.81-.36,3.63-.7,5.45-1,7.32-1.17,14.6-2.37,22.1-3.26a.2.2,0,0,1,.23.17.22.22,0,0,1-.11.21Q467,900,464.38,901c-1.76.68-3.54,1.33-5.33,1.91a105.76,105.76,0,0,1-10.93,2.86c-3.69.75-7.43,1.19-11.17,1.58-1.87.17-3.74.35-5.62.45s-3.76.07-5.64.11-3.76,0-5.63.09-3.74.16-5.6.36c-3.72.33-7.44,1.12-11.19,1.45a67.35,67.35,0,0,1-11.27-.2c-.94-.06-1.87-.22-2.81-.34s-1.86-.26-2.79-.42a52.76,52.76,0,0,1-5.53-1.29.21.21,0,0,1,0-.4Z"/>
    <path d="M381.86,897.53a35.69,35.69,0,0,0-1.65,8.26,33.34,33.34,0,0,0,0,4.12,10.81,10.81,0,0,0,.67,3.66,3.71,3.71,0,0,0,2.18,2,10.64,10.64,0,0,0,3.58.56c1.29,0,2.71-.09,4.16-.13s2.86-.08,4.3-.08c5.74,0,11.49.38,17.22.24s11.45-.59,17.16-1.23c2.85-.3,5.7-.65,8.56-.9s5.72-.47,8.58-.68l8.57-.59a48,48,0,0,0,8.09-.86,9.42,9.42,0,0,0,3.17-1.38,7,7,0,0,0,2.16-2.52,13.32,13.32,0,0,0,1.25-3.55,14.5,14.5,0,0,0,.34-3.82A8,8,0,0,0,467,894.2a8.27,8.27,0,0,0-3.59-1.4,5.16,5.16,0,0,0-3.8.84h0a.21.21,0,0,1-.28,0,.2.2,0,0,1,0-.24,5.68,5.68,0,0,1,4.11-1.88,9.16,9.16,0,0,1,4.58.95,8.49,8.49,0,0,1,3.61,3.29,11.81,11.81,0,0,1,1.64,4.56,17.5,17.5,0,0,1,0,4.74,16.62,16.62,0,0,1-1.27,4.65,10.54,10.54,0,0,1-3.16,4.11,12.69,12.69,0,0,1-4.57,2.23,37.76,37.76,0,0,1-9,.9l-8.59.2c-2.87,0-5.73.11-8.6.1s-5.74-.08-8.61-.11c-5.75-.12-11.48-.06-17.2.33s-11.42,1.29-17.13,1.81c-1.43.13-2.86.23-4.29.32l-2.15.1c-.74,0-1.5,0-2.28,0a13,13,0,0,1-4.82-1,6.92,6.92,0,0,1-3.71-4,12,12,0,0,1-.48-4.81,25.52,25.52,0,0,1,.62-4.44,24.87,24.87,0,0,1,3.4-8.11.2.2,0,0,1,.28-.05A.19.19,0,0,1,381.86,897.53Z"/>
    <path d="M453.72,895a5.38,5.38,0,0,1,2.17,1.94,4.64,4.64,0,0,1,.84,2.48c0,.91-.48,1.89-.44,2.75a4.94,4.94,0,0,0,.84,2.46,13.25,13.25,0,0,1,.64,1.24,7.82,7.82,0,0,1,.37,1.29,8.48,8.48,0,0,1,.3,2.64,7.91,7.91,0,0,1-2.34,5,.25.25,0,0,1-.36,0l0-.06a12.05,12.05,0,0,1-1.53-5,10.64,10.64,0,0,1,.2-2.37,9.86,9.86,0,0,1,.58-2.48,3.81,3.81,0,0,0,.08-2.49,13.16,13.16,0,0,0-1.53-2.15,2.8,2.8,0,0,1-.43-1.12,6.06,6.06,0,0,1-.14-1.21,5.86,5.86,0,0,1,.06-1.31,6.07,6.07,0,0,1,.36-1.46h0a.26.26,0,0,1,.35-.15Z"/>
    <path d="M443.34,894.7a6.88,6.88,0,0,1,1.18,2.76,7.66,7.66,0,0,1,.16,1.33,3.48,3.48,0,0,1-.16,1.32,17.54,17.54,0,0,0-1.06,2.66,4.66,4.66,0,0,0,.48,2.66,10.12,10.12,0,0,1,.9,2.63,11.81,11.81,0,0,1,.41,2.62,11.55,11.55,0,0,1-1.37,5.5.25.25,0,0,1-.33.11l-.07,0A10,10,0,0,1,441,911a11.11,11.11,0,0,1,.07-2.76,9,9,0,0,1,.69-2.76,5.15,5.15,0,0,0,.42-2.73c-.12-.9-.75-1.81-1-2.74a5.3,5.3,0,0,1,.22-2.73,6.36,6.36,0,0,1,1.53-2.62.26.26,0,0,1,.37,0Z"/>
    <path d="M428.72,895.14a6.39,6.39,0,0,1,1.36,2.63,6.74,6.74,0,0,1,.22,1.32,3.26,3.26,0,0,1-.11,1.31,20.34,20.34,0,0,0-1,2.63,4.64,4.64,0,0,0,.45,2.63,8.71,8.71,0,0,1,.79,2.63,10.62,10.62,0,0,1,.25,2.63,10.17,10.17,0,0,1-1.94,5.26.24.24,0,0,1-.34.05l-.06-.05a10.24,10.24,0,0,1-1.93-5.26,10.61,10.61,0,0,1,.24-2.63,9,9,0,0,1,.8-2.63,4.72,4.72,0,0,0,.45-2.63,21.9,21.9,0,0,0-1-2.63,3.27,3.27,0,0,1-.12-1.31,7.61,7.61,0,0,1,.23-1.32,6.36,6.36,0,0,1,1.35-2.63.28.28,0,0,1,.38,0Z"/>
    <path d="M414.93,895.59a6.88,6.88,0,0,1,.32,3,7,7,0,0,1-.24,1.31,3.22,3.22,0,0,1-.53,1.2,18.33,18.33,0,0,0-1.78,2.21,4.62,4.62,0,0,0-.3,2.67,9.93,9.93,0,0,1,.13,2.75,11.89,11.89,0,0,1-.34,2.61,11.65,11.65,0,0,1-2.83,4.87.24.24,0,0,1-.34,0l0-.06a9.66,9.66,0,0,1-1-5.68,10.68,10.68,0,0,1,.84-2.62,8.94,8.94,0,0,1,.6-1.25,13.51,13.51,0,0,1,.84-1.19,5.2,5.2,0,0,0,1.18-2.47c.14-.89-.2-1.95-.16-2.9a5.27,5.27,0,0,1,1-2.53,6.2,6.2,0,0,1,2.24-2,.27.27,0,0,1,.35.11Z"/>
    <path d="M401.24,895.76a6.42,6.42,0,0,1,.2,1.56,6.76,6.76,0,0,1-.09,1.37,7.14,7.14,0,0,1-.29,1.27,3,3,0,0,1-.57,1.15,14.51,14.51,0,0,0-1.79,2.14,4.26,4.26,0,0,0-.24,2.63,10.51,10.51,0,0,1,.25,2.68,12,12,0,0,1-.12,2.55,12.93,12.93,0,0,1-2.22,5.06.23.23,0,0,1-.34.06l-.06-.05a8.77,8.77,0,0,1-1.62-5.56,9.47,9.47,0,0,1,.64-2.71,9.26,9.26,0,0,1,.54-1.31,11.61,11.61,0,0,1,.8-1.22,5.54,5.54,0,0,0,1.14-2.51c.14-.89-.18-2-.11-2.91a5.17,5.17,0,0,1,1.13-2.51,5.79,5.79,0,0,1,2.39-1.87.25.25,0,0,1,.34.14,0,0,0,0,1,0,0Z"/>
    <path d="M474.67,894.51a37.8,37.8,0,0,0,11.44-5.63,85,85,0,0,0,9.72-8.31c1.55-1.49,3.07-3,4.62-4.56s3.11-3,4.7-4.55a67.16,67.16,0,0,1,10.42-8.25,59.87,59.87,0,0,1,12.08-5.55c4.17-1.43,8.39-2.58,12.6-3.69l6.32-1.64a44,44,0,0,1,6.51-1.2,21,21,0,0,1,6.73.39,14.11,14.11,0,0,1,6.19,3.15,11.72,11.72,0,0,1,3.55,6.22,15.14,15.14,0,0,1-.26,7.12A25.25,25.25,0,0,1,562,879.75a58.26,58.26,0,0,1-10.88,7.92c-3.84,2.24-7.81,4.1-11.69,6-7.85,3.73-15.71,7.42-23.66,10.94s-15.92,7-24,10.2a.2.2,0,0,1-.18-.36c7.52-4.4,15.14-8.59,22.81-12.67s15.4-8,23.16-11.94c3.91-1.91,7.79-3.79,11.53-5.8a54,54,0,0,0,10.36-7,23.19,23.19,0,0,0,6.72-9.87,12.92,12.92,0,0,0,.66-5.75,9.22,9.22,0,0,0-2.39-5.13,12.18,12.18,0,0,0-5.11-3.06,16.65,16.65,0,0,0-6.18-.69c-4.23.24-8.42,1.57-12.58,2.73A79.25,79.25,0,0,0,517.4,866a108.15,108.15,0,0,0-9.85,8.07c-1.59,1.44-3.17,2.91-4.76,4.4s-3.21,2.93-4.86,4.38a66.63,66.63,0,0,1-10.68,7.83,31.65,31.65,0,0,1-12.51,4.22.2.2,0,0,1-.22-.18A.19.19,0,0,1,474.67,894.51Z"/>
    <path d="M475.2,896.08a10,10,0,0,1,1,1.59,10.44,10.44,0,0,1,.8,1.5,10.2,10.2,0,0,1,.68,1.47,4.87,4.87,0,0,1,.51,1.52,17.12,17.12,0,0,1,.25,1.71,6.46,6.46,0,0,0,.51,1.67,6.69,6.69,0,0,0,1,1.34,10.68,10.68,0,0,0,1.44,1c.53.26,1.07.49,1.54.76a13.09,13.09,0,0,1,1.44.79c.49.24,1,.46,1.43.72a9.61,9.61,0,0,1,1.39.72c1.81,1.09,3.6,2.15,5.78,3.63a.22.22,0,0,1,.07.31.28.28,0,0,1-.1.09,9.72,9.72,0,0,1-7.65-.2,16.39,16.39,0,0,1-1.68-1c-.51-.4-1-.83-1.48-1.25A15.85,15.85,0,0,1,480.9,911c-.37-.53-.69-1.1-1-1.65a14.33,14.33,0,0,0-.9-1.65,7.72,7.72,0,0,0-1.07-1.46,9.47,9.47,0,0,0-1.37-1.3,15.09,15.09,0,0,1-1.36-1.41,6.9,6.9,0,0,1-.83-1.73,15,15,0,0,1-.35-1.89,11.42,11.42,0,0,1,.1-1.94,7.45,7.45,0,0,1,.68-1.9.24.24,0,0,1,.32-.09l.07,0Z"/>
    <path d="M490.1,889.85a7.74,7.74,0,0,1,1.46,1.06,9.59,9.59,0,0,1,1.16,1.13,10,10,0,0,1,1,1.19,4.24,4.24,0,0,1,.77,1.32,11.4,11.4,0,0,1,.48,1.56,6.35,6.35,0,0,0,.67,1.5,5.89,5.89,0,0,0,1.1,1.13,8.86,8.86,0,0,0,1.42.78,18.23,18.23,0,0,1,2.88,1.34c.46.23.92.45,1.36.7a8.39,8.39,0,0,1,1.29.76,25.52,25.52,0,0,1,4.85,4.31.24.24,0,0,1,0,.33.14.14,0,0,1-.1,0,10.32,10.32,0,0,1-6.89-1,12.34,12.34,0,0,1-1.44-1c-.44-.37-.86-.76-1.29-1.15a14,14,0,0,1-1.16-1.27c-.35-.47-.64-1-.94-1.49a9.06,9.06,0,0,0-2-2.67,7.33,7.33,0,0,0-1.43-1,13.57,13.57,0,0,1-1.47-1,7.14,7.14,0,0,1-1.75-2.92,10.59,10.59,0,0,1-.36-1.71,6.53,6.53,0,0,1,.09-1.86.24.24,0,0,1,.29-.19l.06,0Z"/>
    <path d="M501.88,877.88a11.13,11.13,0,0,1,3.69,1.41,13.44,13.44,0,0,1,1.55,1,6.19,6.19,0,0,1,1.35,1.26,30.83,30.83,0,0,0,2.25,3.11,8.62,8.62,0,0,0,3.22,1.9,18.21,18.21,0,0,1,3.44,1.55,22.87,22.87,0,0,1,3.16,1.91,20.61,20.61,0,0,1,5.13,5.68.23.23,0,0,1-.08.31.16.16,0,0,1-.13,0,17,17,0,0,1-7.34-2.49,20.2,20.2,0,0,1-2.94-2.37,17.17,17.17,0,0,1-1.36-1.34c-.42-.47-.81-1-1.2-1.53a9.64,9.64,0,0,0-2.7-2.63c-1.05-.68-2.43-1-3.56-1.55a10,10,0,0,1-2.82-2.5,10.32,10.32,0,0,1-1.92-3.49.23.23,0,0,1,.15-.29Z"/>
    <path d="M515.79,865.83a11.9,11.9,0,0,1,6.31,4.68c.65,1.14,1,2.54,1.74,3.6a10.52,10.52,0,0,0,2.78,2.7c.54.39,1.1.77,1.6,1.2a18.11,18.11,0,0,1,1.41,1.36,20.88,20.88,0,0,1,2.51,3,17.82,17.82,0,0,1,2.8,7.46.24.24,0,0,1-.2.25.32.32,0,0,1-.14,0,22.14,22.14,0,0,1-5.92-5.17,25.19,25.19,0,0,1-2.06-3.19,19.84,19.84,0,0,1-1.71-3.49,9.34,9.34,0,0,0-2.06-3.24,34,34,0,0,0-3.26-2.22,6.59,6.59,0,0,1-1.34-1.35,13.62,13.62,0,0,1-1.12-1.55,11.83,11.83,0,0,1-1.62-3.71.23.23,0,0,1,.17-.28A.2.2,0,0,1,515.79,865.83Z"/>
    <path d="M530,857.25a13.86,13.86,0,0,1,3.5,3,14.24,14.24,0,0,1,2.4,3.73c.54,1.4.74,3,1.38,4.33A13.49,13.49,0,0,0,539.9,872c.51.56,1.07,1.09,1.54,1.67s.91,1.19,1.34,1.79a29.05,29.05,0,0,1,2.37,3.77,25.92,25.92,0,0,1,1.62,4.17,19.69,19.69,0,0,1,.86,4.56.22.22,0,0,1-.21.23.23.23,0,0,1-.14,0,21.53,21.53,0,0,1-3.28-3.26,29.16,29.16,0,0,1-2.6-3.61,32.3,32.3,0,0,1-1.92-4,24.19,24.19,0,0,1-1.48-4.22,12.46,12.46,0,0,0-1.83-4,43.77,43.77,0,0,0-3.13-3.27,9.36,9.36,0,0,1-1.24-1.83c-.35-.64-.67-1.31-1-2a15.08,15.08,0,0,1-1.18-4.47.23.23,0,0,1,.21-.24A.19.19,0,0,1,530,857.25Z"/>
    <path d="M541.1,855.2a2.69,2.69,0,0,1,2-1.34,5.17,5.17,0,0,1,2.4.2,7.78,7.78,0,0,1,2,1,6.7,6.7,0,0,1,1.51,1.29c.86,1,1.44,2.35,2.3,3.31a12.22,12.22,0,0,0,3.09,2.39,13.87,13.87,0,0,1,3.21,2.4,16.85,16.85,0,0,1,2.62,3,14.92,14.92,0,0,1,2.49,7.64.22.22,0,0,1-.22.22.15.15,0,0,1-.13,0,28,28,0,0,1-5.6-5.32,34,34,0,0,1-2.07-3,25.18,25.18,0,0,1-1.88-3.31,8,8,0,0,0-2.38-2.95,21.65,21.65,0,0,0-3.51-1.65,6.74,6.74,0,0,1-1.52-1l-1.26-1a11.13,11.13,0,0,0-1.24-.87,3,3,0,0,0-1.62-.47h0a.22.22,0,0,1-.22-.23A.16.16,0,0,1,541.1,855.2Z"/>
    <path d="M566.66,856.62a35.84,35.84,0,0,1-7.94,9.91,46.36,46.36,0,0,1-5,4c-.87.62-1.77,1.17-2.67,1.73s-1.85,1-2.8,1.5c-3.8,1.86-7.82,3.14-11.62,4.83a105.47,105.47,0,0,0-11.06,5.76c-1.81,1.05-3.59,2.14-5.41,3.14s-3.66,2-5.51,2.93c-3.68,1.92-7.37,3.85-11.14,5.57a191.5,191.5,0,0,1-23.34,9,.22.22,0,0,1-.26-.14.22.22,0,0,1,.08-.23,189.31,189.31,0,0,1,21.68-12.44c3.73-1.84,7.55-3.48,11.36-5.13,1.91-.83,3.82-1.65,5.75-2.42s3.9-1.47,5.85-2.21a101,101,0,0,0,11.44-5,119.11,119.11,0,0,0,10.53-6.57c1.71-1.13,3.44-2.21,5.15-3.29.84-.57,1.72-1.08,2.54-1.67s1.7-1.12,2.5-1.73a109.13,109.13,0,0,0,9.57-7.74.21.21,0,0,1,.29,0A.2.2,0,0,1,566.66,856.62Z"/>
    <path d="M619.92,828.37c4.51,0,4.52-7,0-7s-4.51,7,0,7Z"/>
    <path d="M622.26,824.57c4.51,0,4.51-7,0-7s-4.51,7,0,7Z"/>
    <path d="M629.27,827.49c4.51,0,4.51-7,0-7s-4.51,7,0,7Z"/>
    <path d="M626.64,835.09c4.51,0,4.51-7,0-7s-4.51,7,0,7Z"/>
    <path d="M633.51,837.28c4.5,0,4.51-7,0-7s-4.51,7,0,7Z"/>
    <path d="M634.68,832.17c4.5,0,4.51-7,0-7s-4.51,7,0,7Z"/>
    <path d="M640.81,840.93c4.51,0,4.51-7,0-7s-4.51,7,0,7Z"/>
    <path d="M633.51,843.42c4.5,0,4.51-7,0-7s-4.51,7,0,7Z"/>
    <path d="M621.24,834.94c4.5,0,4.51-7,0-7s-4.51,7,0,7Z"/>
    <path class="cls-2" d="M706.91,639.6a9.4,9.4,0,0,0-2.19-3.28c2.83,13,5.57,26.62-2.72,37.68-5,8-19,16-23,7-3.81-8.57-2.18-21.68-2.88-33.28-1.42,7.66-2.83,16.71-3.62,25.78-1.52,17.44,14.22,15.33,21.91,13.29a9.12,9.12,0,0,0,5.87-4.8C711.39,659.31,709.36,645.88,706.91,639.6Z"/>
    <path d="M701,675c8.29-11.06,5.55-24.66,2.72-37.68a9.27,9.27,0,0,0-3.57-2.14L689,631.58a9.19,9.19,0,0,0-11.83,6.81c-.64,3-1.36,6.47-2.07,10.33.7,11.6-.93,24.71,2.88,33.28C682,691,696,683,701,675Z"/>
    <path class="cls-3" d="M679.9,627.5s-7.9,33.5-6.4,43,6.08,13.73,9.29,14.12,10.31-2.18,14.76-8.9S705,658,706,649s-5-16-5-16Z"/>
    <path d="M688.6,645.09a124.9,124.9,0,0,0-10.19,7.58,80.09,80.09,0,0,0,7.68,11.24l11.28-8C694.91,651.87,692.34,647.89,688.6,645.09Z"/>
    <path class="cls-2" d="M675.5,633.5S703,661,705,670l-5,9-26.5-35.5Z"/>
    <path class="cls-2" d="M669.5,660.5l3,13,13.59-9.59a80.09,80.09,0,0,1-7.68-11.24C673.22,656.92,669.5,660.5,669.5,660.5Z"/>
    <path class="cls-2" d="M706.5,639.5c-4.11-2.06-11.1,1.13-17.9,5.59,3.74,2.8,6.31,6.78,8.77,10.86l9.13-6.45Z"/>
  </g>
  <g id="Layer_3" data-name="Layer 3">
    <g>
      <path class="cls-3" d="M1064.28,512s-11.07,5.83-20.16,8c-3.21.77-6.17,1.09-8.31.53-8.18-2.13-48,3.21-50.53,0s-6,18.15-6,18.15,48.93-9.37,62.25-10.31a13.33,13.33,0,0,1,2.87,0c5.69,1.07,32.38,11.39,48-2.49C1092.39,525.88,1082.07,507.38,1064.28,512Z"/>
      <path d="M836.53,464.67s16.73,44.49,26,50.18c0,0,6.4,12.46,8.9,13.17,0,0-27.41-3.56-32,6.4s8.54,16.37,8.54,16.37,55.51,2.49,59.43,2.49,57.29-2.13,57.29-2.13l32.74-60.85-18.15-55.87L928.7,403.11l-92.17,13.17Z"/>
      <path class="cls-3" d="M809.13,428.38s3,66.94,7.92,76a5.2,5.2,0,0,1,.6,2.57c-.07,4.68-.47,17.44-2.59,21.73a6.16,6.16,0,0,0-.24,5h0s-17.43-3.2-19.21,16.73c0,0-2.49,5.69,6,6,0,0,32,2.49,34.87,2.13s10.32-6,11.39-7.83,2.85-25.62,0-27.75a15.65,15.65,0,0,1-5.34-12.82c.36-8.54,1.07-12.45.36-16s1.78.36,2.49-16.37l8.18-51.6Z"/>
      <path class="cls-3" d="M909.13,450.8s-1.07,22.42-3.21,30.24-7.47,27.41-7.83,33.81-10,13.88-9.6,19.93-3.21,21,0,23.84,13.16,5.34,26.33,4.63,26.33,2.49,26,0-.71-19.58-9.26-22.42-1.42-26,1.43-31,7.83-58,13.16-61.56S953.61,422,950.05,417,905.92,439.05,909.13,450.8Z"/>
      <path class="cls-3" d="M970.27,388.77c0,.22,0,.45,0,.67a8.43,8.43,0,0,0,.11,1c.48,2.75,2.87,16,5.38,23.84a8.45,8.45,0,0,0,7.57,5.9c7.42.4,21.81,3,25.64,17a8.21,8.21,0,0,1,.18.83c.64,3.88,5.68,33.9,9.61,41.55a8.34,8.34,0,0,1,.89,4.25c-.44,7.94-2.62,30.37-13.39,35.12-.27.12-.53.24-.79.38-2.25,1.24-13.11,7.45-13.11,12.24,0,5.33-3.21,5-2.85,10s-5,3.2-5,7.47-1.07,5.34-5.7,7.83-32.74.36-35.23-1.78-.35-17.79,4.63-18.15,13.52-3.56,16.37-7.11.36-6.76,4.63-12.1,11.38-8.9,10-17.44-3.92-13.88-1.78-17.79,2.49-26-1.78-22.42-6.94,24-19.75,24c-2.55,0-11.46-15-15.41-21.23a8.45,8.45,0,0,1-1.14-6.22l14.25-69C955.6,378,969.66,379,970.27,388.77Z"/>
      <path class="cls-2" d="M884.75,152.41a53.19,53.19,0,0,1,7.3-4.37c4.31-2.1,9.33-3.58,11.56-.61l-9.43,4.8s28.47-5.69,25.62,0l-17.44,6.05s19.58,2.14,31.68-3.55a4.7,4.7,0,0,1,0,6.4l10-2.85s-2.49,7.83-5.34,8.54-2.85,0-2.85,0S952.9,175,947.2,193.51c0,0-3.2,6.05-3.2,10.68,0,3.06,4.67,9.54,7.83,13.58a.93.93,0,0,1-1.17,1.4L946.49,217s21,50.53,19.93,75.44c0,0,1.78,8.54,5.34,12.81s-6-2.13-6-2.13,1.06,17.08,6.76,22.06-8.9-6.76-8.9-6.76-2.85,64.76,1.78,71.17-9.25,34.87-7.47,41.63-5.7-18.5-5.7-18.5,0,19.57-7.47,24.2c0,0,1.42-17.44-.35-18.51s-4.27,25.27-11.39,25.27c0,0,.71-11,.35-15.66s-18.14,12.81-21,31c0,0-10.32-3.2-12.1-21.35,0,0-7.47,8.9-2.85,13.52,0,0-10-3.2-9.61-11.74s-11.74,2.13-11.74,11c0,0-3.56-3.2-10-12.45,0,0-6.05,8.18-3.56,10.67,0,0-7.83-8.18-6-13.17s-15.66,9.61-16.37,17.8c0,0-13.52-21-20.64-24.2,0,0-11,.71-11,11,0,0-5.34-14.95,0-16.72,0,0-9.25.35-8.19,6.4,0,0-1.06-12.81,4.63-16.37,0,0-3.91-8.89-8.18,2.85,0,0-13.88-32.74-2.14-55.16a101.85,101.85,0,0,0,5-15.3c1.78-7.83-11.38,12.1-9.61,17.08,0,0-5-34.87,3.92-40.57l-7.83,8.9s7.12-33.1,15.66-42c0,0-8.19,3.56-9.61,6.4s2.49-12.81,10.32-19.92l9.25-10s-15.3,3.56-16.37,8.54.36-18.5,9.61-26.33c0,0-10,2.13-10.68,4.27s8.19-13.52,13.88-16c0,0,4.27-5.34-3.56-.36s6.77-13.17,6.77-13.17L804.5,227s5.34-18.14,13.17-21,6.05-4.63,6.05-4.63-23.49-22.06-3.56-37c0,0-1.42-5.69-3.91-5s8.18-11.74,22.42-6l6.76,1.78s-5.34-9.25-7.83-9.25,13.17-3.2,19.93,6.4L851.12,138s17.79,5.69,21,15.3c0,0,4.62-10.32,7.83-11.39v10.68s6-9.61,9.25-10S884.75,152.41,884.75,152.41Z"/>
      <path class="cls-3" d="M844.72,200.27s-12.46,30.25,0,45.91c0,0,.71,15.3,4.27,15.66s62.63-5.34,62.63-5.34-2.85-11.74,0-20.64S920.87,227.68,923,212,908.06,185,907.35,182.48,878.88,170,870,177.5,846.5,194.58,844.72,200.27Z"/>
      <path class="cls-2" d="M876.8,237.3s-20,2.83-28.53,13.15S839,261.84,839,261.84s10-14.24,20.29-15.3c0,0-17.8,13.52-18.86,19.92,0,0,10-11.74,18.86-12.1,0,0-9.61,5-10.68,9.26s3.91,8.54,3.91,8.54-.35-4.27,5.34-6.41,4.27,7.83,2.14,10.68a7,7,0,0,0-1.07,6.05s5,.35,7.47-1.43l2.49-1.78s-3.2,3.21-3.91,5,11,1.42,13.52,3.2,7.12-1.78,10-2.49c0,0-1.43,2.13-1.78,2.84s6,1.43,7.47-2.13c0,0,2.14,1.42,2.14,2.85s8.89-12.46,8.54-15.31l4.62,1.78s1.43-6.76-1.78-10.67,3.21,3.91,3.21,3.91,0-14.94-4.63-15.65,8.18-.36,12.1,6.76a25.66,25.66,0,0,0-12.81-12.1s10.32-1.07,13.88,3.91c0,0-15-17.08-19.93-16.72S876.8,237.3,876.8,237.3Z"/>
      <path d="M870.16,229.87a3.47,3.47,0,0,1,5.56-2.22c3.17,2.45,8.7,6.08,12.77,5.36,6-1.06,11.74-7.11,13.87-3.56s-2.84,8.19-5.33,9.26-8.19,1.06-8.9,4.62c-.64,3.19-.13,10.66,0,12.18a.73.73,0,0,0,.21.47c1.68,1.69,13.74,13.93,14.4,17.24a20.48,20.48,0,0,1,.32,4.09.74.74,0,0,1-1.45.21c-.86-2.81-2.13-6.16-3.5-7.14-2.18-1.56-10.11-10-12-12a.73.73,0,0,0-.94-.11c-3.33,2.16-21.64,14.06-22.61,15.68s.92-3.05,1.34-4.08a.72.72,0,0,1,.25-.32L884,255.27a.72.72,0,0,0,.3-.52c.22-1.91,1.25-11.66,0-13.91-1.43-2.49-13.88-4.62-13.88-7.12A26.94,26.94,0,0,1,870.16,229.87Z"/>
      <path d="M806.52,286.61l-1.07,14.33a88.62,88.62,0,0,0,7.56-8.53,47.93,47.93,0,0,1,.87,17.09,9.25,9.25,0,0,0,2.81-3.36,123.16,123.16,0,0,1,.49,17.07l2.8-3.42-3.76,33.88,7.23-11.55a53.26,53.26,0,0,1,5.95,20.24l4.8-4.77c5,12.37,1.8,26.34,2.37,39.68a2.9,2.9,0,0,0,.63,2,2.82,2.82,0,0,0,2.45.41c6.36-1,12-4.89,16.32-9.65s7.56-10.4,10.74-16a48.8,48.8,0,0,1,4.09,31.2c7.25.92,12.8-6.11,16.34-12.5a184.51,184.51,0,0,0,17.3-43.62,12.39,12.39,0,0,1,4.27,8.29l7.2-13.76a6.79,6.79,0,0,1,2.54-3.13c1.17-.62,2.58-.5,3.86-.85,4.05-1.11,5.32-6.11,5.9-10.26l4,7.22A123,123,0,0,0,937.91,293c5.43,9.42,2.69,23.39,11.42,29.87,5.61-18-1.07-37.49,1.16-56.18l12.18,36.51c.45-.45-.38-1.22-1-1a2.09,2.09,0,0,0-.92,1.61L955.57,328c-.6,2.8-1.3,5.78-3.4,7.73s-6.07,2.1-7.43-.42c-3.23,16,1,32.89-2.66,48.81-1.84,8-5.61,15.38-9.34,22.68a188.93,188.93,0,0,1-2-18.83c-11.88,13.59-14.9,33.81-28.51,45.68a4,4,0,0,1-2.23,1.19c-2.13.16-3.11-2.57-3.39-4.69l-3.16-23.54c-13.1,9-26.27,18.06-40.6,24.95-2.22,1.07-5.29,1.91-6.81,0a5.63,5.63,0,0,1-.88-2.93l-1.55-14.69c-3,2.88-7.83,5.82-10.83,2.94-1.77-1.7-1.65-4.51-1.46-7a192.26,192.26,0,0,0-1.55-44.13,3.86,3.86,0,0,0-.95-2.38,4.57,4.57,0,0,0-2.77-.75,15.93,15.93,0,0,1-13-9l-3.29,2.52c-2.87-3.95-2.52-9.29-2.15-14.16a327.67,327.67,0,0,0,.32-44"/>
      <path d="M804.4,364.73a184.76,184.76,0,0,0-3.54,37.9c1.39-.15,2.2-1.56,3-2.69s2.35-2.17,3.49-1.37a3.06,3.06,0,0,1,.88,2.54c.16,5.5.23,11,.24,16.5l4.46-3.19a1.72,1.72,0,0,1,.89-.4c.77,0,1.18.85,1.43,1.57a22.49,22.49,0,0,0,8.19,10.85,90,90,0,0,0-6.22-22.6c-.31-.74-.78-1.59-1.58-1.67-1.1-.11-2,1.34-3,1.09a2.08,2.08,0,0,1-1.16-1.1,59.39,59.39,0,0,1-8.16-36.1"/>
      <path d="M846.74,264.48a21.07,21.07,0,0,0-2.34,18.72l3.72-3.69a129.25,129.25,0,0,1,.68,19.67,11.5,11.5,0,0,0,4-4.06,21.87,21.87,0,0,1,5.68,13.36l2.38-3.59a51,51,0,0,1,5.54,22.52,32.11,32.11,0,0,0,3.11-12.84c.06-1.76,0-3.62.88-5.13s3.19-2.32,4.42-1.07c.31-1.89,1.68-4.39,3.41-3.54a18.21,18.21,0,0,0-1.93-15.28,6.57,6.57,0,0,0-1.95-2.11,8,8,0,0,0-2.72-.88l-6.93-1.35a5.42,5.42,0,0,1-2.3-.81c-1.85-1.39-1.29-4.26-2-6.45a10.77,10.77,0,0,0-1.2-2.21c-3.17-4.84-6.9-10.09-12.56-11.28"/>
      <path d="M893.85,289a49.56,49.56,0,0,1,8.69,21.84,26,26,0,0,0,1.53-25.35c-.66-1.32-1.07-3.5.39-3.78a2.16,2.16,0,0,1,1.32.3,14.53,14.53,0,0,1,5,4.08,7,7,0,0,0,2.15-3.7,19.91,19.91,0,0,1,5.28,11.86,51.55,51.55,0,0,0,2.68-24.95,13.44,13.44,0,0,1,9,10.47c1.64-3.71-1.23-7.69-3.16-11.25-6.28-11.54-3.15-25.71.14-38.42-14.07,13.5-13.9,36.76-26.59,51.57-2.56,3-5.61,5.58-7.68,8.91"/>
      <path class="cls-3" d="M827.85,167.12c2,.54,4.07,1.13,5.53,2.58s2,4.06.54,5.54a9.83,9.83,0,0,0-1.14,1.09c-1,1.51.57,3.4,2,4.51l6.79,5.24a6.31,6.31,0,0,1,1.92,2c1.19,2.36-.75,5.7,1,7.66a3,3,0,0,1-2.37.78l-18,.42a9.71,9.71,0,0,1-3.36-.32,7.12,7.12,0,0,1-2.39-1.49c-4.35-3.89-5.66-10.1-6.31-15.91-.44-4-.61-8.31,1.57-11.67a9.42,9.42,0,0,1,17,2.76"/>
      <path class="cls-3" d="M921.4,160.6c-2.59,1.42-1.6.89-4.2,2.32a28.61,28.61,0,0,0-5.94,3.93,14.54,14.54,0,0,0-4.46,8.65,1.45,1.45,0,0,0,.13,1,1.49,1.49,0,0,0,1.27.39l10.47-.08c.68,0,1.53.13,1.69.78.12.5-.28.95-.49,1.42-.94,2.05,1.55,3.93,3.62,4.82l7.54,3.26c.33.14.7.32.8.67a1.23,1.23,0,0,1-.34,1l-5.94,8.38a1.53,1.53,0,0,0-.38.93,1.32,1.32,0,0,0,.36.76,9.08,9.08,0,0,0,5.6,3.34c3.83.63,7.74-1.33,10.36-4.19s4.17-6.53,5.52-10.17c1.57-4.22,2.92-9,1.09-13.09a14.85,14.85,0,0,0-5.56-5.92c-7.09-4.78-12.84-6.2-21.14-8.25.85.69-1,.67-.21,1.36"/>
      <path d="M866.25,212.2a72.71,72.71,0,0,0,10-7.44,14.55,14.55,0,0,1,16.59-1.08c5.88,3.69,8.27,11.07,13.27,15.87-2.75-.32-5-2.29-6.85-4.36s-3.49-4.4-5.85-5.86c-4-2.45-9.09-1.94-13.57-.65S871,212,866.38,212.22"/>
      <path d="M821.79,538.37a4,4,0,0,0-2.13,1.32,5.12,5.12,0,0,0-1.09,2,17,17,0,0,0-.32,4.92c0,1.76,0,3.53,0,5.31s-.07,3.58-.28,5.44a21.47,21.47,0,0,1-1.67-5.26,30.37,30.37,0,0,1-.56-5.46,19.4,19.4,0,0,1,.13-2.82,8.77,8.77,0,0,1,.88-2.89,5.56,5.56,0,0,1,2.15-2.23A3.53,3.53,0,0,1,821.79,538.37Z"/>
      <path d="M820.45,557.37a7.55,7.55,0,0,1,.84-8,1.09,1.09,0,0,1,.66-.47,1.13,1.13,0,0,1,.84.38,11.54,11.54,0,0,1,2.82,3.82,2.82,2.82,0,0,0,.83,1.26,2.53,2.53,0,0,0,1.11.34,41.11,41.11,0,0,0,6,.31,7.34,7.34,0,0,1,2.81.27,2.19,2.19,0,0,1,1.5,2.17"/>
      <path d="M809,557c2.08-3.26,2.31-6.8,2.46-10.66a5.26,5.26,0,0,0-.34-2.49,2.23,2.23,0,0,0-2-1.39,3.07,3.07,0,0,0-2.14,1.46,15.9,15.9,0,0,0-3.13,7.8l-.49-6.32a3.36,3.36,0,0,0-2.15,2.93,26.14,26.14,0,0,0,.1,3.85,2.29,2.29,0,0,1-.53,1.75c-.78.72-2.16.13-2.61-.83A5.72,5.72,0,0,1,798,550a4.24,4.24,0,0,0-.47-3.08,17.34,17.34,0,0,0-1.08,6,2.82,2.82,0,0,0,.3,1.49,3.09,3.09,0,0,0,2.41,1.05c2.47.28,6.26,1.65,8.74,1.93"/>
      <path d="M899,548a5.36,5.36,0,0,1-.46,1.86,14.66,14.66,0,0,1-.84,1.63c-.3.5-.6,1-.86,1.43a14.87,14.87,0,0,0-.68,1.39c-.42,1-.79,2-1.16,3.06a21.57,21.57,0,0,1-1.4,3.33A10.56,10.56,0,0,1,893,557a9.67,9.67,0,0,1,.81-3.72c.14-.29.29-.59.45-.88s.36-.56.56-.82a10.57,10.57,0,0,1,1.3-1.36C897.07,549.41,898,548.79,899,548Z"/>
      <path d="M892.86,550.52a10.32,10.32,0,0,1,1,2.28,15.44,15.44,0,0,1,.47,2.18,14.69,14.69,0,0,1,.16,2.22,9.61,9.61,0,0,1-.29,2.46,5.55,5.55,0,0,1-1.61-2,7.77,7.77,0,0,1-.68-4.78A5.58,5.58,0,0,1,892.86,550.52Z"/>
      <path d="M905.83,531.21a72.4,72.4,0,0,1,1,8.25c0,.69.08,1.38.11,2.07a11.09,11.09,0,0,0,.19,1.85,3.68,3.68,0,0,0,.23.73,7.85,7.85,0,0,0,.42.78,11.37,11.37,0,0,1,.54,1,3.94,3.94,0,0,1,.38,1.43,3.29,3.29,0,0,1-.35,1.61,6.24,6.24,0,0,1-.74,1.09c-.48.54-.92,1-1.39,1.55-.92,1-1.86,2-2.82,3a71.06,71.06,0,0,1-6.09,5.66,70.91,70.91,0,0,1,4.59-6.92c.82-1.11,1.67-2.2,2.52-3.28l1.29-1.59a4,4,0,0,0,.42-.61.76.76,0,0,0,.08-.39,3.55,3.55,0,0,0-.57-1.37,10.61,10.61,0,0,1-.51-1.06,5.78,5.78,0,0,1-.33-1.25,11.59,11.59,0,0,1,0-2.26c0-.69.08-1.37.13-2.06A70.3,70.3,0,0,1,905.83,531.21Z"/>
      <path d="M906.91,561.72a6.54,6.54,0,0,1,.56-3.85,17.38,17.38,0,0,1,1.89-3.21c.68-1,1.36-1.86,2-2.8a13.93,13.93,0,0,0,1.61-3.13,4.27,4.27,0,0,1,.46,1.94,7,7,0,0,1-.28,2,11.66,11.66,0,0,1-1.74,3.45c-.73,1-1.5,1.89-2.26,2.77A32.62,32.62,0,0,0,906.91,561.72Z"/>
      <path d="M914.16,563.19A45.42,45.42,0,0,0,919,549a16.42,16.42,0,0,1,1.7,8.77,10.56,10.56,0,0,0,2.72-3.76c1,2,1.48,4.45.31,6.34a5.8,5.8,0,0,1-4.21,2.45,17.3,17.3,0,0,1-5-.29"/>
      <path d="M932,562c-.92-4.31-.28-8.79-.5-13.19a10.6,10.6,0,0,0-.9-4.28,4.58,4.58,0,0,0-3.31-2.62,5.79,5.79,0,0,1,6.11,4.21c.47,1.89-.06,3.89.22,5.81.63,4.18,5,7.26,5,11.49-2-.28-4-.61-6.06-1"/>
      <path d="M1004.4,479.23a53.12,53.12,0,0,1,1.5,6.84c.18,1.16.31,2.33.41,3.5a28.16,28.16,0,0,1,.11,3.57,14.31,14.31,0,0,1-.58,3.63,11.58,11.58,0,0,1-.69,1.77,8.87,8.87,0,0,1-1,1.65,8.6,8.6,0,0,1-3.08,2.47,6.83,6.83,0,0,1-4.11.59l1.47-1.46a78.7,78.7,0,0,1,1.48,9.16c.17,1.54.27,3.08.35,4.64a14.42,14.42,0,0,1-.5,5,6.75,6.75,0,0,1-1.42,2.55,5.69,5.69,0,0,1-.56.54l-.3.25-.37.25a3.74,3.74,0,0,1-.94.4,2.87,2.87,0,0,1-1.31,0,2.67,2.67,0,0,1-1.21-.65,3,3,0,0,1-.66-.85,6.5,6.5,0,0,1-.54-1.38c-.23-.76-.44-1.53-.62-2.31a34.2,34.2,0,0,1-.73-4.73c-.14-1.6-.14-3.14-.22-4.59a12.93,12.93,0,0,0-.73-4,6,6,0,0,0-.89-1.56l-.15-.17a.52.52,0,0,0,.27.07.73.73,0,0,0,.46-.14c.1-.09.09-.12.07-.08a1.63,1.63,0,0,0-.13.55c0,.07,0,.1,0,.2v.28l0,.57-.08,2.29-.17,4.57q-.35,9.13-.9,18.26v.07a.68.68,0,0,1-1.35,0,11.54,11.54,0,0,0-.36-2.79,13,13,0,0,0-1-2.67,13.62,13.62,0,0,0-1.57-2.43,13.15,13.15,0,0,0-2.1-2,12.49,12.49,0,0,1,2.4,1.77,13.14,13.14,0,0,1,1.93,2.33,13,13,0,0,1,1.36,2.74,13.49,13.49,0,0,1,.68,3l-1.36,0q-.27-9.13-.35-18.28l0-4.58V505c0-.09,0-.25,0-.37a4.53,4.53,0,0,1,.41-1.65,2.56,2.56,0,0,1,.78-1,2.26,2.26,0,0,1,1.53-.46,2.42,2.42,0,0,1,1.31.49,3.8,3.8,0,0,1,.67.63,8.51,8.51,0,0,1,1.43,2.35,15.76,15.76,0,0,1,1,4.94c.12,1.59.12,3.1.25,4.53a34.5,34.5,0,0,0,.68,4.29c.16.71.34,1.41.55,2.11l.08.26.06.21a1.92,1.92,0,0,0,.13.28c0,.07,0,.09,0,.06a.45.45,0,0,0-.21-.11.35.35,0,0,0-.19,0l.11,0,.11-.07.14-.12a2.11,2.11,0,0,0,.27-.25,3.72,3.72,0,0,0,.79-1.4,7.74,7.74,0,0,0,.37-1.88,18.21,18.21,0,0,0,.07-2.11c0-1.49-.1-3-.21-4.48s-.24-3-.42-4.48-.39-3-.64-4.45v-.06a1.22,1.22,0,0,1,1.49-1.4,4.58,4.58,0,0,0,2.69-.26,5.65,5.65,0,0,0,1.29-.71,7.1,7.1,0,0,0,1.14-1,8.23,8.23,0,0,0,.91-1.22,10.41,10.41,0,0,0,.68-1.43,14.56,14.56,0,0,0,.76-3.19,43.33,43.33,0,0,0,.15-6.85C1004.93,483.85,1004.71,481.54,1004.4,479.23Z"/>
      <path d="M977.54,524.22c1.51.68,3,1.46,4.43,2.22.73.4,1.44.78,2.17,1.21a8.49,8.49,0,0,1,2.1,1.68,14.41,14.41,0,0,1,1.49,2.16c.41.71.84,1.43,1.22,2.2a13.26,13.26,0,0,1,1,2.46,8.72,8.72,0,0,1,.34,2.76h0a1.06,1.06,0,0,1-1.78.73,26.13,26.13,0,0,0-2.82-2.36,6.94,6.94,0,0,0-3.09-1.28l.75-1.37a25.44,25.44,0,0,1,2.32,4.45c.3.78.57,1.57.8,2.36a20.24,20.24,0,0,1,.53,2.43c-.36-.75-.72-1.48-1.11-2.2s-.77-1.42-1.2-2.1a36.24,36.24,0,0,0-2.74-3.93.85.85,0,0,1,.67-1.37h.08a6.55,6.55,0,0,1,2.16.39,9.45,9.45,0,0,1,1.92.92,15.68,15.68,0,0,1,1.67,1.19c.52.42,1,.86,1.49,1.29l-1.77.74a9.58,9.58,0,0,0-1-4.24c-.32-.72-.68-1.43-1.05-2.16a15.67,15.67,0,0,0-1.14-2,7.84,7.84,0,0,0-1.58-1.57c-.62-.49-1.3-1-2-1.49C980.08,526.34,978.78,525.32,977.54,524.22Z"/>
      <path d="M951.55,539.49a25.44,25.44,0,0,0-1.91,3.31,9,9,0,0,0-.49,3.39v.95c0,.33,0,.66,0,1,0,.65-.08,1.31-.15,2a19,19,0,0,1-.78,3.95,20.54,20.54,0,0,1-.9-3.92c-.09-.65-.15-1.31-.2-2s-.08-1.3-.07-2a9.4,9.4,0,0,1,.24-2.13,5.77,5.77,0,0,1,.93-2.07A7.68,7.68,0,0,1,951.55,539.49Z"/>
      <path d="M960.5,541.24c-.26,1.18-.54,2.24-.76,3.3s-.43,2.1-.58,3.14-.27,2.09-.35,3.17-.13,2.18-.23,3.38a7.71,7.71,0,0,1-1.44-3.27,10.3,10.3,0,0,1-.09-3.59,10.58,10.58,0,0,1,1.12-3.42A7.8,7.8,0,0,1,960.5,541.24Z"/>
      <path d="M967.75,545.12c-.37.92-.74,1.71-1.08,2.48s-.66,1.53-1,2.28-.6,1.52-.89,2.31-.58,1.61-1,2.53a5.65,5.65,0,0,1-.69-2.81,7.64,7.64,0,0,1,.57-2.83,7.81,7.81,0,0,1,1.57-2.43A5.58,5.58,0,0,1,967.75,545.12Z"/>
      <path d="M974.85,550.58a3.26,3.26,0,0,1,1.36,1.34,4.4,4.4,0,0,1,.52,1.73,4.28,4.28,0,0,1-.25,1.8,3.13,3.13,0,0,1-1.13,1.52,9.19,9.19,0,0,1-.54-1.68,9.82,9.82,0,0,1-.21-1.47,10.55,10.55,0,0,1,0-1.49A9,9,0,0,1,974.85,550.58Z"/>
      <path class="cls-2" d="M859.29,460.85a26.68,26.68,0,0,1,3.49-3.31c.63-.5,1.29-1,2-1.42a11.84,11.84,0,0,1,2.2-1.2,5.31,5.31,0,0,1,2.71-.37,5.4,5.4,0,0,1,2.57,1.2,7.46,7.46,0,0,1,2.48,4.84,12.07,12.07,0,0,1-.79,5.23c-.57,1.61-1.3,3.06-1.93,4.48A84.22,84.22,0,0,0,868.7,479a8.4,8.4,0,0,0-.53,3.81,5.83,5.83,0,0,0,.6,1.63c.16.29.33.59.53.89s.42.61.63.91a31.82,31.82,0,0,0,2.81,3.47c.53.54,1,1.1,1.6,1.61s1.11,1.05,1.68,1.56c4.58,4.11,9.94,7.72,14.52,12.59l0,0a2.07,2.07,0,0,1-.1,2.93,2,2,0,0,1-1.23.55,42.55,42.55,0,0,1-8.06-.05c-1.33-.13-2.67-.31-4-.57s-2.62-.58-3.91-.95l2.24-2.26a11.91,11.91,0,0,0,1.3,3.16A12.11,12.11,0,0,0,879,511l0,.05a1.62,1.62,0,0,1,.22,2.09,2.79,2.79,0,0,1-1.3,1,3.41,3.41,0,0,1-1.2.22,6.34,6.34,0,0,1-.91,0l-.64-.08a1.13,1.13,0,0,0-.5.07s0,0,.12-.25c0,0,0-.11,0-.15v-.08a.13.13,0,0,0,0-.06.57.57,0,0,0-.07-.17c0-.05,0,0,.17.2l.5.48,1,1,2.07,2a48.52,48.52,0,0,1,4,4.21,22.51,22.51,0,0,1,3.21,4.9l0,.06a.55.55,0,0,1-.25.72.6.6,0,0,1-.49,0,13.6,13.6,0,0,0-1.65-.74,14.9,14.9,0,0,0-1.76-.53,15.21,15.21,0,0,0-3.7-.4,14.14,14.14,0,0,1,3.79-.19,12.44,12.44,0,0,1,1.91.3,13.65,13.65,0,0,1,1.86.55l-.71.77a24.23,24.23,0,0,0-3.54-4.23c-.66-.65-1.36-1.26-2.07-1.86s-1.44-1.19-2.18-1.78l-2.23-1.76-1.12-.9-.56-.46a3.24,3.24,0,0,1-.78-.86,2.31,2.31,0,0,1-.23-1.83,2.37,2.37,0,0,1,.2-.46c.08-.12.16-.25.25-.36a3.19,3.19,0,0,1,.57-.5,3.91,3.91,0,0,1,1.09-.5,4.52,4.52,0,0,1,1.12-.14c.23,0,.32,0,.45,0l.33,0h.51c.13,0,.21-.05.19-.05s-.14.06-.18.13l.26,2.13a15.36,15.36,0,0,1-3-3.27,15.13,15.13,0,0,1-1.9-4,1.82,1.82,0,0,1,1.22-2.26,1.77,1.77,0,0,1,.94,0l.08,0c1.19.29,2.4.52,3.61.7s2.44.32,3.66.4a43.74,43.74,0,0,0,7.33-.14l-1.3,3.5a82.78,82.78,0,0,0-6.94-6.14q-1.85-1.47-3.7-3c-.63-.51-1.24-1-1.86-1.56s-1.24-1.06-1.84-1.62a40.11,40.11,0,0,1-6.59-7.53l-.69-1.07c-.22-.38-.44-.77-.64-1.19a8.49,8.49,0,0,1-.77-5.85,18.59,18.59,0,0,1,.74-2.54,76.24,76.24,0,0,1,4-8.9c.76-1.45,1.55-2.79,2.16-4.14a13.87,13.87,0,0,0,.73-2,8.78,8.78,0,0,0,.21-1c0-.17,0-.34.06-.51s0-.32,0-.48a5.93,5.93,0,0,0-.39-1.94,5,5,0,0,0-1-1.69,3.51,3.51,0,0,0-1.59-1,3.87,3.87,0,0,0-2,.07,11,11,0,0,0-2.1.83q-1.07.51-2.07,1.11A32,32,0,0,0,859.29,460.85Z"/>
      <path class="cls-2" d="M854.73,539.24a10.16,10.16,0,0,0,.52,3.13,7.87,7.87,0,0,0,1.44,2.58,12,12,0,0,0,2.31,2,21.16,21.16,0,0,1,2.56,2.12,19.51,19.51,0,0,1-3.13-1.16,7.84,7.84,0,0,1-2.83-2,6.41,6.41,0,0,1-1.44-3.26A5.4,5.4,0,0,1,854.73,539.24Z"/>
      <path class="cls-2" d="M865.06,540a10.56,10.56,0,0,1,2,1.89,16.06,16.06,0,0,1,1.55,2.22,15.32,15.32,0,0,1,1.16,2.46,10.52,10.52,0,0,1,.64,2.67,19.22,19.22,0,0,1-1.64-2.16c-.49-.74-.95-1.49-1.39-2.25s-.86-1.54-1.25-2.33A19.38,19.38,0,0,1,865.06,540Z"/>
      <path class="cls-2" d="M881.08,539.91a12.73,12.73,0,0,1-.67,2.72,21,21,0,0,1-1.1,2.53,20.3,20.3,0,0,1-1.43,2.36,12.6,12.6,0,0,1-1.84,2.11,16.1,16.1,0,0,1,.86-2.65c.34-.85.73-1.67,1.15-2.48s.87-1.59,1.36-2.36A16.61,16.61,0,0,1,881.08,539.91Z"/>
      <path d="M838.74,478.65a10.16,10.16,0,0,1,.17-3.92c.27-1.29.63-2.55.84-3.81a8.29,8.29,0,0,0-.15-3.68,4.71,4.71,0,0,0-.75-1.58,3.09,3.09,0,0,0-1.26-1,5.54,5.54,0,0,0-1.72-.37,9.14,9.14,0,0,1-1-.2,4.73,4.73,0,0,1-1.07-.44,5.4,5.4,0,0,1-1.67-1.55,11.34,11.34,0,0,1-1-1.85c-.54-1.25-.94-2.49-1.48-3.58a6.46,6.46,0,0,0-.92-1.44,3.16,3.16,0,0,0-1.19-.89l1.41-.81c-.07,1.27-.14,2.54-.22,3.8l0,3.82.24,3.81.43,3.8.57,3.79.69,3.79.79,3.77.82,3.78c1.11,5,2.33,10.09,3.22,15.23l.62,3.87c.16,1.3.33,2.59.48,3.89l.29,3.92.1,3.93h0a.85.85,0,0,1-.83.87h-.17a9.46,9.46,0,0,1-4.9-2.51l.87.09a2,2,0,0,0-1,1.42,9.19,9.19,0,0,0-.14,2.2c0,.79,0,1.6,0,2.43a5.57,5.57,0,0,1-.69,2.47,6.25,6.25,0,0,1-1.71,1.83c-.64.49-1.32.92-2,1.35a10.43,10.43,0,0,0-1.83,1.45,3.37,3.37,0,0,0-1,2.08,3,3,0,0,1,.18-1.18,4.13,4.13,0,0,1,.6-1.06,9.76,9.76,0,0,1,1.74-1.66c.62-.5,1.25-1,1.82-1.5a6,6,0,0,0,1.39-1.72,4.77,4.77,0,0,0,.42-2.11c0-.75-.08-1.52-.15-2.32a10.17,10.17,0,0,1,0-2.52,3.56,3.56,0,0,1,.49-1.35,3.28,3.28,0,0,1,1.06-1.07.72.72,0,0,1,.85.07l0,0a8.06,8.06,0,0,0,4.18,1.88l-1,.87-.24-3.83-.44-3.81c-.21-1.26-.39-2.53-.58-3.8l-.71-3.78c-1-5-2.24-10-3.4-15.1l-.85-3.81-.77-3.83-.68-3.85L827,469c-.14-1.3-.25-2.61-.37-3.92l-.16-3.94.08-3.95c.11-1.32.23-2.63.36-3.94h0a1,1,0,0,1,1.08-.89.9.9,0,0,1,.33.09,5.27,5.27,0,0,1,1.86,1.49,8.62,8.62,0,0,1,1.11,1.9c.57,1.28.92,2.54,1.38,3.7a5.52,5.52,0,0,0,1.88,2.78,3.16,3.16,0,0,0,.72.34,6,6,0,0,0,.86.21,6.89,6.89,0,0,1,2,.59A4.27,4.27,0,0,1,839.8,465a5.94,5.94,0,0,1,.78,2,8.87,8.87,0,0,1-.12,4.07c-.33,1.3-.8,2.52-1.17,3.76A10.3,10.3,0,0,0,838.74,478.65Z"/>
      <path d="M845.12,526.81a4.19,4.19,0,0,0-1.63-2.22,5,5,0,0,0-2.44-.92,10.64,10.64,0,0,0-5.23,1.12,7.78,7.78,0,0,0-2.21,1.4,6.55,6.55,0,0,0-.86,1,8.16,8.16,0,0,0-.66,1.15,14.86,14.86,0,0,0-1.18,5.55,10,10,0,0,1-.13-6.06,8.42,8.42,0,0,1,.65-1.48,7,7,0,0,1,1-1.32,8.29,8.29,0,0,1,2.67-1.82,13.34,13.34,0,0,1,3-.94,8.14,8.14,0,0,1,3.22.07,5.33,5.33,0,0,1,2.77,1.65A3.83,3.83,0,0,1,845.12,526.81Z"/>
      <path d="M1050.49,521.13a20.2,20.2,0,0,1,4.11-2.93,29.24,29.24,0,0,1,4.68-2c1.6-.54,3.24-1,4.88-1.38l2.46-.59c.82-.2,1.65-.39,2.49-.54a14.29,14.29,0,0,1,5.18-.15,12.38,12.38,0,0,1,2.53.72,20.15,20.15,0,0,1,2.34,1.13c1.51.83,2.9,1.79,4.31,2.69a24.35,24.35,0,0,0,4.34,2.28.68.68,0,0,1,.39.88.67.67,0,0,1-.66.44h0a38.76,38.76,0,0,0-8.33.65l.06-1.48,7.56,2a.81.81,0,0,1,.57,1,.8.8,0,0,1-.43.53h0l-2.76,1.29-.07-1.53a25.93,25.93,0,0,0,2.56.77.84.84,0,0,1,.11,1.6h0a52.07,52.07,0,0,1-8.4,2.43,53.94,53.94,0,0,1-8.69,1,52.35,52.35,0,0,1-17.27-2.34h0a.86.86,0,0,1-.56-1.08.85.85,0,0,1,.76-.6,9,9,0,0,0,5-2l.23,1.44a7.64,7.64,0,0,0-3.54-.31c-.63.06-1.29.15-1.94.24l-2,.25-7.88,1h0a.74.74,0,0,1-.83-.64.72.72,0,0,1,.44-.77,64.89,64.89,0,0,1,7-2.62,63.12,63.12,0,0,1,7.26-1.81,65.88,65.88,0,0,1,7.41-1,61.74,61.74,0,0,1,7.45-.1h0a.35.35,0,0,1,.33.36.37.37,0,0,1-.16.28l-4.78,3.13-.12-.44c1.74.16,3.49.28,5.24.35s3.5.1,5.26.08c-1.75.11-3.51.18-5.27.19s-3.51,0-5.26-.14a.24.24,0,0,1-.23-.25.22.22,0,0,1,.1-.18h0l4.65-3.31.19.64a69.43,69.43,0,0,0-7.35.36,65.66,65.66,0,0,0-7.26,1.15,71.86,71.86,0,0,0-7.08,1.93,65.65,65.65,0,0,0-6.81,2.71l-.41-1.41,7.87-1.12,2-.28c.65-.09,1.31-.19,2-.26a9.18,9.18,0,0,1,4.31.36.83.83,0,0,1,.48,1.08.76.76,0,0,1-.24.34h0a10.59,10.59,0,0,1-6,2.41l.2-1.68a50.44,50.44,0,0,0,8.26,1.79,53.05,53.05,0,0,0,8.45.42,51.68,51.68,0,0,0,8.41-.94,50.92,50.92,0,0,0,8.13-2.31l.1,1.61a28.37,28.37,0,0,1-2.71-.85h0a.82.82,0,0,1-.49-1.06.83.83,0,0,1,.43-.47l2.78-1.26.12,1.52-7.53-2.11h0a.75.75,0,0,1-.53-.93.77.77,0,0,1,.6-.55,37.62,37.62,0,0,1,8.67-.51l-.27,1.32c-3.29-1.33-5.9-3.58-8.73-5.26a19.61,19.61,0,0,0-2.18-1.13,11.79,11.79,0,0,0-2.3-.72,13.74,13.74,0,0,0-4.87,0c-1.63.25-3.29.6-4.94.93s-3.28.71-4.88,1.18a29.3,29.3,0,0,0-4.7,1.78A19.59,19.59,0,0,0,1050.49,521.13Z"/>
    </g>
  </g>
</svg>
